<!DOCTYPE svg PUBLIC "-//W3C//DTD SVG 20010904//EN" "http://www.w3.org/TR/2001/REC-SVG-20010904/DTD/svg10.dtd">
<svg version="1.0" xmlns="http://www.w3.org/2000/svg" width="80px" height="82px" viewBox="0 0 800 820" preserveAspectRatio="xMidYMid meet">
<g id="layer101" fill="#3bb0d7" stroke="none">
 <path d="M70 665 l0 -65 335 0 335 0 0 65 0 65 -335 0 -335 0 0 -65z"/>
 <path d="M85 528 c8 -24 25 -82 40 -130 22 -74 29 -88 47 -88 20 0 20 4 16 90 -3 70 -1 91 10 95 18 7 396 7 414 0 11 -4 13 -25 10 -95 -4 -86 -4 -90 16 -90 18 0 25 14 47 87 15 49 32 107 40 131 l14 42 -334 0 -334 0 14 -42z"/>
 <path d="M220 300 l0 -170 185 0 185 0 0 170 0 170 -185 0 -185 0 0 -170z"/>
 </g>
<g id="layer102" fill="#8bd1e7" stroke="none">
 <path d="M73 665 c0 -38 2 -53 4 -32 2 20 2 52 0 70 -2 17 -4 1 -4 -38z"/>
 <path d="M733 665 c0 -38 2 -53 4 -32 2 20 2 52 0 70 -2 17 -4 1 -4 -38z"/>
 <path d="M434 416 c-3 -8 -4 -29 -2 -48 3 -33 4 -33 53 -33 45 0 50 2 53 24 2 12 1 34 -2 47 -6 21 -12 24 -52 24 -29 0 -46 -5 -50 -14z m66 -36 c0 -13 -7 -20 -20 -20 -13 0 -20 7 -20 20 0 13 7 20 20 20 13 0 20 -7 20 -20z"/>
 <path d="M280 385 c0 -13 11 -15 63 -13 34 2 62 8 62 13 0 6 -28 11 -62 13 -52 2 -63 0 -63 -13z"/>
 <path d="M437 293 c-4 -3 0 -15 10 -25 15 -17 15 -19 -1 -37 -22 -25 -2 -40 23 -17 16 14 19 14 34 -1 21 -21 35 -8 19 17 -10 16 -10 24 0 40 17 26 3 37 -21 16 -16 -15 -19 -15 -31 -1 -14 16 -23 19 -33 8z"/>
 <path d="M280 255 c0 -13 11 -15 63 -13 34 2 62 8 62 13 0 6 -28 11 -62 13 -52 2 -63 0 -63 -13z"/>
 </g>
<g id="layer103" fill="#ecf7fb" stroke="none">
 <path d="M73 665 c0 -38 2 -53 4 -32 2 20 2 52 0 70 -2 17 -4 1 -4 -38z"/>
 <path d="M733 665 c0 -38 2 -53 4 -32 2 20 2 52 0 70 -2 17 -4 1 -4 -38z"/>
 <path d="M434 406 c-3 -13 -4 -35 -2 -47 3 -21 9 -24 51 -27 l47 -3 0 50 0 51 -45 0 c-39 0 -45 -3 -51 -24z m76 -26 c0 -15 -7 -20 -25 -20 -18 0 -25 5 -25 20 0 15 7 20 25 20 18 0 25 -5 25 -20z"/>
 <path d="M280 385 c0 -12 13 -15 60 -15 47 0 60 3 60 15 0 12 -13 15 -60 15 -47 0 -60 -3 -60 -15z"/>
 <path d="M440 287 c0 -7 5 -18 11 -24 8 -8 7 -17 -2 -31 -17 -27 -4 -40 19 -19 17 15 19 15 35 0 21 -21 35 -8 19 17 -10 16 -10 24 0 40 17 26 3 37 -21 16 -16 -15 -19 -15 -31 -1 -15 18 -30 20 -30 2z"/>
 <path d="M282 258 c3 -8 27 -14 61 -16 46 -2 57 0 57 13 0 12 -13 15 -61 15 -44 0 -60 -3 -57 -12z"/>
 </g>

</svg>