<!DOCTYPE svg PUBLIC "-//W3C//DTD SVG 20010904//EN" "http://www.w3.org/TR/2001/REC-SVG-20010904/DTD/svg10.dtd">
<svg version="1.0" xmlns="http://www.w3.org/2000/svg" width="1200px" height="484px" viewBox="0 0 12000 4840" preserveAspectRatio="xMidYMid meet">
<g id="layer101" fill="#121212" stroke="none">
 <path d="M0 2420 l0 -2420 6000 0 6000 0 0 2420 0 2420 -6000 0 -6000 0 0 -2420z"/>
 </g>
<g id="layer102" fill="#ffffff" stroke="none">
 <path d="M0 4800 c0 -23 5 -43 12 -45 7 -3 162 -32 343 -64 182 -33 771 -140 1310 -240 539 -99 1412 -259 1940 -356 2450 -449 2815 -517 2895 -535 47 -11 339 -65 650 -120 772 -138 4199 -763 4703 -859 l147 -28 0 1144 0 1143 -6000 0 -6000 0 0 -40z"/>
 </g>

</svg>