<!DOCTYPE svg PUBLIC "-//W3C//DTD SVG 20010904//EN" "http://www.w3.org/TR/2001/REC-SVG-20010904/DTD/svg10.dtd">
<svg version="1.0" xmlns="http://www.w3.org/2000/svg" width="170px" height="146px" viewBox="0 0 1700 1460" preserveAspectRatio="xMidYMid meet">
<g id="layer101" fill="#3db1d7" stroke="none">
 <path d="M1049 1264 c-10 -12 -10 -23 -2 -47 30 -86 29 -93 -28 -145 -68 -63 -63 -77 26 -84 36 -3 68 -8 71 -11 3 -3 16 -31 29 -64 19 -45 29 -58 45 -58 16 0 26 13 45 58 13 33 25 61 28 63 2 3 34 7 71 11 90 8 95 23 26 85 l-53 49 17 66 c20 83 10 103 -38 74 -17 -10 -46 -27 -63 -37 -36 -20 -29 -22 -129 37 -28 17 -33 18 -45 3z"/>
 <path d="M367 1122 c-27 -29 -23 -140 6 -183 70 -104 246 -169 456 -169 96 0 226 21 244 39 8 8 -4 58 -18 79 -2 2 -53 7 -115 12 -187 15 -205 47 -85 155 41 37 75 71 75 76 0 5 -116 9 -273 9 -253 0 -275 -1 -290 -18z"/>
 <path d="M750 604 c-79 -34 -140 -121 -140 -199 0 -49 33 -127 66 -156 117 -102 284 -64 345 79 24 55 24 99 0 154 -47 109 -172 165 -271 122z"/>
 </g>
<g id="layer102" fill="#a3daec" stroke="none">
 <path d="M1052 1268 c-15 -15 -15 -38 -1 -58 8 -12 9 -9 5 13 -9 37 0 50 25 37 10 -6 19 -8 19 -6 0 14 -38 24 -48 14z"/>
 <path d="M1295 1266 c-18 -13 -18 -14 9 -9 27 6 28 5 22 -28 -6 -34 -6 -34 5 -6 9 23 8 32 -3 43 -12 12 -17 12 -33 0z"/>
 <path d="M1220 1225 c-25 -14 -39 -25 -31 -25 14 0 81 38 81 46 0 6 0 6 -50 -21z"/>
 <path d="M367 1122 c-18 -20 -24 -135 -9 -159 4 -6 6 21 4 60 -1 40 2 79 7 87 9 13 56 16 288 20 l278 6 -276 2 c-256 2 -277 1 -292 -16z"/>
 <path d="M1301 1129 c-1 -8 25 -37 57 -63 l57 -48 -51 49 c-28 27 -54 55 -57 63 -4 13 -6 12 -6 -1z"/>
 <path d="M1020 1073 l-55 -55 58 48 c31 26 57 51 57 56 0 11 0 12 -60 -49z"/>
 <path d="M843 1054 c-75 -68 -86 -92 -60 -127 6 -10 30 -20 52 -22 37 -4 38 -4 8 4 -86 23 -84 57 9 143 40 37 71 67 68 67 -3 0 -38 -29 -77 -65z"/>
 <path d="M1097 983 c12 -2 25 -13 28 -24 4 -11 9 -18 12 -16 11 12 -19 47 -40 46 l-22 -2 22 -4z"/>
 <path d="M1250 969 c-7 -11 -9 -23 -7 -26 3 -2 8 5 12 16 3 12 17 21 33 24 l27 4 -27 2 c-18 1 -31 -6 -38 -20z"/>
 <path d="M400 905 c19 -19 36 -35 39 -35 3 0 -10 16 -29 35 -19 19 -36 35 -39 35 -3 0 10 -16 29 -35z"/>
 <path d="M1156 890 c3 -14 10 -29 15 -34 14 -16 10 6 -7 34 l-15 25 7 -25z"/>
 <path d="M1211 884 c-6 -15 -9 -29 -7 -32 3 -2 10 8 16 23 14 36 7 43 -9 9z"/>
 <path d="M948 893 c12 -2 32 -2 45 0 12 2 2 4 -23 4 -25 0 -35 -2 -22 -4z"/>
 <path d="M450 865 c0 -7 81 -47 86 -43 2 3 -17 14 -41 26 -25 12 -45 20 -45 17z"/>
 <path d="M1066 838 c5 -25 3 -27 -50 -39 -31 -7 -54 -14 -52 -17 9 -9 108 21 113 34 2 7 0 21 -6 31 -10 15 -10 14 -5 -9z"/>
 <path d="M590 802 c8 -5 33 -12 55 -16 48 -7 19 8 -35 18 -23 5 -30 4 -20 -2z"/>
 <path d="M744 601 c-23 -10 -44 -23 -47 -28 -4 -6 15 1 41 14 37 19 58 24 100 20 30 -2 47 0 40 4 -23 15 -91 9 -134 -10z"/>
 <path d="M925 581 c33 -20 66 -54 83 -86 7 -12 12 -15 12 -6 0 18 -93 111 -111 111 -8 0 0 -8 16 -19z"/>
 <path d="M616 464 c-8 -22 -7 -107 2 -121 4 -6 7 22 7 63 0 41 -1 74 -1 74 -1 0 -5 -7 -8 -16z"/>
 <path d="M1025 405 c0 -35 3 -58 7 -52 4 7 8 30 8 52 0 22 -4 45 -8 52 -4 6 -7 -17 -7 -52z"/>
 <path d="M996 295 c-9 -14 -13 -25 -8 -25 5 0 14 11 20 25 6 14 10 25 8 25 -2 0 -11 -11 -20 -25z"/>
 <path d="M649 285 c10 -22 37 -47 61 -59 8 -4 5 2 -8 13 -13 11 -32 30 -43 43 -17 19 -19 20 -10 3z"/>
 <path d="M763 198 c7 -4 35 -8 62 -8 28 0 55 4 62 8 6 4 -22 7 -62 7 -40 0 -68 -3 -62 -7z"/>
 </g>

</svg>