<!DOCTYPE svg PUBLIC "-//W3C//DTD SVG 20010904//EN" "http://www.w3.org/TR/2001/REC-SVG-20010904/DTD/svg10.dtd">
<svg version="1.0" xmlns="http://www.w3.org/2000/svg" width="678px" height="632px" viewBox="0 0 6780 6320" preserveAspectRatio="xMidYMid meet">
<g id="layer101" fill="#d61c4a" stroke="none">
 <path d="M5888 5620 c-39 -30 -40 -64 -6 -149 50 -126 49 -246 -4 -358 l-22 -47 -13 69 c-24 133 -102 243 -208 295 -43 21 -65 24 -150 24 -86 1 -106 -3 -145 -23 -109 -57 -169 -132 -197 -246 -30 -120 5 -236 100 -339 59 -64 148 -120 226 -142 l53 -16 -38 -40 c-50 -53 -179 -149 -257 -192 -85 -48 -199 -92 -309 -120 -105 -28 -128 -47 -128 -106 0 -30 6 -44 31 -64 37 -31 57 -32 157 -6 310 79 571 253 758 504 42 55 95 115 118 132 105 78 198 215 230 340 19 72 21 220 5 296 -16 74 -62 172 -90 192 -32 22 -81 20 -111 -4z"/>
 <path d="M916 5523 c3 -16 37 -149 75 -298 37 -148 118 -479 179 -735 130 -547 166 -691 185 -745 l14 -40 1 53 c0 89 30 341 51 437 68 317 226 635 432 869 48 55 84 103 80 107 -5 3 -87 36 -183 72 -96 36 -318 120 -494 186 -175 67 -324 121 -332 121 -11 0 -13 -7 -8 -27z"/>
 <path d="M3170 4667 c-141 -63 -362 -176 -434 -221 -308 -195 -586 -468 -789 -776 -74 -113 -192 -347 -252 -497 -40 -102 -95 -278 -95 -305 0 -9 -8 -22 -17 -27 -11 -6 -13 -11 -5 -11 7 0 10 -5 7 -11 -4 -5 46 -225 111 -487 100 -406 123 -485 150 -529 33 -52 103 -103 147 -108 12 -1 22 -3 22 -5 0 -7 166 -6 171 1 3 6 14 7 25 4 10 -4 24 -3 31 2 7 4 18 8 23 8 6 1 17 4 25 7 8 3 51 18 95 33 89 31 266 114 363 170 45 26 63 33 66 23 9 -26 25 -186 31 -308 8 -149 -6 -345 -37 -532 l-22 -137 20 -28 c40 -54 107 -55 145 -3 39 53 79 358 79 605 0 161 -19 387 -41 485 -10 43 -9 46 18 67 182 143 261 207 329 269 45 41 84 74 87 74 4 0 103 -88 222 -195 119 -107 227 -198 241 -201 34 -9 82 14 99 47 19 36 19 59 -1 87 -13 18 -205 197 -382 355 l-43 38 117 127 c65 70 120 128 124 130 7 3 897 -416 1441 -679 124 -60 237 -109 251 -109 60 0 102 72 78 131 -15 36 50 4 -1245 619 -176 83 -339 161 -362 172 l-42 20 57 76 c32 43 79 107 105 143 l47 66 187 6 c315 11 561 53 838 144 123 40 165 71 165 121 0 16 -9 41 -20 55 -34 43 -65 42 -203 -2 -242 -77 -469 -118 -705 -128 l-154 -6 33 64 c18 35 32 67 31 72 -1 4 3 7 9 7 5 0 7 5 4 10 -3 6 -1 10 6 10 7 0 9 3 6 7 -4 3 -3 11 2 17 5 6 20 40 34 76 61 163 77 347 38 436 -12 27 -32 59 -44 72 -39 42 -213 120 -557 248 -184 69 -386 145 -448 170 -117 46 -141 50 -182 31z"/>
 <path d="M5595 3956 c-74 -34 -109 -94 -103 -178 12 -169 218 -223 322 -85 13 17 21 48 24 86 5 71 -19 122 -74 160 -43 30 -125 38 -169 17z"/>
 <path d="M1372 3685 c0 -11 4 -31 8 -45 6 -20 8 -21 8 -5 0 11 -4 31 -8 45 -6 20 -8 21 -8 5z"/>
 <path d="M1422 3475 c0 -11 4 -31 8 -45 6 -20 8 -21 8 -5 0 11 -4 31 -8 45 -6 20 -8 21 -8 5z"/>
 <path d="M1462 3305 c0 -11 4 -31 8 -45 6 -20 8 -21 8 -5 0 11 -4 31 -8 45 -6 20 -8 21 -8 5z"/>
 <path d="M5516 2624 c-24 -24 -26 -34 -26 -104 0 -62 4 -82 20 -103 39 -49 116 -42 145 14 9 16 15 56 15 93 0 55 -4 69 -26 95 -35 41 -89 43 -128 5z"/>
 <path d="M5793 2467 c-47 -48 -53 -59 -53 -95 0 -33 6 -45 31 -66 51 -43 95 -30 167 48 44 48 52 79 30 119 -18 34 -40 46 -82 47 -34 0 -46 -7 -93 -53z"/>
 <path d="M5866 2184 c-37 -37 -35 -86 3 -125 27 -26 36 -29 96 -29 81 0 119 18 134 63 13 38 7 62 -22 95 -18 19 -30 22 -102 22 -76 0 -84 -2 -109 -26z"/>
 <path d="M5792 1955 c-37 -16 -52 -42 -52 -88 0 -28 10 -43 59 -90 34 -33 69 -57 81 -57 57 0 109 61 96 114 -7 29 -98 119 -130 127 -13 4 -37 1 -54 -6z"/>
 <path d="M5233 1907 c-45 -46 -53 -60 -53 -91 0 -43 44 -96 80 -96 48 0 142 81 156 134 14 56 -28 106 -89 106 -35 0 -47 -7 -94 -53z"/>
 <path d="M4170 1635 l0 -225 219 0 c190 0 220 2 225 16 3 9 6 110 6 225 l0 209 -225 0 -225 0 0 -225z"/>
 <path d="M5516 1834 c-24 -24 -26 -34 -26 -103 0 -84 14 -115 57 -132 37 -14 90 6 108 41 9 17 15 56 15 95 0 60 -3 69 -29 96 -39 38 -88 40 -125 3z"/>
 <path d="M3484 1491 c-127 -58 -138 -239 -18 -309 85 -49 215 -11 250 74 51 121 -36 255 -166 254 -14 0 -44 -9 -66 -19z"/>
 <path d="M1090 1273 c0 -10 9 -78 21 -151 l22 -133 -109 -110 c-60 -60 -106 -109 -104 -110 3 0 70 -10 150 -22 l145 -22 66 -130 c37 -71 71 -131 76 -132 5 -2 38 55 73 127 35 72 71 132 80 134 8 2 71 12 140 22 69 9 129 21 135 26 6 5 -31 49 -95 113 l-104 104 23 146 c13 80 22 148 19 150 -2 3 -64 -27 -137 -65 l-132 -71 -134 71 c-111 59 -135 68 -135 53z"/>
 <path d="M5165 1046 c-27 -27 -40 -94 -30 -155 7 -44 51 -91 85 -91 68 0 100 47 100 145 0 60 -3 69 -29 96 -38 38 -91 40 -126 5z"/>
 <path d="M4924 801 c-50 -21 -66 -78 -39 -130 35 -69 205 -69 240 0 21 40 18 74 -9 106 -22 25 -31 28 -97 30 -41 2 -84 -1 -95 -6z"/>
 <path d="M5364 801 c-47 -20 -68 -86 -43 -133 34 -63 214 -63 248 0 18 34 13 79 -13 109 -22 25 -31 28 -97 30 -41 2 -84 -1 -95 -6z"/>
 <path d="M2695 706 c-37 -16 -92 -77 -101 -112 -11 -42 2 -124 23 -152 66 -90 181 -105 264 -35 40 34 59 79 59 138 0 125 -131 211 -245 161z"/>
 <path d="M5165 606 c-27 -27 -40 -94 -30 -155 14 -83 93 -118 152 -67 25 22 28 31 31 105 4 78 3 81 -26 111 -39 39 -92 41 -127 6z"/>
 </g>
<g id="layer102" fill="#2376bb" stroke="none">
 <path d="M5888 5620 c-39 -30 -40 -64 -6 -149 50 -126 49 -246 -4 -358 l-22 -47 -13 69 c-24 133 -102 243 -208 295 -43 21 -65 24 -150 24 -86 1 -106 -3 -145 -23 -109 -57 -169 -132 -197 -246 -30 -120 5 -236 100 -339 59 -64 148 -120 226 -142 l53 -16 -38 -40 c-50 -53 -179 -149 -257 -192 -85 -48 -199 -92 -309 -120 -105 -28 -128 -47 -128 -106 0 -30 6 -44 31 -64 37 -31 57 -32 157 -6 310 79 571 253 758 504 42 55 95 115 118 132 105 78 198 215 230 340 19 72 21 220 5 296 -16 74 -62 172 -90 192 -32 22 -81 20 -111 -4z"/>
 <path d="M913 5533 c3 -10 34 -131 68 -270 35 -139 65 -250 68 -248 2 3 -25 119 -60 259 -34 141 -60 258 -57 261 3 3 30 -4 59 -16 161 -63 583 -219 586 -215 2 2 -9 8 -24 14 -15 6 -160 60 -322 121 -162 61 -300 111 -308 111 -9 0 -13 -7 -10 -17z"/>
 <path d="M1800 5216 c0 -2 27 -14 60 -26 33 -12 60 -24 60 -27 0 -2 -28 -36 -63 -76 -55 -64 -127 -158 -100 -132 50 48 182 210 176 216 -8 6 -119 49 -128 49 -3 0 -5 -2 -5 -4z"/>
 <path d="M1728 4923 c-30 -34 -108 -163 -152 -250 -51 -104 -119 -280 -113 -296 2 -7 9 4 14 23 34 115 129 314 216 453 56 88 63 102 35 70z"/>
 <path d="M1091 4834 c-2 -22 240 -1020 264 -1089 l14 -40 -1 65 c0 44 -2 56 -7 35 -5 -22 -17 18 -54 175 -54 228 -205 839 -211 855 -3 6 -5 6 -5 -1z"/>
 <path d="M3123 4646 c-88 -39 -109 -56 -33 -26 144 58 132 56 195 32 32 -13 60 -21 62 -19 6 7 -108 47 -130 46 -12 0 -55 -15 -94 -33z"/>
 <path d="M2880 4529 c-447 -240 -831 -632 -1060 -1081 -33 -64 -60 -120 -60 -125 0 -4 27 42 59 103 157 297 336 530 568 740 156 141 280 229 488 346 140 79 143 91 5 17z"/>
 <path d="M3651 4515 c3 -2 113 -45 245 -95 131 -49 247 -95 257 -101 11 -6 21 -8 25 -5 7 7 -24 20 -295 122 -211 80 -243 91 -232 79z"/>
 <path d="M1442 4321 c-7 -21 -12 -45 -11 -52 0 -8 7 8 15 35 9 26 13 50 11 52 -2 2 -9 -13 -15 -35z"/>
 <path d="M4090 4299 c-417 -34 -1090 -487 -1622 -1092 -238 -271 -423 -539 -539 -782 -67 -141 -94 -223 -119 -360 -10 -55 -19 -89 -19 -76 -1 13 -4 22 -7 18 -13 -13 30 -154 62 -204 33 -52 103 -103 147 -108 12 -1 22 -3 22 -5 0 -7 166 -6 171 1 3 6 14 7 25 4 10 -4 24 -3 31 2 7 4 18 8 23 8 6 1 17 4 25 7 8 3 51 18 95 33 89 31 266 114 363 170 45 26 63 33 66 23 9 -26 25 -186 31 -308 8 -149 -6 -345 -37 -532 l-22 -137 20 -28 c40 -54 107 -55 145 -3 39 53 79 358 79 605 0 161 -19 387 -41 485 -10 43 -9 46 18 67 182 143 261 207 329 269 45 41 84 74 87 74 4 0 103 -88 222 -195 119 -107 227 -198 241 -201 34 -9 82 14 99 47 19 36 19 59 -1 87 -13 18 -205 197 -382 355 l-43 38 117 127 c65 70 120 128 124 130 7 3 897 -416 1441 -679 124 -60 237 -109 251 -109 60 0 102 72 78 131 -15 36 50 4 -1245 619 -176 83 -339 161 -362 172 l-42 20 57 76 c32 43 79 107 105 143 l47 66 187 6 c315 11 561 53 838 144 123 40 165 71 165 121 0 16 -9 41 -20 55 -34 43 -65 42 -203 -2 -242 -77 -469 -118 -705 -128 l-154 -6 33 64 c18 35 32 67 31 72 -1 4 3 7 9 7 5 0 7 5 4 10 -3 6 -1 10 6 10 7 0 9 3 6 7 -4 3 -3 11 2 17 5 6 20 40 34 76 61 163 77 347 38 436 -29 64 -54 90 -121 124 -74 37 -81 38 -190 29z"/>
 <path d="M1392 4080 c0 -19 2 -27 5 -17 2 9 2 25 0 35 -3 9 -5 1 -5 -18z"/>
 <path d="M1383 3995 c0 -22 2 -30 4 -17 2 12 2 30 0 40 -3 9 -5 -1 -4 -23z"/>
 <path d="M5595 3956 c-74 -34 -109 -94 -103 -178 12 -169 218 -223 322 -85 13 17 21 48 24 86 5 71 -19 122 -74 160 -43 30 -125 38 -169 17z"/>
 <path d="M1373 3900 c0 -30 2 -43 4 -27 2 15 2 39 0 55 -2 15 -4 2 -4 -28z"/>
 <path d="M1372 3685 c0 -11 4 -31 8 -45 6 -20 8 -21 8 -5 0 11 -4 31 -8 45 -6 20 -8 21 -8 5z"/>
 <path d="M1422 3475 c0 -11 4 -31 8 -45 6 -20 8 -21 8 -5 0 11 -4 31 -8 45 -6 20 -8 21 -8 5z"/>
 <path d="M1462 3305 c0 -11 4 -31 8 -45 6 -20 8 -21 8 -5 0 11 -4 31 -8 45 -6 20 -8 21 -8 5z"/>
 <path d="M1690 3158 c-38 -96 -90 -265 -90 -290 0 -9 -8 -22 -17 -27 -11 -6 -13 -11 -5 -11 7 0 10 -5 7 -11 -4 -6 28 -152 71 -325 43 -173 80 -311 81 -307 2 5 -29 141 -68 303 -53 224 -69 305 -64 335 8 58 60 237 95 329 16 44 28 82 26 84 -2 2 -18 -34 -36 -80z"/>
 <path d="M5516 2624 c-24 -24 -26 -34 -26 -104 0 -62 4 -82 20 -103 39 -49 116 -42 145 14 9 16 15 56 15 93 0 55 -4 69 -26 95 -35 41 -89 43 -128 5z"/>
 <path d="M5793 2467 c-47 -48 -53 -59 -53 -95 0 -33 6 -45 31 -66 51 -43 95 -30 167 48 44 48 52 79 30 119 -18 34 -40 46 -82 47 -34 0 -46 -7 -93 -53z"/>
 <path d="M5866 2184 c-37 -37 -35 -86 3 -125 27 -26 36 -29 96 -29 81 0 119 18 134 63 13 38 7 62 -22 95 -18 19 -30 22 -102 22 -76 0 -84 -2 -109 -26z"/>
 <path d="M5792 1955 c-37 -16 -52 -42 -52 -88 0 -28 10 -43 59 -90 34 -33 69 -57 81 -57 57 0 109 61 96 114 -7 29 -98 119 -130 127 -13 4 -37 1 -54 -6z"/>
 <path d="M5233 1907 c-45 -46 -53 -60 -53 -91 0 -43 44 -96 80 -96 48 0 142 81 156 134 14 56 -28 106 -89 106 -35 0 -47 -7 -94 -53z"/>
 <path d="M4170 1635 l0 -225 219 0 c190 0 220 2 225 16 3 9 6 110 6 225 l0 209 -225 0 -225 0 0 -225z"/>
 <path d="M5516 1834 c-24 -24 -26 -34 -26 -103 0 -84 14 -115 57 -132 37 -14 90 6 108 41 9 17 15 56 15 95 0 60 -3 69 -29 96 -39 38 -88 40 -125 3z"/>
 <path d="M3484 1491 c-127 -58 -138 -239 -18 -309 85 -49 215 -11 250 74 51 121 -36 255 -166 254 -14 0 -44 -9 -66 -19z"/>
 <path d="M1090 1273 c0 -10 9 -78 21 -151 l22 -133 -109 -110 c-60 -60 -106 -109 -104 -110 3 0 70 -10 150 -22 l145 -22 66 -130 c37 -71 71 -131 76 -132 5 -2 38 55 73 127 35 72 71 132 80 134 8 2 71 12 140 22 69 9 129 21 135 26 6 5 -31 49 -95 113 l-104 104 23 146 c13 80 22 148 19 150 -2 3 -64 -27 -137 -65 l-132 -71 -134 71 c-111 59 -135 68 -135 53z"/>
 <path d="M5165 1046 c-27 -27 -40 -94 -30 -155 7 -44 51 -91 85 -91 68 0 100 47 100 145 0 60 -3 69 -29 96 -38 38 -91 40 -126 5z"/>
 <path d="M4924 801 c-50 -21 -66 -78 -39 -130 35 -69 205 -69 240 0 21 40 18 74 -9 106 -22 25 -31 28 -97 30 -41 2 -84 -1 -95 -6z"/>
 <path d="M5364 801 c-47 -20 -68 -86 -43 -133 34 -63 214 -63 248 0 18 34 13 79 -13 109 -22 25 -31 28 -97 30 -41 2 -84 -1 -95 -6z"/>
 <path d="M2695 706 c-37 -16 -92 -77 -101 -112 -11 -42 2 -124 23 -152 66 -90 181 -105 264 -35 40 34 59 79 59 138 0 125 -131 211 -245 161z"/>
 <path d="M5165 606 c-27 -27 -40 -94 -30 -155 14 -83 93 -118 152 -67 25 22 28 31 31 105 4 78 3 81 -26 111 -39 39 -92 41 -127 6z"/>
 </g>
<g id="layer103" fill="#d85a80" stroke="none">
 <path d="M5888 5620 c-39 -30 -40 -64 -6 -149 50 -126 49 -246 -4 -358 l-22 -47 -13 69 c-24 133 -102 243 -208 295 -43 21 -65 24 -150 24 -86 1 -106 -3 -145 -23 -109 -57 -169 -132 -197 -246 -30 -120 5 -236 100 -339 59 -64 148 -120 226 -142 l53 -16 -38 -40 c-50 -53 -179 -149 -257 -192 -85 -48 -199 -92 -309 -120 -105 -28 -128 -47 -128 -106 0 -30 6 -44 31 -64 37 -31 57 -32 157 -6 310 79 571 253 758 504 42 55 95 115 118 132 105 78 198 215 230 340 19 72 21 220 5 296 -16 74 -62 172 -90 192 -32 22 -81 20 -111 -4z"/>
 <path d="M913 5533 c3 -10 34 -131 68 -270 35 -139 65 -250 68 -248 2 3 -25 119 -60 259 -34 141 -60 258 -57 261 3 3 30 -4 59 -16 161 -63 583 -219 586 -215 2 2 -9 8 -24 14 -15 6 -160 60 -322 121 -162 61 -300 111 -308 111 -9 0 -13 -7 -10 -17z"/>
 <path d="M1800 5216 c0 -2 27 -14 60 -26 33 -12 60 -24 60 -27 0 -2 -28 -36 -63 -76 -55 -64 -127 -158 -100 -132 50 48 182 210 176 216 -8 6 -119 49 -128 49 -3 0 -5 -2 -5 -4z"/>
 <path d="M1728 4923 c-30 -34 -108 -163 -152 -250 -51 -104 -119 -280 -113 -296 2 -7 9 4 14 23 34 115 129 314 216 453 56 88 63 102 35 70z"/>
 <path d="M1091 4834 c-2 -22 240 -1020 264 -1089 l14 -40 -1 65 c0 44 -2 56 -7 35 -5 -22 -17 18 -54 175 -54 228 -205 839 -211 855 -3 6 -5 6 -5 -1z"/>
 <path d="M3123 4646 c-88 -39 -109 -56 -33 -26 144 58 132 56 195 32 32 -13 60 -21 62 -19 6 7 -108 47 -130 46 -12 0 -55 -15 -94 -33z"/>
 <path d="M2880 4529 c-447 -240 -831 -632 -1060 -1081 -33 -64 -60 -120 -60 -125 0 -4 27 42 59 103 157 297 336 530 568 740 156 141 280 229 488 346 140 79 143 91 5 17z"/>
 <path d="M3651 4515 c3 -2 113 -45 245 -95 131 -49 247 -95 257 -101 11 -6 21 -8 25 -5 7 7 -24 20 -295 122 -211 80 -243 91 -232 79z"/>
 <path d="M1442 4321 c-7 -21 -12 -45 -11 -52 0 -8 7 8 15 35 9 26 13 50 11 52 -2 2 -9 -13 -15 -35z"/>
 <path d="M4090 4299 c-417 -34 -1090 -487 -1622 -1092 -238 -271 -423 -539 -539 -782 -67 -141 -94 -223 -119 -360 -10 -55 -19 -89 -19 -76 -1 13 -4 22 -7 18 -13 -13 30 -154 62 -204 33 -52 103 -103 147 -108 12 -1 22 -3 22 -5 0 -7 166 -6 171 1 3 6 14 7 25 4 10 -4 24 -3 31 2 7 4 18 8 23 8 6 1 17 4 25 7 8 3 51 18 95 33 89 31 266 114 363 170 45 26 63 33 66 23 9 -26 25 -186 31 -308 8 -149 -6 -345 -37 -532 l-22 -137 20 -28 c40 -54 107 -55 145 -3 39 53 79 358 79 605 0 161 -19 387 -41 485 -10 43 -9 46 18 67 182 143 261 207 329 269 45 41 84 74 87 74 4 0 103 -88 222 -195 119 -107 227 -198 241 -201 34 -9 82 14 99 47 19 36 19 59 -1 87 -13 18 -205 197 -382 355 l-43 38 117 127 c65 70 120 128 124 130 7 3 897 -416 1441 -679 124 -60 237 -109 251 -109 60 0 102 72 78 131 -15 36 50 4 -1245 619 -176 83 -339 161 -362 172 l-42 20 57 76 c32 43 79 107 105 143 l47 66 187 6 c315 11 561 53 838 144 123 40 165 71 165 121 0 16 -9 41 -20 55 -34 43 -65 42 -203 -2 -242 -77 -469 -118 -705 -128 l-154 -6 33 64 c18 35 32 67 31 72 -1 4 3 7 9 7 5 0 7 5 4 10 -3 6 -1 10 6 10 7 0 9 3 6 7 -4 3 -3 11 2 17 5 6 20 40 34 76 61 163 77 347 38 436 -29 64 -54 90 -121 124 -74 37 -81 38 -190 29z"/>
 <path d="M1392 4080 c0 -19 2 -27 5 -17 2 9 2 25 0 35 -3 9 -5 1 -5 -18z"/>
 <path d="M1383 3995 c0 -22 2 -30 4 -17 2 12 2 30 0 40 -3 9 -5 -1 -4 -23z"/>
 <path d="M5595 3956 c-74 -34 -109 -94 -103 -178 12 -169 218 -223 322 -85 13 17 21 48 24 86 5 71 -19 122 -74 160 -43 30 -125 38 -169 17z"/>
 <path d="M1373 3900 c0 -30 2 -43 4 -27 2 15 2 39 0 55 -2 15 -4 2 -4 -28z"/>
 <path d="M1372 3685 c0 -11 4 -31 8 -45 6 -20 8 -21 8 -5 0 11 -4 31 -8 45 -6 20 -8 21 -8 5z"/>
 <path d="M1422 3475 c0 -11 4 -31 8 -45 6 -20 8 -21 8 -5 0 11 -4 31 -8 45 -6 20 -8 21 -8 5z"/>
 <path d="M1462 3305 c0 -11 4 -31 8 -45 6 -20 8 -21 8 -5 0 11 -4 31 -8 45 -6 20 -8 21 -8 5z"/>
 <path d="M1690 3158 c-38 -96 -90 -265 -90 -290 0 -9 -8 -22 -17 -27 -11 -6 -13 -11 -5 -11 7 0 10 -5 7 -11 -4 -6 28 -152 71 -325 43 -173 80 -311 81 -307 2 5 -29 141 -68 303 -53 224 -69 305 -64 335 8 58 60 237 95 329 16 44 28 82 26 84 -2 2 -18 -34 -36 -80z"/>
 <path d="M5516 2624 c-24 -24 -26 -34 -26 -104 0 -62 4 -82 20 -103 39 -49 116 -42 145 14 9 16 15 56 15 93 0 55 -4 69 -26 95 -35 41 -89 43 -128 5z"/>
 <path d="M5793 2467 c-47 -48 -53 -59 -53 -95 0 -33 6 -45 31 -66 51 -43 95 -30 167 48 44 48 52 79 30 119 -18 34 -40 46 -82 47 -34 0 -46 -7 -93 -53z"/>
 <path d="M5866 2184 c-37 -37 -35 -86 3 -125 27 -26 36 -29 96 -29 81 0 119 18 134 63 13 38 7 62 -22 95 -18 19 -30 22 -102 22 -76 0 -84 -2 -109 -26z"/>
 <path d="M5792 1955 c-37 -16 -52 -42 -52 -88 0 -28 10 -43 59 -90 34 -33 69 -57 81 -57 57 0 109 61 96 114 -7 29 -98 119 -130 127 -13 4 -37 1 -54 -6z"/>
 <path d="M5233 1907 c-45 -46 -53 -60 -53 -91 0 -43 44 -96 80 -96 48 0 142 81 156 134 14 56 -28 106 -89 106 -35 0 -47 -7 -94 -53z"/>
 <path d="M4170 1635 l0 -225 219 0 c190 0 220 2 225 16 3 9 6 110 6 225 l0 209 -225 0 -225 0 0 -225z"/>
 <path d="M5516 1834 c-24 -24 -26 -34 -26 -103 0 -84 14 -115 57 -132 37 -14 90 6 108 41 9 17 15 56 15 95 0 60 -3 69 -29 96 -39 38 -88 40 -125 3z"/>
 <path d="M3484 1491 c-127 -58 -138 -239 -18 -309 85 -49 215 -11 250 74 51 121 -36 255 -166 254 -14 0 -44 -9 -66 -19z"/>
 <path d="M1090 1273 c0 -10 9 -78 21 -151 l22 -133 -109 -110 c-60 -60 -106 -109 -104 -110 3 0 70 -10 150 -22 l145 -22 66 -130 c37 -71 71 -131 76 -132 5 -2 38 55 73 127 35 72 71 132 80 134 8 2 71 12 140 22 69 9 129 21 135 26 6 5 -31 49 -95 113 l-104 104 23 146 c13 80 22 148 19 150 -2 3 -64 -27 -137 -65 l-132 -71 -134 71 c-111 59 -135 68 -135 53z"/>
 <path d="M5165 1045 c-14 -13 -25 -30 -24 -37 0 -7 5 -3 11 8 10 22 47 44 73 44 59 0 90 -56 83 -148 -4 -45 -10 -60 -32 -79 -37 -31 -71 -29 -107 6 -16 16 -29 26 -29 21 0 -14 61 -60 80 -60 68 0 100 47 100 145 0 60 -3 69 -29 96 -38 38 -91 40 -126 4z"/>
 <path d="M5133 935 c0 -27 2 -38 4 -22 2 15 2 37 0 50 -2 12 -4 0 -4 -28z"/>
 <path d="M4924 801 c-29 -12 -54 -50 -54 -79 0 -38 27 -79 61 -91 70 -24 170 -7 191 33 11 21 10 21 -14 -1 -21 -20 -35 -23 -100 -23 -86 0 -114 15 -124 66 -13 66 68 109 169 90 49 -9 69 -28 77 -72 7 -38 8 -38 9 -7 1 20 -8 42 -23 60 -22 25 -31 28 -97 30 -41 2 -84 -1 -95 -6z"/>
 <path d="M5364 801 c-47 -20 -68 -86 -43 -133 34 -63 214 -63 248 0 18 34 13 79 -13 109 -22 25 -31 28 -97 30 -41 2 -84 -1 -95 -6z m152 -11 c55 -21 70 -77 33 -124 -19 -24 -26 -26 -103 -26 -91 0 -108 9 -121 63 -8 32 15 73 48 87 31 12 110 12 143 0z"/>
 <path d="M2695 706 c-37 -16 -92 -77 -101 -112 -11 -42 2 -124 23 -152 66 -90 181 -105 264 -35 40 34 59 79 59 138 0 125 -131 211 -245 161z"/>
 <path d="M5165 605 c-14 -13 -25 -30 -25 -37 0 -7 6 -4 12 7 18 31 40 44 74 45 61 0 93 -62 80 -158 -3 -25 -13 -53 -22 -63 -36 -40 -106 -29 -131 21 -8 16 -13 19 -13 9 0 -9 12 -28 26 -43 35 -34 83 -35 121 -2 25 22 28 31 31 105 4 78 3 81 -26 111 -39 39 -92 41 -127 5z"/>
 <path d="M5133 495 c0 -27 2 -38 4 -22 2 15 2 37 0 50 -2 12 -4 0 -4 -28z"/>
 </g>
<g id="layer104" fill="#2db2ce" stroke="none">
 <path d="M5888 5620 c-39 -30 -40 -64 -6 -149 50 -126 49 -246 -4 -358 l-22 -47 -13 69 c-24 133 -102 243 -208 295 -43 21 -65 24 -150 24 -86 1 -106 -3 -145 -23 -109 -57 -169 -132 -197 -246 -30 -120 5 -236 100 -339 59 -64 148 -120 226 -142 l53 -16 -38 -40 c-50 -53 -179 -149 -257 -192 -85 -48 -199 -92 -309 -120 -105 -28 -128 -47 -128 -106 0 -30 6 -44 31 -64 37 -31 57 -32 157 -6 310 79 571 253 758 504 42 55 95 115 118 132 105 78 198 215 230 340 19 72 21 220 5 296 -16 74 -62 172 -90 192 -32 22 -81 20 -111 -4z"/>
 <path d="M931 5472 c-1 -19 52 -228 56 -217 1 6 -11 60 -26 120 -16 61 -30 104 -30 97z"/>
 <path d="M1340 5392 c8 -5 26 -13 40 -16 17 -5 20 -4 10 2 -8 5 -26 13 -40 16 -17 5 -20 4 -10 -2z"/>
 <path d="M1420 5362 c8 -5 26 -13 40 -16 17 -5 20 -4 10 2 -8 5 -26 13 -40 16 -17 5 -20 4 -10 -2z"/>
 <path d="M992 5225 c0 -11 3 -29 8 -40 11 -25 11 1 0 35 -6 20 -8 21 -8 5z"/>
 <path d="M1918 5172 c9 -6 -4 -26 -45 -73 -31 -35 -64 -73 -72 -84 l-15 -20 21 20 c11 11 46 49 77 84 52 59 61 81 33 81 -9 0 -9 -3 1 -8z"/>
 <path d="M3135 4650 c-70 -33 -69 -40 2 -9 26 12 64 25 83 29 34 8 34 8 5 8 -16 1 -57 -12 -90 -28z"/>
 <path d="M1560 4629 c-12 -23 -20 -43 -18 -45 3 -2 14 17 26 41 27 56 20 60 -8 4z"/>
 <path d="M2610 4359 l-35 -30 38 26 c33 24 43 35 34 35 -1 0 -18 -14 -37 -31z"/>
 <path d="M3990 4281 c-284 -62 -657 -279 -1035 -600 -505 -430 -958 -1024 -1095 -1436 -39 -117 -49 -173 -51 -287 -2 -92 -1 -95 34 -150 36 -57 104 -108 150 -113 12 -1 22 -3 22 -5 0 -7 166 -6 171 1 3 6 14 7 25 4 10 -4 24 -3 31 2 7 4 18 8 23 8 6 1 17 4 25 7 8 3 51 18 95 33 89 31 266 114 363 170 45 26 63 33 66 23 9 -26 25 -186 31 -308 8 -149 -6 -345 -37 -532 l-22 -137 20 -28 c40 -54 107 -55 145 -3 39 53 79 358 79 605 0 161 -19 387 -41 485 -10 43 -9 46 18 67 182 143 261 207 329 269 45 41 84 74 87 74 4 0 103 -88 222 -195 119 -107 227 -198 241 -201 34 -9 82 14 99 47 19 36 19 59 -1 87 -13 18 -205 197 -382 355 l-43 38 117 127 c65 70 120 128 124 130 7 3 897 -416 1441 -679 124 -60 237 -109 251 -109 60 0 102 72 78 131 -15 36 50 4 -1245 619 -176 83 -339 161 -362 172 l-42 20 57 76 c32 43 79 107 105 143 l47 66 187 6 c315 11 561 53 838 144 123 40 165 71 165 121 0 16 -9 41 -20 55 -34 43 -65 42 -203 -2 -242 -77 -469 -118 -705 -128 l-154 -6 33 64 c18 35 32 67 31 72 -1 4 3 7 9 7 5 0 7 5 4 10 -3 6 -1 10 6 10 7 0 9 3 6 7 -4 3 -3 11 2 17 5 6 20 40 34 76 61 163 77 347 38 436 -28 63 -54 90 -116 122 -67 34 -176 39 -295 13z"/>
 <path d="M2379 4173 l-34 -38 38 34 c34 33 42 41 34 41 -2 0 -19 -17 -38 -37z"/>
 <path d="M1251 4160 c0 -8 8 -46 18 -85 11 -38 19 -63 20 -55 0 8 -8 47 -18 85 -11 39 -19 63 -20 55z"/>
 <path d="M2285 4088 l-50 -53 53 50 c48 46 57 55 49 55 -1 0 -25 -24 -52 -52z"/>
 <path d="M1292 3990 c0 -8 4 -26 8 -40 6 -20 8 -21 8 -5 0 11 -3 29 -8 40 -5 12 -8 14 -8 5z"/>
 <path d="M1358 3768 c-3 -7 -1 -24 3 -38 6 -22 7 -20 8 13 1 38 -3 47 -11 25z"/>
 <path d="M5500 3723 c0 -16 48 -72 74 -84 13 -6 10 -2 -8 12 -15 12 -37 36 -47 53 -10 17 -19 26 -19 19z"/>
 <path d="M5820 3722 c0 -6 -14 -28 -32 -49 -29 -34 -29 -35 -4 -13 31 28 50 59 42 68 -3 3 -6 0 -6 -6z"/>
 <path d="M1372 3685 c0 -11 4 -31 8 -45 6 -20 8 -21 8 -5 0 11 -4 31 -8 45 -6 20 -8 21 -8 5z"/>
 <path d="M1422 3475 c0 -11 4 -31 8 -45 6 -20 8 -21 8 -5 0 11 -4 31 -8 45 -6 20 -8 21 -8 5z"/>
 <path d="M1462 3305 c0 -11 4 -31 8 -45 6 -20 8 -21 8 -5 0 11 -4 31 -8 45 -6 20 -8 21 -8 5z"/>
 <path d="M1626 2974 c-4 -14 -5 -28 -3 -31 3 -2 8 8 11 23 4 14 5 28 3 31 -3 2 -8 -8 -11 -23z"/>
 <path d="M1580 2840 c-8 -5 -10 -10 -3 -10 6 0 9 -8 7 -17 -2 -10 0 -31 4 -48 7 -25 9 -21 8 28 0 31 -1 57 -1 57 0 0 -7 -5 -15 -10z"/>
 <path d="M5516 2624 c-24 -24 -26 -34 -26 -104 0 -62 4 -82 20 -103 39 -49 116 -42 145 14 9 16 15 56 15 93 0 55 -4 69 -26 95 -35 41 -89 43 -128 5z"/>
 <path d="M5793 2467 c-47 -48 -53 -59 -53 -95 0 -33 6 -45 31 -66 51 -43 95 -30 167 48 44 48 52 79 30 119 -18 34 -40 46 -82 47 -34 0 -46 -7 -93 -53z"/>
 <path d="M1672 2435 c0 -11 3 -29 8 -40 11 -25 11 1 0 35 -6 20 -8 21 -8 5z"/>
 <path d="M5866 2184 c-37 -37 -35 -86 3 -125 27 -26 36 -29 96 -29 81 0 119 18 134 63 13 38 7 62 -22 95 -18 19 -30 22 -102 22 -76 0 -84 -2 -109 -26z"/>
 <path d="M5792 1955 c-37 -16 -52 -42 -52 -88 0 -28 10 -43 59 -90 34 -33 69 -57 81 -57 57 0 109 61 96 114 -7 29 -98 119 -130 127 -13 4 -37 1 -54 -6z"/>
 <path d="M5233 1907 c-45 -46 -53 -60 -53 -91 0 -43 44 -96 80 -96 48 0 142 81 156 134 14 56 -28 106 -89 106 -35 0 -47 -7 -94 -53z"/>
 <path d="M4170 1635 l0 -225 219 0 c190 0 220 2 225 16 3 9 6 110 6 225 l0 209 -225 0 -225 0 0 -225z"/>
 <path d="M5516 1834 c-24 -24 -26 -34 -26 -103 0 -84 14 -115 57 -132 37 -14 90 6 108 41 9 17 15 56 15 95 0 60 -3 69 -29 96 -39 38 -88 40 -125 3z"/>
 <path d="M3484 1491 c-127 -58 -138 -239 -18 -309 85 -49 215 -11 250 74 51 121 -36 255 -166 254 -14 0 -44 -9 -66 -19z"/>
 <path d="M1090 1273 c0 -10 9 -78 21 -151 l22 -133 -109 -110 c-60 -60 -106 -109 -104 -110 3 0 70 -10 150 -22 l145 -22 66 -130 c37 -71 71 -131 76 -132 5 -2 38 55 73 127 35 72 71 132 80 134 8 2 71 12 140 22 69 9 129 21 135 26 6 5 -31 49 -95 113 l-104 104 23 146 c13 80 22 148 19 150 -2 3 -64 -27 -137 -65 l-132 -71 -134 71 c-111 59 -135 68 -135 53z"/>
 <path d="M5165 1045 c-14 -13 -25 -30 -24 -37 0 -7 5 -3 11 8 10 22 47 44 73 44 59 0 90 -56 83 -148 -4 -45 -10 -60 -32 -79 -37 -31 -71 -29 -107 6 -16 16 -29 26 -29 21 0 -14 61 -60 80 -60 68 0 100 47 100 145 0 60 -3 69 -29 96 -38 38 -91 40 -126 4z"/>
 <path d="M5133 935 c0 -27 2 -38 4 -22 2 15 2 37 0 50 -2 12 -4 0 -4 -28z"/>
 <path d="M4924 801 c-29 -12 -54 -50 -54 -79 0 -38 27 -79 61 -91 70 -24 170 -7 191 33 11 21 10 21 -14 -1 -21 -20 -35 -23 -100 -23 -86 0 -114 15 -124 66 -13 66 68 109 169 90 49 -9 69 -28 77 -72 7 -38 8 -38 9 -7 1 20 -8 42 -23 60 -22 25 -31 28 -97 30 -41 2 -84 -1 -95 -6z"/>
 <path d="M5364 801 c-47 -20 -68 -86 -43 -133 34 -63 214 -63 248 0 18 34 13 79 -13 109 -22 25 -31 28 -97 30 -41 2 -84 -1 -95 -6z m152 -11 c55 -21 70 -77 33 -124 -19 -24 -26 -26 -103 -26 -91 0 -108 9 -121 63 -8 32 15 73 48 87 31 12 110 12 143 0z"/>
 <path d="M2695 706 c-37 -16 -92 -77 -101 -112 -11 -42 2 -124 23 -152 66 -90 181 -105 264 -35 40 34 59 79 59 138 0 125 -131 211 -245 161z"/>
 <path d="M5165 605 c-14 -13 -25 -30 -25 -37 0 -7 6 -4 12 7 18 31 40 44 74 45 61 0 93 -62 80 -158 -3 -25 -13 -53 -22 -63 -36 -40 -106 -29 -131 21 -8 16 -13 19 -13 9 0 -9 12 -28 26 -43 35 -34 83 -35 121 -2 25 22 28 31 31 105 4 78 3 81 -26 111 -39 39 -92 41 -127 5z"/>
 <path d="M5133 495 c0 -27 2 -38 4 -22 2 15 2 37 0 50 -2 12 -4 0 -4 -28z"/>
 </g>
<g id="layer105" fill="#ffbf41" stroke="none">
 <path d="M6002 5614 c21 -24 56 -103 75 -164 l13 -45 -6 40 c-7 51 -55 156 -80 175 -18 14 -18 14 -2 -6z"/>
 <path d="M931 5472 c-1 -19 52 -228 56 -217 1 6 -11 60 -26 120 -16 61 -30 104 -30 97z"/>
 <path d="M5395 5451 c-68 -18 -153 -74 -187 -125 -15 -23 -8 -19 27 16 26 26 72 60 103 75 50 24 69 28 147 28 101 0 143 -14 230 -79 l50 -37 -43 40 c-64 59 -123 83 -217 87 -44 2 -93 0 -110 -5z"/>
 <path d="M1340 5392 c8 -5 26 -13 40 -16 17 -5 20 -4 10 2 -8 5 -26 13 -40 16 -17 5 -20 4 -10 -2z"/>
 <path d="M1420 5362 c8 -5 26 -13 40 -16 17 -5 20 -4 10 2 -8 5 -26 13 -40 16 -17 5 -20 4 -10 -2z"/>
 <path d="M5923 5295 c0 -33 2 -45 4 -27 2 18 2 45 0 60 -2 15 -4 0 -4 -33z"/>
 <path d="M5402 5264 c-18 -10 -45 -33 -60 -52 -23 -31 -27 -45 -27 -107 0 -65 3 -74 33 -112 66 -84 203 -148 259 -121 48 23 68 72 68 168 0 103 -24 163 -80 206 -47 36 -141 45 -193 18z"/>
 <path d="M992 5225 c0 -11 3 -29 8 -40 11 -25 11 1 0 35 -6 20 -8 21 -8 5z"/>
 <path d="M6086 5194 c-3 -26 -4 -49 -2 -52 3 -2 8 17 11 43 4 25 5 48 3 51 -3 2 -8 -17 -12 -42z"/>
 <path d="M1918 5172 c9 -6 -4 -26 -45 -73 -31 -35 -64 -73 -72 -84 l-15 -20 21 20 c11 11 46 49 77 84 52 59 61 81 33 81 -9 0 -9 -3 1 -8z"/>
 <path d="M5898 5165 c-3 -11 -9 -29 -13 -40 -3 -11 1 -7 10 8 9 16 15 33 12 40 -2 6 -6 3 -9 -8z"/>
 <path d="M5133 5105 c0 -27 2 -38 4 -22 2 15 2 37 0 50 -2 12 -4 0 -4 -28z"/>
 <path d="M5842 5103 c-2 -40 13 -51 28 -21 10 21 10 22 -4 5 -14 -18 -15 -17 -19 15 l-4 33 -1 -32z"/>
 <path d="M6071 5120 c-2 -29 -68 -155 -109 -206 -22 -29 -66 -71 -97 -95 -31 -24 -84 -82 -118 -129 -34 -47 -103 -126 -153 -175 -77 -77 -132 -118 -290 -223 -10 -7 -1 -4 21 7 124 59 300 216 411 365 42 55 95 115 118 132 71 53 144 142 187 229 23 46 39 89 36 97 -4 10 -6 9 -6 -2z"/>
 <path d="M5217 4875 c17 -22 42 -50 55 -62 40 -37 140 -93 197 -109 l53 -16 -53 -57 -54 -56 57 54 c31 30 55 58 53 62 -3 3 -28 14 -57 24 -82 26 -156 73 -222 139 -42 42 -51 49 -29 21z"/>
 <path d="M3135 4650 c-70 -33 -69 -40 2 -9 26 12 64 25 83 29 34 8 34 8 5 8 -16 1 -57 -12 -90 -28z"/>
 <path d="M1560 4629 c-12 -23 -20 -43 -18 -45 3 -2 14 17 26 41 27 56 20 60 -8 4z"/>
 <path d="M5340 4529 c-72 -55 -209 -126 -315 -164 -38 -14 -56 -23 -40 -19 94 18 304 123 385 194 61 53 49 49 -30 -11z"/>
 <path d="M2610 4359 l-35 -30 38 26 c33 24 43 35 34 35 -1 0 -18 -14 -37 -31z"/>
 <path d="M3990 4281 c-284 -62 -657 -279 -1035 -600 -505 -430 -958 -1024 -1095 -1436 -39 -117 -49 -173 -51 -287 -2 -92 -1 -95 34 -150 36 -57 104 -108 150 -113 12 -1 22 -3 22 -5 0 -7 166 -6 171 1 3 6 14 7 25 4 10 -4 24 -3 31 2 7 4 18 8 23 8 6 1 17 4 25 7 8 3 51 18 95 33 89 31 266 114 363 170 45 26 63 33 66 23 9 -26 25 -186 31 -308 8 -149 -6 -345 -37 -532 l-22 -137 20 -28 c40 -54 107 -55 145 -3 39 53 79 358 79 605 0 161 -19 387 -41 485 -10 43 -9 46 18 67 182 143 261 207 329 269 45 41 84 74 87 74 4 0 103 -88 222 -195 119 -107 227 -198 241 -201 34 -9 82 14 99 47 19 36 19 59 -1 87 -13 18 -205 197 -382 355 l-43 38 117 127 c65 70 120 128 124 130 7 3 897 -416 1441 -679 124 -60 237 -109 251 -109 60 0 102 72 78 131 -15 36 50 4 -1245 619 -176 83 -339 161 -362 172 l-42 20 57 76 c32 43 79 107 105 143 l47 66 187 6 c315 11 561 53 838 144 123 40 165 71 165 121 0 16 -9 41 -20 55 -34 43 -65 42 -203 -2 -242 -77 -469 -118 -705 -128 l-154 -6 33 64 c18 35 32 67 31 72 -1 4 3 7 9 7 5 0 7 5 4 10 -3 6 -1 10 6 10 7 0 9 3 6 7 -4 3 -3 11 2 17 5 6 20 40 34 76 61 163 77 347 38 436 -28 63 -54 90 -116 122 -67 34 -176 39 -295 13z"/>
 <path d="M2379 4173 l-34 -38 38 34 c34 33 42 41 34 41 -2 0 -19 -17 -38 -37z"/>
 <path d="M4790 4200 c0 -17 62 -60 87 -60 31 0 183 38 203 52 12 7 11 8 -5 3 -46 -15 -182 -45 -203 -45 -13 0 -37 13 -53 29 -16 16 -29 26 -29 21z"/>
 <path d="M1251 4160 c0 -8 8 -46 18 -85 11 -38 19 -63 20 -55 0 8 -8 47 -18 85 -11 39 -19 63 -20 55z"/>
 <path d="M2285 4088 l-50 -53 53 50 c48 46 57 55 49 55 -1 0 -25 -24 -52 -52z"/>
 <path d="M1292 3990 c0 -8 4 -26 8 -40 6 -20 8 -21 8 -5 0 11 -3 29 -8 40 -5 12 -8 14 -8 5z"/>
 <path d="M1358 3768 c-3 -7 -1 -24 3 -38 6 -22 7 -20 8 13 1 38 -3 47 -11 25z"/>
 <path d="M5500 3723 c0 -16 48 -72 74 -84 13 -6 10 -2 -8 12 -15 12 -37 36 -47 53 -10 17 -19 26 -19 19z"/>
 <path d="M5820 3722 c0 -6 -14 -28 -32 -49 -29 -34 -29 -35 -4 -13 31 28 50 59 42 68 -3 3 -6 0 -6 -6z"/>
 <path d="M1372 3685 c0 -11 4 -31 8 -45 6 -20 8 -21 8 -5 0 11 -4 31 -8 45 -6 20 -8 21 -8 5z"/>
 <path d="M1422 3475 c0 -11 4 -31 8 -45 6 -20 8 -21 8 -5 0 11 -4 31 -8 45 -6 20 -8 21 -8 5z"/>
 <path d="M1462 3305 c0 -11 4 -31 8 -45 6 -20 8 -21 8 -5 0 11 -4 31 -8 45 -6 20 -8 21 -8 5z"/>
 <path d="M1626 2974 c-4 -14 -5 -28 -3 -31 3 -2 8 8 11 23 4 14 5 28 3 31 -3 2 -8 -8 -11 -23z"/>
 <path d="M1580 2840 c-8 -5 -10 -10 -3 -10 6 0 9 -8 7 -17 -2 -10 0 -31 4 -48 7 -25 9 -21 8 28 0 31 -1 57 -1 57 0 0 -7 -5 -15 -10z"/>
 <path d="M5516 2624 c-24 -24 -26 -34 -26 -104 0 -62 4 -82 20 -103 39 -49 116 -42 145 14 9 16 15 56 15 93 0 55 -4 69 -26 95 -35 41 -89 43 -128 5z"/>
 <path d="M5793 2467 c-47 -48 -53 -59 -53 -95 0 -33 6 -45 31 -66 51 -43 95 -30 167 48 44 48 52 79 30 119 -18 34 -40 46 -82 47 -34 0 -46 -7 -93 -53z"/>
 <path d="M1672 2435 c0 -11 3 -29 8 -40 11 -25 11 1 0 35 -6 20 -8 21 -8 5z"/>
 <path d="M5866 2184 c-37 -37 -35 -86 3 -125 27 -26 36 -29 96 -29 81 0 119 18 134 63 13 38 7 62 -22 95 -18 19 -30 22 -102 22 -76 0 -84 -2 -109 -26z"/>
 <path d="M5792 1955 c-37 -16 -52 -42 -52 -88 0 -28 10 -43 59 -90 34 -33 69 -57 81 -57 57 0 109 61 96 114 -7 29 -98 119 -130 127 -13 4 -37 1 -54 -6z"/>
 <path d="M5233 1907 c-45 -46 -53 -60 -53 -91 0 -43 44 -96 80 -96 48 0 142 81 156 134 14 56 -28 106 -89 106 -35 0 -47 -7 -94 -53z"/>
 <path d="M4170 1635 l0 -225 219 0 c190 0 220 2 225 16 3 9 6 110 6 225 l0 209 -225 0 -225 0 0 -225z"/>
 <path d="M5516 1834 c-24 -24 -26 -34 -26 -103 0 -84 14 -115 57 -132 37 -14 90 6 108 41 9 17 15 56 15 95 0 60 -3 69 -29 96 -39 38 -88 40 -125 3z"/>
 <path d="M3484 1491 c-127 -58 -138 -239 -18 -309 85 -49 215 -11 250 74 51 121 -36 255 -166 254 -14 0 -44 -9 -66 -19z"/>
 <path d="M1090 1273 c0 -10 9 -78 21 -151 l22 -133 -109 -110 c-60 -60 -106 -109 -104 -110 3 0 70 -10 150 -22 l145 -22 66 -130 c37 -71 71 -131 76 -132 5 -2 38 55 73 127 35 72 71 132 80 134 8 2 71 12 140 22 69 9 129 21 135 26 6 5 -31 49 -95 113 l-104 104 23 146 c13 80 22 148 19 150 -2 3 -64 -27 -137 -65 l-132 -71 -134 71 c-111 59 -135 68 -135 53z"/>
 <path d="M5173 1053 c-10 -10 -14 -15 -8 -11 6 4 22 12 36 17 15 6 18 10 8 10 -9 1 -25 -7 -36 -16z"/>
 <path d="M5290 1037 c9 -11 17 -51 21 -96 l6 -76 1 72 c2 62 -1 75 -20 95 -13 13 -16 15 -8 5z"/>
 <path d="M5133 935 c0 -27 2 -38 4 -22 2 15 2 37 0 50 -2 12 -4 0 -4 -28z"/>
 <path d="M5283 834 c-13 -14 -18 -24 -11 -22 10 4 45 48 37 48 -2 0 -14 -12 -26 -26z"/>
 <path d="M4967 803 c18 -2 50 -2 70 0 21 2 7 4 -32 4 -38 0 -55 -2 -38 -4z"/>
 <path d="M5407 803 c18 -2 50 -2 70 0 21 2 7 4 -32 4 -38 0 -55 -2 -38 -4z"/>
 <path d="M4891 774 c-12 -15 -21 -40 -20 -58 1 -29 2 -28 9 8 4 22 18 48 30 58 12 10 18 18 12 18 -6 0 -20 -12 -31 -26z"/>
 <path d="M5331 774 c-29 -37 -27 -89 4 -119 13 -14 30 -25 37 -25 7 0 4 6 -7 12 -51 29 -61 93 -20 133 13 14 20 25 15 25 -5 0 -18 -12 -29 -26z"/>
 <path d="M5570 717 c0 -18 -7 -44 -16 -57 l-16 -25 21 24 c18 20 31 91 16 91 -3 0 -5 -15 -5 -33z"/>
 <path d="M2695 706 c-37 -16 -92 -77 -101 -112 -11 -42 2 -124 23 -152 66 -90 181 -105 264 -35 40 34 59 79 59 138 0 125 -131 211 -245 161z"/>
 <path d="M4978 623 c18 -2 45 -2 60 0 15 2 0 4 -33 4 -33 0 -45 -2 -27 -4z"/>
 <path d="M5173 613 c-10 -10 -13 -14 -5 -9 8 6 32 13 55 17 l42 6 -36 2 c-23 1 -44 -6 -56 -16z"/>
 <path d="M5418 623 c18 -2 45 -2 60 0 15 2 0 4 -33 4 -33 0 -45 -2 -27 -4z"/>
 <path d="M5290 597 c9 -11 17 -51 21 -96 l6 -76 1 72 c2 62 -1 75 -20 95 -13 13 -16 15 -8 5z"/>
 <path d="M5133 495 c0 -27 2 -38 4 -22 2 15 2 37 0 50 -2 12 -4 0 -4 -28z"/>
 <path d="M5283 394 c-22 -25 -86 -34 -98 -14 -3 6 -11 10 -18 10 -6 0 -2 -7 9 -15 30 -22 79 -18 111 9 15 13 26 27 23 29 -3 3 -15 -5 -27 -19z"/>
 </g>
<g id="layer106" fill="#7acbcf" stroke="none">
 <path d="M6002 5614 c21 -24 56 -103 75 -164 l13 -45 -6 40 c-7 51 -55 156 -80 175 -18 14 -18 14 -2 -6z"/>
 <path d="M931 5472 c-1 -19 52 -228 56 -217 1 6 -11 60 -26 120 -16 61 -30 104 -30 97z"/>
 <path d="M5395 5451 c-68 -18 -153 -74 -187 -125 -15 -23 -8 -19 27 16 26 26 72 60 103 75 50 24 69 28 147 28 101 0 143 -14 230 -79 l50 -37 -43 40 c-64 59 -123 83 -217 87 -44 2 -93 0 -110 -5z"/>
 <path d="M1340 5392 c8 -5 26 -13 40 -16 17 -5 20 -4 10 2 -8 5 -26 13 -40 16 -17 5 -20 4 -10 -2z"/>
 <path d="M1420 5362 c8 -5 26 -13 40 -16 17 -5 20 -4 10 2 -8 5 -26 13 -40 16 -17 5 -20 4 -10 -2z"/>
 <path d="M5923 5295 c0 -33 2 -45 4 -27 2 18 2 45 0 60 -2 15 -4 0 -4 -33z"/>
 <path d="M5402 5264 c-18 -10 -45 -33 -60 -52 -23 -31 -27 -45 -27 -107 0 -65 3 -74 33 -112 66 -84 203 -148 259 -121 48 23 68 72 68 168 0 103 -24 163 -80 206 -47 36 -141 45 -193 18z"/>
 <path d="M992 5225 c0 -11 3 -29 8 -40 11 -25 11 1 0 35 -6 20 -8 21 -8 5z"/>
 <path d="M6086 5194 c-3 -26 -4 -49 -2 -52 3 -2 8 17 11 43 4 25 5 48 3 51 -3 2 -8 -17 -12 -42z"/>
 <path d="M1918 5172 c9 -6 -4 -26 -45 -73 -31 -35 -64 -73 -72 -84 l-15 -20 21 20 c11 11 46 49 77 84 52 59 61 81 33 81 -9 0 -9 -3 1 -8z"/>
 <path d="M5898 5165 c-3 -11 -9 -29 -13 -40 -3 -11 1 -7 10 8 9 16 15 33 12 40 -2 6 -6 3 -9 -8z"/>
 <path d="M5133 5105 c0 -27 2 -38 4 -22 2 15 2 37 0 50 -2 12 -4 0 -4 -28z"/>
 <path d="M5842 5103 c-2 -40 13 -51 28 -21 10 21 10 22 -4 5 -14 -18 -15 -17 -19 15 l-4 33 -1 -32z"/>
 <path d="M6071 5120 c-2 -29 -68 -155 -109 -206 -22 -29 -66 -71 -97 -95 -31 -24 -84 -82 -118 -129 -34 -47 -103 -126 -153 -175 -77 -77 -132 -118 -290 -223 -10 -7 -1 -4 21 7 124 59 300 216 411 365 42 55 95 115 118 132 71 53 144 142 187 229 23 46 39 89 36 97 -4 10 -6 9 -6 -2z"/>
 <path d="M5217 4875 c17 -22 42 -50 55 -62 40 -37 140 -93 197 -109 l53 -16 -53 -57 -54 -56 57 54 c31 30 55 58 53 62 -3 3 -28 14 -57 24 -82 26 -156 73 -222 139 -42 42 -51 49 -29 21z"/>
 <path d="M3135 4650 c-70 -33 -69 -40 2 -9 26 12 64 25 83 29 34 8 34 8 5 8 -16 1 -57 -12 -90 -28z"/>
 <path d="M1560 4629 c-12 -23 -20 -43 -18 -45 3 -2 14 17 26 41 27 56 20 60 -8 4z"/>
 <path d="M5340 4529 c-72 -55 -209 -126 -315 -164 -38 -14 -56 -23 -40 -19 94 18 304 123 385 194 61 53 49 49 -30 -11z"/>
 <path d="M2610 4359 l-35 -30 38 26 c33 24 43 35 34 35 -1 0 -18 -14 -37 -31z"/>
 <path d="M3990 4281 c-284 -62 -657 -279 -1035 -600 -505 -430 -958 -1024 -1095 -1436 -39 -117 -49 -173 -51 -287 -2 -92 -1 -95 34 -150 36 -57 104 -108 150 -113 12 -1 22 -3 22 -5 0 -7 166 -6 171 1 3 6 14 7 25 4 10 -4 24 -3 31 2 7 4 18 8 23 8 6 1 17 4 25 7 8 3 51 18 95 33 89 31 266 114 363 170 45 26 63 33 67 23 27 -83 38 -523 17 -688 -6 -47 -14 -103 -17 -125 -4 -35 -4 -37 4 -11 25 74 44 322 38 491 -13 358 -72 600 -256 1048 -34 82 -61 162 -61 178 0 37 39 79 74 79 55 0 90 -62 213 -379 192 -496 240 -994 144 -1495 -20 -109 -39 -136 -91 -136 -42 0 -72 30 -80 81 l-7 44 -2 -38 c-2 -73 79 -122 137 -81 31 21 40 42 57 131 29 148 45 328 45 498 0 161 -19 387 -41 485 -10 43 -9 46 18 67 182 143 261 207 329 269 45 41 84 74 87 74 4 0 103 -88 222 -195 119 -107 227 -198 241 -201 34 -9 82 14 99 47 19 36 19 59 -1 87 -13 18 -205 197 -382 355 l-43 38 117 127 c65 70 120 128 124 130 4 1 150 -65 325 -148 175 -82 320 -148 322 -147 4 4 -317 160 -607 295 -124 57 -233 111 -244 120 -57 51 -27 141 46 142 15 0 89 -29 164 -65 76 -36 139 -63 142 -60 3 2 -2 7 -11 11 -13 5 -6 20 41 82 32 43 80 107 106 145 l48 67 136 2 c120 1 109 2 -88 9 -138 5 -274 15 -350 27 -238 38 -375 64 -400 75 -52 25 -51 107 2 137 25 14 43 12 220 -17 318 -54 352 -57 598 -56 187 0 263 4 372 21 133 20 337 67 348 79 3 3 -8 3 -25 -1 -211 -52 -368 -75 -553 -83 l-154 -6 33 64 c18 35 32 67 31 72 -1 4 3 7 9 7 5 0 7 5 4 10 -3 6 -1 10 6 10 7 0 9 3 6 7 -4 3 -3 11 2 17 5 6 20 40 34 76 61 163 77 347 38 436 -28 63 -54 90 -116 122 -67 34 -176 39 -295 13z m-804 -1398 c65 -60 163 -148 219 -198 253 -225 503 -451 538 -486 29 -30 37 -46 37 -74 0 -74 -78 -100 -142 -47 -78 65 -845 756 -865 780 -48 56 -14 132 58 132 34 0 49 -11 155 -107z"/>
 <path d="M2379 4173 l-34 -38 38 34 c34 33 42 41 34 41 -2 0 -19 -17 -38 -37z"/>
 <path d="M4790 4200 c0 -17 62 -60 87 -60 31 0 183 38 203 52 12 7 11 8 -5 3 -46 -15 -182 -45 -203 -45 -13 0 -37 13 -53 29 -16 16 -29 26 -29 21z"/>
 <path d="M1251 4160 c0 -8 8 -46 18 -85 11 -38 19 -63 20 -55 0 8 -8 47 -18 85 -11 39 -19 63 -20 55z"/>
 <path d="M2285 4088 l-50 -53 53 50 c48 46 57 55 49 55 -1 0 -25 -24 -52 -52z"/>
 <path d="M1292 3990 c0 -8 4 -26 8 -40 6 -20 8 -21 8 -5 0 11 -3 29 -8 40 -5 12 -8 14 -8 5z"/>
 <path d="M1358 3768 c-3 -7 -1 -24 3 -38 6 -22 7 -20 8 13 1 38 -3 47 -11 25z"/>
 <path d="M5500 3723 c0 -16 48 -72 74 -84 13 -6 10 -2 -8 12 -15 12 -37 36 -47 53 -10 17 -19 26 -19 19z"/>
 <path d="M5820 3722 c0 -6 -14 -28 -32 -49 -29 -34 -29 -35 -4 -13 31 28 50 59 42 68 -3 3 -6 0 -6 -6z"/>
 <path d="M1372 3685 c0 -11 4 -31 8 -45 6 -20 8 -21 8 -5 0 11 -4 31 -8 45 -6 20 -8 21 -8 5z"/>
 <path d="M5273 3598 c47 -37 38 -116 -16 -141 -87 -41 -379 -119 -582 -156 -27 -5 -39 -9 -25 -10 62 -3 335 60 505 116 123 40 165 71 165 121 0 30 -33 82 -53 82 -6 0 -3 -6 6 -12z"/>
 <path d="M4995 3550 c-13 -5 -14 -9 -5 -9 8 0 24 4 35 9 13 5 14 9 5 9 -8 0 -24 -4 -35 -9z"/>
 <path d="M1422 3475 c0 -11 4 -31 8 -45 6 -20 8 -21 8 -5 0 11 -4 31 -8 45 -6 20 -8 21 -8 5z"/>
 <path d="M1462 3305 c0 -11 4 -31 8 -45 6 -20 8 -21 8 -5 0 11 -4 31 -8 45 -6 20 -8 21 -8 5z"/>
 <path d="M4568 3283 c12 -2 30 -2 40 0 9 3 -1 5 -23 4 -22 0 -30 -2 -17 -4z"/>
 <path d="M4473 3273 c15 -2 37 -2 50 0 12 2 0 4 -28 4 -27 0 -38 -2 -22 -4z"/>
 <path d="M1626 2974 c-4 -14 -5 -28 -3 -31 3 -2 8 8 11 23 4 14 5 28 3 31 -3 2 -8 -8 -11 -23z"/>
 <path d="M4020 2915 c36 -19 70 -34 75 -34 6 0 -19 15 -55 34 -36 19 -69 34 -75 34 -5 0 19 -15 55 -34z"/>
 <path d="M4156 2851 c10 -11 563 -271 573 -271 14 2 -561 280 -577 280 -3 0 -2 -4 4 -9z"/>
 <path d="M1580 2840 c-8 -5 -10 -10 -3 -10 6 0 9 -8 7 -17 -2 -10 0 -31 4 -48 7 -25 9 -21 8 28 0 31 -1 57 -1 57 0 0 -7 -5 -15 -10z"/>
 <path d="M5516 2624 c-24 -24 -26 -34 -26 -104 0 -62 4 -82 20 -103 39 -49 116 -42 145 14 9 16 15 56 15 93 0 55 -4 69 -26 95 -35 41 -89 43 -128 5z"/>
 <path d="M4865 2513 c94 -49 526 -253 534 -253 11 1 -107 60 -353 177 -238 113 -314 145 -181 76z"/>
 <path d="M5793 2467 c-47 -48 -53 -59 -53 -95 0 -33 6 -45 31 -66 51 -43 95 -30 167 48 44 48 52 79 30 119 -18 34 -40 46 -82 47 -34 0 -46 -7 -93 -53z"/>
 <path d="M4555 2468 c84 -44 516 -248 524 -248 10 1 -126 69 -353 177 -215 101 -289 132 -171 71z"/>
 <path d="M1672 2435 c0 -11 3 -29 8 -40 11 -25 11 1 0 35 -6 20 -8 21 -8 5z"/>
 <path d="M5482 2220 c58 -30 88 -61 88 -92 0 -33 -23 -67 -51 -77 -36 -12 -58 -5 -233 78 -71 34 -130 60 -132 58 -8 -8 314 -157 338 -157 35 0 75 34 83 71 11 50 -10 84 -75 118 -32 17 -62 31 -66 31 -5 -1 17 -14 48 -30z"/>
 <path d="M5866 2184 c-37 -37 -35 -86 3 -125 27 -26 36 -29 96 -29 81 0 119 18 134 63 13 38 7 62 -22 95 -18 19 -30 22 -102 22 -76 0 -84 -2 -109 -26z"/>
 <path d="M5792 1955 c-37 -16 -52 -42 -52 -88 0 -28 10 -43 59 -90 34 -33 69 -57 81 -57 57 0 109 61 96 114 -7 29 -98 119 -130 127 -13 4 -37 1 -54 -6z"/>
 <path d="M5233 1907 c-45 -46 -53 -60 -53 -91 0 -43 44 -96 80 -96 48 0 142 81 156 134 14 56 -28 106 -89 106 -35 0 -47 -7 -94 -53z"/>
 <path d="M4170 1635 l0 -225 219 0 c190 0 220 2 225 16 3 9 6 110 6 225 l0 209 -225 0 -225 0 0 -225z"/>
 <path d="M5516 1834 c-24 -24 -26 -34 -26 -103 0 -84 14 -115 57 -132 37 -14 90 6 108 41 9 17 15 56 15 95 0 60 -3 69 -29 96 -39 38 -88 40 -125 3z"/>
 <path d="M3484 1491 c-127 -58 -138 -239 -18 -309 85 -49 215 -11 250 74 51 121 -36 255 -166 254 -14 0 -44 -9 -66 -19z"/>
 <path d="M1090 1273 c0 -10 9 -78 21 -151 l22 -133 -109 -110 c-60 -60 -106 -109 -104 -110 3 0 70 -10 150 -22 l145 -22 66 -130 c37 -71 71 -131 76 -132 5 -2 38 55 73 127 35 72 71 132 80 134 8 2 71 12 140 22 69 9 129 21 135 26 6 5 -31 49 -95 113 l-104 104 23 146 c13 80 22 148 19 150 -2 3 -64 -27 -137 -65 l-132 -71 -134 71 c-111 59 -135 68 -135 53z"/>
 <path d="M5173 1053 c-10 -10 -14 -15 -8 -11 6 4 22 12 36 17 15 6 18 10 8 10 -9 1 -25 -7 -36 -16z"/>
 <path d="M5290 1037 c9 -11 17 -51 21 -96 l6 -76 1 72 c2 62 -1 75 -20 95 -13 13 -16 15 -8 5z"/>
 <path d="M5133 935 c0 -27 2 -38 4 -22 2 15 2 37 0 50 -2 12 -4 0 -4 -28z"/>
 <path d="M5283 834 c-13 -14 -18 -24 -11 -22 10 4 45 48 37 48 -2 0 -14 -12 -26 -26z"/>
 <path d="M4967 803 c18 -2 50 -2 70 0 21 2 7 4 -32 4 -38 0 -55 -2 -38 -4z"/>
 <path d="M5407 803 c18 -2 50 -2 70 0 21 2 7 4 -32 4 -38 0 -55 -2 -38 -4z"/>
 <path d="M4891 774 c-12 -15 -21 -40 -20 -58 1 -29 2 -28 9 8 4 22 18 48 30 58 12 10 18 18 12 18 -6 0 -20 -12 -31 -26z"/>
 <path d="M5331 774 c-29 -37 -27 -89 4 -119 13 -14 30 -25 37 -25 7 0 4 6 -7 12 -51 29 -61 93 -20 133 13 14 20 25 15 25 -5 0 -18 -12 -29 -26z"/>
 <path d="M5570 717 c0 -18 -7 -44 -16 -57 l-16 -25 21 24 c18 20 31 91 16 91 -3 0 -5 -15 -5 -33z"/>
 <path d="M2695 706 c-37 -16 -92 -77 -101 -112 -11 -42 2 -124 23 -152 66 -90 181 -105 264 -35 40 34 59 79 59 138 0 125 -131 211 -245 161z"/>
 <path d="M4978 623 c18 -2 45 -2 60 0 15 2 0 4 -33 4 -33 0 -45 -2 -27 -4z"/>
 <path d="M5173 613 c-10 -10 -13 -14 -5 -9 8 6 32 13 55 17 l42 6 -36 2 c-23 1 -44 -6 -56 -16z"/>
 <path d="M5418 623 c18 -2 45 -2 60 0 15 2 0 4 -33 4 -33 0 -45 -2 -27 -4z"/>
 <path d="M5290 597 c9 -11 17 -51 21 -96 l6 -76 1 72 c2 62 -1 75 -20 95 -13 13 -16 15 -8 5z"/>
 <path d="M5133 495 c0 -27 2 -38 4 -22 2 15 2 37 0 50 -2 12 -4 0 -4 -28z"/>
 <path d="M5283 394 c-22 -25 -86 -34 -98 -14 -3 6 -11 10 -18 10 -6 0 -2 -7 9 -15 30 -22 79 -18 111 9 15 13 26 27 23 29 -3 3 -15 -5 -27 -19z"/>
 </g>
<g id="layer107" fill="#f2d84d" stroke="none">
 <path d="M931 5472 c-1 -19 52 -228 56 -217 1 6 -11 60 -26 120 -16 61 -30 104 -30 97z"/>
 <path d="M1340 5392 c8 -5 26 -13 40 -16 17 -5 20 -4 10 2 -8 5 -26 13 -40 16 -17 5 -20 4 -10 -2z"/>
 <path d="M5700 5387 c0 -2 15 -16 33 -33 l32 -29 -29 33 c-28 30 -36 37 -36 29z"/>
 <path d="M1420 5362 c8 -5 26 -13 40 -16 17 -5 20 -4 10 2 -8 5 -26 13 -40 16 -17 5 -20 4 -10 -2z"/>
 <path d="M5415 5266 c-55 -25 -105 -101 -105 -161 0 -97 125 -215 245 -232 52 -7 78 10 101 64 18 42 18 147 -1 209 -31 106 -144 163 -240 120z"/>
 <path d="M992 5225 c0 -11 3 -29 8 -40 11 -25 11 1 0 35 -6 20 -8 21 -8 5z"/>
 <path d="M1918 5172 c9 -6 -4 -26 -45 -73 -31 -35 -64 -73 -72 -84 l-15 -20 21 20 c11 11 46 49 77 84 52 59 61 81 33 81 -9 0 -9 -3 1 -8z"/>
 <path d="M5255 4830 c21 -22 41 -40 44 -40 3 0 -13 18 -34 40 -21 22 -41 40 -44 40 -3 0 13 -18 34 -40z"/>
 <path d="M3135 4650 c-70 -33 -69 -40 2 -9 26 12 64 25 83 29 34 8 34 8 5 8 -16 1 -57 -12 -90 -28z"/>
 <path d="M1560 4629 c-12 -23 -20 -43 -18 -45 3 -2 14 17 26 41 27 56 20 60 -8 4z"/>
 <path d="M5644 4558 l-29 -33 33 29 c30 28 37 36 29 36 -2 0 -16 -15 -33 -32z"/>
 <path d="M2610 4359 l-35 -30 38 26 c33 24 43 35 34 35 -1 0 -18 -14 -37 -31z"/>
 <path d="M3990 4281 c-284 -62 -657 -279 -1035 -600 -505 -430 -958 -1024 -1095 -1436 -39 -117 -49 -173 -51 -287 -2 -92 -1 -95 34 -150 36 -57 104 -108 150 -113 12 -1 22 -3 22 -5 0 -7 166 -6 171 1 3 6 14 7 25 4 10 -4 24 -3 31 2 7 4 18 8 23 8 6 1 17 4 25 7 8 3 51 18 95 33 89 31 266 114 363 170 45 26 63 33 67 23 27 -83 38 -523 17 -688 -6 -47 -14 -103 -17 -125 -4 -35 -4 -37 4 -11 25 74 44 322 38 491 -13 358 -72 600 -256 1048 -34 82 -61 162 -61 178 0 37 39 79 74 79 55 0 90 -62 213 -379 192 -496 240 -994 144 -1495 -20 -109 -39 -136 -91 -136 -42 0 -72 30 -80 81 l-7 44 -2 -38 c-2 -73 79 -122 137 -81 31 21 40 42 57 131 29 148 45 328 45 498 0 161 -19 387 -41 485 -10 43 -9 46 18 67 182 143 261 207 329 269 45 41 84 74 87 74 4 0 103 -88 222 -195 119 -107 227 -198 241 -201 34 -9 82 14 99 47 19 36 19 59 -1 87 -13 18 -205 197 -382 355 l-43 38 117 127 c65 70 120 128 124 130 4 1 150 -65 325 -148 175 -82 320 -148 322 -147 4 4 -317 160 -607 295 -124 57 -233 111 -244 120 -57 51 -27 141 46 142 15 0 89 -29 164 -65 76 -36 139 -63 142 -60 3 2 -2 7 -11 11 -13 5 -6 20 41 82 32 43 80 107 106 145 l48 67 136 2 c120 1 109 2 -88 9 -138 5 -274 15 -350 27 -238 38 -375 64 -400 75 -52 25 -51 107 2 137 25 14 43 12 220 -17 318 -54 352 -57 598 -56 187 0 263 4 372 21 133 20 337 67 348 79 3 3 -8 3 -25 -1 -211 -52 -368 -75 -553 -83 l-154 -6 33 64 c18 35 32 67 31 72 -1 4 3 7 9 7 5 0 7 5 4 10 -3 6 -1 10 6 10 7 0 9 3 6 7 -4 3 -3 11 2 17 5 6 20 40 34 76 61 163 77 347 38 436 -28 63 -54 90 -116 122 -67 34 -176 39 -295 13z m-804 -1398 c65 -60 163 -148 219 -198 253 -225 503 -451 538 -486 29 -30 37 -46 37 -74 0 -74 -78 -100 -142 -47 -78 65 -845 756 -865 780 -48 56 -14 132 58 132 34 0 49 -11 155 -107z"/>
 <path d="M2379 4173 l-34 -38 38 34 c34 33 42 41 34 41 -2 0 -19 -17 -38 -37z"/>
 <path d="M1251 4160 c0 -8 8 -46 18 -85 11 -38 19 -63 20 -55 0 8 -8 47 -18 85 -11 39 -19 63 -20 55z"/>
 <path d="M4868 4143 c12 -2 30 -2 40 0 9 3 -1 5 -23 4 -22 0 -30 -2 -17 -4z"/>
 <path d="M2285 4088 l-50 -53 53 50 c48 46 57 55 49 55 -1 0 -25 -24 -52 -52z"/>
 <path d="M1292 3990 c0 -8 4 -26 8 -40 6 -20 8 -21 8 -5 0 11 -3 29 -8 40 -5 12 -8 14 -8 5z"/>
 <path d="M1358 3768 c-3 -7 -1 -24 3 -38 6 -22 7 -20 8 13 1 38 -3 47 -11 25z"/>
 <path d="M5500 3723 c0 -16 48 -72 74 -84 13 -6 10 -2 -8 12 -15 12 -37 36 -47 53 -10 17 -19 26 -19 19z"/>
 <path d="M5820 3722 c0 -6 -14 -28 -32 -49 -29 -34 -29 -35 -4 -13 31 28 50 59 42 68 -3 3 -6 0 -6 -6z"/>
 <path d="M1372 3685 c0 -11 4 -31 8 -45 6 -20 8 -21 8 -5 0 11 -4 31 -8 45 -6 20 -8 21 -8 5z"/>
 <path d="M5273 3598 c47 -37 38 -116 -16 -141 -87 -41 -379 -119 -582 -156 -27 -5 -39 -9 -25 -10 62 -3 335 60 505 116 123 40 165 71 165 121 0 30 -33 82 -53 82 -6 0 -3 -6 6 -12z"/>
 <path d="M4995 3550 c-13 -5 -14 -9 -5 -9 8 0 24 4 35 9 13 5 14 9 5 9 -8 0 -24 -4 -35 -9z"/>
 <path d="M1422 3475 c0 -11 4 -31 8 -45 6 -20 8 -21 8 -5 0 11 -4 31 -8 45 -6 20 -8 21 -8 5z"/>
 <path d="M1462 3305 c0 -11 4 -31 8 -45 6 -20 8 -21 8 -5 0 11 -4 31 -8 45 -6 20 -8 21 -8 5z"/>
 <path d="M4568 3283 c12 -2 30 -2 40 0 9 3 -1 5 -23 4 -22 0 -30 -2 -17 -4z"/>
 <path d="M4473 3273 c15 -2 37 -2 50 0 12 2 0 4 -28 4 -27 0 -38 -2 -22 -4z"/>
 <path d="M1626 2974 c-4 -14 -5 -28 -3 -31 3 -2 8 8 11 23 4 14 5 28 3 31 -3 2 -8 -8 -11 -23z"/>
 <path d="M4020 2915 c36 -19 70 -34 75 -34 6 0 -19 15 -55 34 -36 19 -69 34 -75 34 -5 0 19 -15 55 -34z"/>
 <path d="M4156 2851 c10 -11 563 -271 573 -271 14 2 -561 280 -577 280 -3 0 -2 -4 4 -9z"/>
 <path d="M1580 2840 c-8 -5 -10 -10 -3 -10 6 0 9 -8 7 -17 -2 -10 0 -31 4 -48 7 -25 9 -21 8 28 0 31 -1 57 -1 57 0 0 -7 -5 -15 -10z"/>
 <path d="M5516 2624 c-24 -24 -26 -34 -26 -104 0 -62 4 -82 20 -103 39 -49 116 -42 145 14 9 16 15 56 15 93 0 55 -4 69 -26 95 -35 41 -89 43 -128 5z"/>
 <path d="M4865 2513 c94 -49 526 -253 534 -253 11 1 -107 60 -353 177 -238 113 -314 145 -181 76z"/>
 <path d="M5793 2467 c-47 -48 -53 -59 -53 -95 0 -33 6 -45 31 -66 51 -43 95 -30 167 48 44 48 52 79 30 119 -18 34 -40 46 -82 47 -34 0 -46 -7 -93 -53z"/>
 <path d="M4555 2468 c84 -44 516 -248 524 -248 10 1 -126 69 -353 177 -215 101 -289 132 -171 71z"/>
 <path d="M1672 2435 c0 -11 3 -29 8 -40 11 -25 11 1 0 35 -6 20 -8 21 -8 5z"/>
 <path d="M5482 2220 c58 -30 88 -61 88 -92 0 -33 -23 -67 -51 -77 -36 -12 -58 -5 -233 78 -71 34 -130 60 -132 58 -8 -8 314 -157 338 -157 35 0 75 34 83 71 11 50 -10 84 -75 118 -32 17 -62 31 -66 31 -5 -1 17 -14 48 -30z"/>
 <path d="M5866 2184 c-37 -37 -35 -86 3 -125 27 -26 36 -29 96 -29 81 0 119 18 134 63 13 38 7 62 -22 95 -18 19 -30 22 -102 22 -76 0 -84 -2 -109 -26z"/>
 <path d="M5792 1955 c-37 -16 -52 -42 -52 -88 0 -28 10 -43 59 -90 34 -33 69 -57 81 -57 57 0 109 61 96 114 -7 29 -98 119 -130 127 -13 4 -37 1 -54 -6z"/>
 <path d="M5233 1907 c-45 -46 -53 -60 -53 -91 0 -43 44 -96 80 -96 48 0 142 81 156 134 14 56 -28 106 -89 106 -35 0 -47 -7 -94 -53z"/>
 <path d="M4170 1635 l0 -225 219 0 c190 0 220 2 225 16 3 9 6 110 6 225 l0 209 -225 0 -225 0 0 -225z"/>
 <path d="M5516 1834 c-24 -24 -26 -34 -26 -103 0 -84 14 -115 57 -132 37 -14 90 6 108 41 9 17 15 56 15 95 0 60 -3 69 -29 96 -39 38 -88 40 -125 3z"/>
 <path d="M3484 1491 c-127 -58 -138 -239 -18 -309 85 -49 215 -11 250 74 51 121 -36 255 -166 254 -14 0 -44 -9 -66 -19z"/>
 <path d="M1090 1273 c0 -10 9 -78 21 -151 l22 -133 -109 -110 c-60 -60 -106 -109 -104 -110 3 0 70 -10 150 -22 l145 -22 66 -130 c37 -71 71 -131 76 -132 5 -2 38 55 73 127 35 72 71 132 80 134 8 2 71 12 140 22 69 9 129 21 135 26 6 5 -31 49 -95 113 l-104 104 23 146 c13 80 22 148 19 150 -2 3 -64 -27 -137 -65 l-132 -71 -134 71 c-111 59 -135 68 -135 53z"/>
 <path d="M5133 935 c0 -27 2 -38 4 -22 2 15 2 37 0 50 -2 12 -4 0 -4 -28z"/>
 <path d="M2700 709 c-51 -20 -111 -95 -110 -136 1 -10 7 -1 15 20 55 156 265 156 320 0 8 -21 14 -30 15 -20 1 43 -60 116 -113 136 -35 13 -93 13 -127 0z"/>
 <path d="M4978 623 c18 -2 45 -2 60 0 15 2 0 4 -33 4 -33 0 -45 -2 -27 -4z"/>
 <path d="M5418 623 c18 -2 45 -2 60 0 15 2 0 4 -33 4 -33 0 -45 -2 -27 -4z"/>
 <path d="M5133 495 c0 -27 2 -38 4 -22 2 15 2 37 0 50 -2 12 -4 0 -4 -28z"/>
 <path d="M2600 472 c0 -7 15 -27 33 -45 17 -18 22 -21 11 -7 -12 14 -26 34 -32 45 -6 11 -12 14 -12 7z"/>
 <path d="M2920 472 c0 -6 -14 -28 -32 -49 -29 -34 -29 -35 -4 -13 31 28 50 59 42 68 -3 3 -6 0 -6 -6z"/>
 <path d="M2748 363 c12 -2 30 -2 40 0 9 3 -1 5 -23 4 -22 0 -30 -2 -17 -4z"/>
 </g>
<g id="layer108" fill="#df9dc3" stroke="none">
 <path d="M931 5472 c-1 -19 52 -228 56 -217 1 6 -11 60 -26 120 -16 61 -30 104 -30 97z"/>
 <path d="M1340 5392 c8 -5 26 -13 40 -16 17 -5 20 -4 10 2 -8 5 -26 13 -40 16 -17 5 -20 4 -10 -2z"/>
 <path d="M5700 5387 c0 -2 15 -16 33 -33 l32 -29 -29 33 c-28 30 -36 37 -36 29z"/>
 <path d="M1420 5362 c8 -5 26 -13 40 -16 17 -5 20 -4 10 2 -8 5 -26 13 -40 16 -17 5 -20 4 -10 -2z"/>
 <path d="M5415 5266 c-55 -25 -105 -101 -105 -161 0 -97 125 -215 245 -232 52 -7 78 10 101 64 18 42 18 147 -1 209 -31 106 -144 163 -240 120z"/>
 <path d="M992 5225 c0 -11 3 -29 8 -40 11 -25 11 1 0 35 -6 20 -8 21 -8 5z"/>
 <path d="M1918 5172 c9 -6 -4 -26 -45 -73 -31 -35 -64 -73 -72 -84 l-15 -20 21 20 c11 11 46 49 77 84 52 59 61 81 33 81 -9 0 -9 -3 1 -8z"/>
 <path d="M5255 4830 c21 -22 41 -40 44 -40 3 0 -13 18 -34 40 -21 22 -41 40 -44 40 -3 0 13 -18 34 -40z"/>
 <path d="M3135 4650 c-70 -33 -69 -40 2 -9 26 12 64 25 83 29 34 8 34 8 5 8 -16 1 -57 -12 -90 -28z"/>
 <path d="M1560 4629 c-12 -23 -20 -43 -18 -45 3 -2 14 17 26 41 27 56 20 60 -8 4z"/>
 <path d="M5644 4558 l-29 -33 33 29 c30 28 37 36 29 36 -2 0 -16 -15 -33 -32z"/>
 <path d="M2610 4359 l-35 -30 38 26 c33 24 43 35 34 35 -1 0 -18 -14 -37 -31z"/>
 <path d="M3990 4281 c-284 -62 -657 -279 -1035 -600 -505 -430 -958 -1024 -1095 -1436 -39 -117 -49 -173 -51 -287 -2 -92 -1 -95 34 -150 36 -57 104 -108 150 -113 12 -1 22 -3 22 -5 0 -7 166 -6 171 1 3 6 14 7 25 4 10 -4 24 -3 31 2 7 4 18 8 23 8 6 1 17 4 25 7 8 3 51 18 95 33 101 35 239 99 335 155 41 24 80 43 87 43 8 0 11 9 8 21 -3 12 -14 66 -26 121 -29 137 -93 327 -183 539 -42 98 -76 192 -76 208 0 59 75 98 131 68 25 -14 37 -38 134 -280 82 -203 158 -432 171 -517 l6 -42 87 66 c112 86 177 140 278 231 46 40 87 71 93 67 30 -18 -11 20 -224 211 -128 115 -241 222 -251 237 -32 53 11 127 76 127 33 0 32 0 308 -249 l215 -193 60 63 c34 35 91 96 127 136 l66 71 -101 47 c-56 26 -111 56 -123 68 -33 29 -31 86 2 117 45 42 68 37 280 -66 50 -24 83 -39 73 -32 -14 10 -10 20 41 87 78 103 151 207 151 215 0 3 -26 6 -58 6 -111 0 -584 70 -639 95 -61 27 -60 124 1 153 23 12 52 10 214 -17 103 -17 219 -35 257 -41 39 -6 167 -12 285 -14 118 -2 178 -1 133 1 l-83 4 32 62 c18 34 31 65 30 70 -1 4 3 7 9 7 5 0 7 5 4 10 -3 6 -1 10 6 10 7 0 9 3 6 7 -4 3 -3 11 2 17 5 6 20 40 34 76 61 163 77 347 38 436 -28 63 -54 90 -116 122 -67 34 -176 39 -295 13z"/>
 <path d="M2379 4173 l-34 -38 38 34 c34 33 42 41 34 41 -2 0 -19 -17 -38 -37z"/>
 <path d="M1251 4160 c0 -8 8 -46 18 -85 11 -38 19 -63 20 -55 0 8 -8 47 -18 85 -11 39 -19 63 -20 55z"/>
 <path d="M4868 4143 c12 -2 30 -2 40 0 9 3 -1 5 -23 4 -22 0 -30 -2 -17 -4z"/>
 <path d="M2285 4088 l-50 -53 53 50 c48 46 57 55 49 55 -1 0 -25 -24 -52 -52z"/>
 <path d="M1292 3990 c0 -8 4 -26 8 -40 6 -20 8 -21 8 -5 0 11 -3 29 -8 40 -5 12 -8 14 -8 5z"/>
 <path d="M1358 3768 c-3 -7 -1 -24 3 -38 6 -22 7 -20 8 13 1 38 -3 47 -11 25z"/>
 <path d="M5500 3723 c0 -16 48 -72 74 -84 13 -6 10 -2 -8 12 -15 12 -37 36 -47 53 -10 17 -19 26 -19 19z"/>
 <path d="M5820 3722 c0 -6 -14 -28 -32 -49 -29 -34 -29 -35 -4 -13 31 28 50 59 42 68 -3 3 -6 0 -6 -6z"/>
 <path d="M1372 3685 c0 -11 4 -31 8 -45 6 -20 8 -21 8 -5 0 11 -4 31 -8 45 -6 20 -8 21 -8 5z"/>
 <path d="M5312 3530 c0 -19 2 -27 5 -17 2 9 2 25 0 35 -3 9 -5 1 -5 -18z"/>
 <path d="M1422 3475 c0 -11 4 -31 8 -45 6 -20 8 -21 8 -5 0 11 -4 31 -8 45 -6 20 -8 21 -8 5z"/>
 <path d="M4483 3453 c9 -2 25 -2 35 0 9 3 1 5 -18 5 -19 0 -27 -2 -17 -5z"/>
 <path d="M1462 3305 c0 -11 4 -31 8 -45 6 -20 8 -21 8 -5 0 11 -4 31 -8 45 -6 20 -8 21 -8 5z"/>
 <path d="M1626 2974 c-4 -14 -5 -28 -3 -31 3 -2 8 8 11 23 4 14 5 28 3 31 -3 2 -8 -8 -11 -23z"/>
 <path d="M1580 2840 c-8 -5 -10 -10 -3 -10 6 0 9 -8 7 -17 -2 -10 0 -31 4 -48 7 -25 9 -21 8 28 0 31 -1 57 -1 57 0 0 -7 -5 -15 -10z"/>
 <path d="M3890 2780 c19 -11 40 -19 45 -19 6 0 -6 8 -25 19 -19 11 -39 19 -45 19 -5 0 6 -8 25 -19z"/>
 <path d="M4520 2680 c30 -16 60 -29 65 -29 6 0 -15 13 -45 29 -30 16 -59 29 -65 29 -5 0 15 -13 45 -29z"/>
 <path d="M3685 2440 c21 -22 41 -40 44 -40 3 0 -13 18 -34 40 -21 22 -41 40 -44 40 -3 0 13 -18 34 -40z"/>
 <path d="M5972 2430 c0 -19 2 -27 5 -17 2 9 2 25 0 35 -3 9 -5 1 -5 -18z"/>
 <path d="M1672 2435 c0 -11 3 -29 8 -40 11 -25 11 1 0 35 -6 20 -8 21 -8 5z"/>
 <path d="M5150 2380 c19 -11 40 -19 45 -19 6 0 -6 8 -25 19 -19 11 -39 19 -45 19 -5 0 6 -8 25 -19z"/>
 <path d="M5920 2345 c-24 -25 -42 -45 -39 -45 3 0 25 20 49 45 24 25 42 45 39 45 -3 0 -25 -20 -49 -45z"/>
 <path d="M3490 2377 c0 -2 15 -16 33 -33 l32 -29 -29 33 c-28 30 -36 37 -36 29z"/>
 <path d="M3790 2345 c19 -19 36 -35 39 -35 3 0 -10 16 -29 35 -19 19 -36 35 -39 35 -3 0 10 -16 29 -35z"/>
 <path d="M3890 2255 c19 -19 36 -35 39 -35 3 0 -10 16 -29 35 -19 19 -36 35 -39 35 -3 0 10 -16 29 -35z"/>
 <path d="M3680 2207 c0 -2 15 -16 33 -33 l32 -29 -29 33 c-28 30 -36 37 -36 29z"/>
 <path d="M3810 2085 c19 -19 36 -35 39 -35 3 0 -10 16 -29 35 -19 19 -36 35 -39 35 -3 0 10 -16 29 -35z"/>
 <path d="M5360 2080 c19 -11 40 -19 45 -19 6 0 -6 8 -25 19 -19 11 -39 19 -45 19 -5 0 6 -8 25 -19z"/>
 <path d="M5473 2033 c9 -2 25 -2 35 0 9 3 1 5 -18 5 -19 0 -27 -2 -17 -5z"/>
 <path d="M4614 1645 c0 -121 2 -169 3 -107 2 62 2 161 0 220 -1 59 -3 8 -3 -113z"/>
 <path d="M5355 1778 l-40 -43 43 40 c39 36 47 45 39 45 -2 0 -21 -19 -42 -42z"/>
 <path d="M3023 1700 c0 -25 2 -35 4 -22 2 12 2 32 0 45 -2 12 -4 2 -4 -23z"/>
 <path d="M2843 1670 c0 -25 2 -35 4 -22 2 12 2 32 0 45 -2 12 -4 2 -4 -23z"/>
 <path d="M3484 1491 c-127 -58 -138 -239 -18 -309 85 -49 215 -11 250 74 51 121 -36 255 -166 254 -14 0 -44 -9 -66 -19z"/>
 <path d="M2843 1400 c0 -25 2 -35 4 -22 2 12 2 32 0 45 -2 12 -4 2 -4 -23z"/>
 <path d="M4278 1413 c61 -2 163 -2 225 0 61 1 11 3 -113 3 -124 0 -174 -2 -112 -3z"/>
 <path d="M3023 1365 c0 -22 2 -30 4 -17 2 12 2 30 0 40 -3 9 -5 -1 -4 -23z"/>
 <path d="M1581 1010 c-1 -20 20 -46 92 -115 l92 -90 -87 90 c-48 50 -88 101 -91 115 l-4 25 -2 -25z"/>
 <path d="M1075 930 l-59 -65 64 62 c35 34 62 64 60 65 -3 2 -32 -26 -65 -62z"/>
 <path d="M5133 935 c0 -27 2 -38 4 -22 2 15 2 37 0 50 -2 12 -4 0 -4 -28z"/>
 <path d="M2700 709 c-51 -20 -111 -95 -110 -136 1 -10 7 -1 15 20 55 156 265 156 320 0 8 -21 14 -30 15 -20 1 43 -60 116 -113 136 -35 13 -93 13 -127 0z"/>
 <path d="M4978 623 c18 -2 45 -2 60 0 15 2 0 4 -33 4 -33 0 -45 -2 -27 -4z"/>
 <path d="M5418 623 c18 -2 45 -2 60 0 15 2 0 4 -33 4 -33 0 -45 -2 -27 -4z"/>
 <path d="M5133 495 c0 -27 2 -38 4 -22 2 15 2 37 0 50 -2 12 -4 0 -4 -28z"/>
 <path d="M2600 472 c0 -7 15 -27 33 -45 17 -18 22 -21 11 -7 -12 14 -26 34 -32 45 -6 11 -12 14 -12 7z"/>
 <path d="M2920 472 c0 -6 -14 -28 -32 -49 -29 -34 -29 -35 -4 -13 31 28 50 59 42 68 -3 3 -6 0 -6 -6z"/>
 <path d="M2748 363 c12 -2 30 -2 40 0 9 3 -1 5 -23 4 -22 0 -30 -2 -17 -4z"/>
 </g>
<g id="layer109" fill="#d4e4ed" stroke="none">
 <path d="M5700 5387 c0 -2 15 -16 33 -33 l32 -29 -29 33 c-28 30 -36 37 -36 29z"/>
 <path d="M5415 5266 c-55 -25 -105 -101 -105 -161 0 -97 125 -215 245 -232 52 -7 78 10 101 64 18 42 18 147 -1 209 -31 106 -144 163 -240 120z"/>
 <path d="M1884 5108 l-29 -33 33 29 c30 28 37 36 29 36 -2 0 -16 -15 -33 -32z"/>
 <path d="M5255 4830 c21 -22 41 -40 44 -40 3 0 -13 18 -34 40 -21 22 -41 40 -44 40 -3 0 13 -18 34 -40z"/>
 <path d="M5644 4558 l-29 -33 33 29 c30 28 37 36 29 36 -2 0 -16 -15 -33 -32z"/>
 <path d="M4110 4289 c-139 -7 -243 -36 -407 -114 -359 -170 -689 -420 -1068 -807 -484 -493 -796 -1015 -823 -1373 -4 -57 -4 -101 1 -98 5 3 7 -6 5 -19 -5 -39 52 -122 107 -153 25 -15 56 -29 68 -30 12 -1 22 -3 22 -5 0 -7 166 -6 171 1 3 6 14 7 25 4 10 -4 24 -3 31 2 7 4 18 8 23 8 6 1 17 4 25 7 8 3 51 18 95 33 93 32 302 131 359 170 21 14 47 27 56 28 16 1 15 11 -7 117 -32 150 -93 332 -187 555 -85 202 -92 241 -50 274 37 29 94 28 121 -1 20 -22 109 -231 187 -436 35 -91 87 -264 101 -332 4 -19 9 -38 12 -42 4 -7 72 39 125 84 14 13 39 32 54 43 38 27 169 138 221 188 27 26 46 37 55 32 7 -5 11 -6 8 -3 -12 11 -147 133 -312 281 -97 87 -179 165 -182 174 -30 77 52 151 125 113 11 -6 122 -103 247 -215 125 -113 232 -205 239 -205 15 0 233 237 233 253 0 7 -48 34 -106 61 -91 43 -109 55 -120 83 -12 28 -12 38 0 67 30 72 70 72 221 1 65 -30 123 -55 130 -55 14 0 175 211 175 229 0 6 5 11 10 11 6 0 10 7 10 15 0 8 6 15 13 16 35 2 -36 18 -84 18 -64 1 -203 19 -438 58 -193 31 -216 43 -216 113 0 34 6 47 28 66 35 30 45 30 226 -1 266 -44 373 -55 560 -59 102 -2 153 -1 114 1 l-73 4 32 62 c18 34 31 65 30 70 -1 4 3 7 9 7 5 0 7 5 4 10 -3 6 -1 10 6 10 7 0 9 3 6 7 -4 3 -3 11 2 17 41 49 97 284 94 396 -1 75 -26 144 -67 188 -23 26 -87 62 -110 62 -8 0 -16 3 -18 8 -1 4 -55 4 -118 1z"/>
 <path d="M4868 4143 c12 -2 30 -2 40 0 9 3 -1 5 -23 4 -22 0 -30 -2 -17 -4z"/>
 <path d="M2285 4088 l-50 -53 53 50 c48 46 57 55 49 55 -1 0 -25 -24 -52 -52z"/>
 <path d="M5312 3530 c0 -19 2 -27 5 -17 2 9 2 25 0 35 -3 9 -5 1 -5 -18z"/>
 <path d="M4500 2690 c19 -11 40 -19 45 -19 6 0 -6 8 -25 19 -19 11 -39 19 -45 19 -5 0 6 -8 25 -19z"/>
 <path d="M3650 2477 c0 -2 15 -16 33 -33 l32 -29 -29 33 c-28 30 -36 37 -36 29z"/>
 <path d="M5972 2430 c0 -19 2 -27 5 -17 2 9 2 25 0 35 -3 9 -5 1 -5 -18z"/>
 <path d="M5920 2345 c-24 -25 -42 -45 -39 -45 3 0 25 20 49 45 24 25 42 45 39 45 -3 0 -25 -20 -49 -45z"/>
 <path d="M3760 2377 c0 -2 15 -16 33 -33 l32 -29 -29 33 c-28 30 -36 37 -36 29z"/>
 <path d="M3860 2287 c0 -2 15 -16 33 -33 l32 -29 -29 33 c-28 30 -36 37 -36 29z"/>
 <path d="M3790 2107 c0 -2 15 -16 33 -33 l32 -29 -29 33 c-28 30 -36 37 -36 29z"/>
 <path d="M4614 1645 c0 -121 2 -169 3 -107 2 62 2 161 0 220 -1 59 -3 8 -3 -113z"/>
 <path d="M5355 1778 l-40 -43 43 40 c39 36 47 45 39 45 -2 0 -21 -19 -42 -42z"/>
 <path d="M3022 1710 c0 -19 2 -27 5 -17 2 9 2 25 0 35 -3 9 -5 1 -5 -18z"/>
 <path d="M2842 1660 c0 -19 2 -27 5 -17 2 9 2 25 0 35 -3 9 -5 1 -5 -18z"/>
 <path d="M2843 1400 c0 -25 2 -35 4 -22 2 12 2 32 0 45 -2 12 -4 2 -4 -23z"/>
 <path d="M4278 1413 c61 -2 163 -2 225 0 61 1 11 3 -113 3 -124 0 -174 -2 -112 -3z"/>
 <path d="M1581 1010 c-1 -20 20 -46 92 -115 l92 -90 -87 90 c-48 50 -88 101 -91 115 l-4 25 -2 -25z"/>
 <path d="M1075 930 l-59 -65 64 62 c35 34 62 64 60 65 -3 2 -32 -26 -65 -62z"/>
 <path d="M5133 935 c0 -27 2 -38 4 -22 2 15 2 37 0 50 -2 12 -4 0 -4 -28z"/>
 <path d="M2700 709 c-51 -20 -111 -95 -110 -136 1 -10 7 -1 15 20 55 156 265 156 320 0 8 -21 14 -30 15 -20 1 43 -60 116 -113 136 -35 13 -93 13 -127 0z"/>
 <path d="M4978 623 c18 -2 45 -2 60 0 15 2 0 4 -33 4 -33 0 -45 -2 -27 -4z"/>
 <path d="M5418 623 c18 -2 45 -2 60 0 15 2 0 4 -33 4 -33 0 -45 -2 -27 -4z"/>
 <path d="M5133 495 c0 -27 2 -38 4 -22 2 15 2 37 0 50 -2 12 -4 0 -4 -28z"/>
 <path d="M2600 472 c0 -7 15 -27 33 -45 17 -18 22 -21 11 -7 -12 14 -26 34 -32 45 -6 11 -12 14 -12 7z"/>
 <path d="M2920 472 c0 -6 -14 -28 -32 -49 -29 -34 -29 -35 -4 -13 31 28 50 59 42 68 -3 3 -6 0 -6 -6z"/>
 <path d="M2748 363 c12 -2 30 -2 40 0 9 3 -1 5 -23 4 -22 0 -30 -2 -17 -4z"/>
 </g>

</svg>