<!DOCTYPE svg PUBLIC "-//W3C//DTD SVG 20010904//EN" "http://www.w3.org/TR/2001/REC-SVG-20010904/DTD/svg10.dtd">
<svg version="1.0" xmlns="http://www.w3.org/2000/svg" width="650px" height="544px" viewBox="0 0 6500 5440" preserveAspectRatio="xMidYMid meet">
<g id="layer101" fill="#55696e" stroke="none">
 <path d="M1566 4889 c-83 -20 -146 -98 -146 -181 0 -24 25 -250 56 -503 l56 -460 99 -263 99 -263 0 -550 c0 -433 -3 -549 -12 -549 -7 0 -78 18 -158 40 -382 104 -384 105 -427 92 -22 -7 -52 -21 -66 -32 -22 -17 -315 -396 -421 -542 -53 -74 -45 -171 19 -227 65 -57 154 -61 219 -10 14 11 95 111 179 221 83 110 157 206 163 214 6 8 17 14 23 14 7 0 155 -41 329 -91 l317 -92 273 -4 272 -5 102 -112 c56 -61 140 -154 188 -206 l87 -95 129 -389 c115 -347 133 -394 164 -427 46 -48 105 -67 160 -50 77 23 130 89 130 163 0 18 -64 224 -142 457 l-143 424 -65 72 c-36 40 -131 144 -211 231 -80 87 -153 170 -162 184 -15 22 -17 72 -17 532 l0 508 44 88 c43 86 70 137 261 487 79 144 99 190 103 230 5 59 -65 902 -80 960 -21 84 -134 155 -220 139 -86 -16 -157 -87 -165 -166 -3 -24 12 -229 31 -457 l36 -413 -56 -107 c-31 -58 -108 -202 -172 -320 l-115 -213 -36 6 c-20 3 -60 6 -89 6 -45 0 -54 3 -62 23 -5 12 -57 150 -115 306 -119 319 -102 238 -181 871 -19 157 -40 302 -45 323 -11 42 -59 101 -98 121 -38 20 -91 25 -135 15z"/>
 <path d="M3785 4891 c-84 -21 -138 -75 -155 -157 -7 -33 -10 -223 -8 -560 l3 -509 57 -150 c31 -82 87 -231 123 -330 l67 -180 84 -550 c47 -302 87 -573 91 -600 l5 -50 -188 -267 c-231 -327 -234 -331 -234 -388 0 -93 68 -758 80 -781 34 -65 87 -99 155 -99 57 0 96 19 130 64 44 58 44 48 -6 559 l-21 209 33 46 c17 26 49 70 69 97 20 28 91 127 158 220 l120 170 196 29 196 28 82 -53 c46 -29 128 -82 183 -119 55 -37 105 -69 110 -71 30 -12 243 -159 247 -170 3 -8 52 -142 108 -299 57 -157 112 -298 123 -314 23 -33 88 -65 132 -66 83 0 164 81 165 165 0 43 -224 681 -257 731 -15 23 -284 207 -580 397 -39 25 -74 54 -77 64 -5 17 -108 684 -164 1068 l-28 190 54 191 54 191 370 101 c283 78 379 108 405 128 119 90 104 267 -28 334 -73 38 -108 31 -723 -146 -142 -41 -271 -81 -286 -89 -44 -23 -68 -61 -94 -149 -14 -45 -56 -187 -95 -316 -38 -129 -77 -261 -86 -292 -15 -53 -19 -58 -53 -68 -40 -11 -45 -8 -60 35 -6 17 -58 162 -116 324 l-106 294 0 497 0 497 -23 44 c-39 72 -136 118 -212 100z"/>
 <path d="M2163 1570 c-152 -32 -273 -168 -289 -325 -13 -129 50 -266 156 -337 189 -127 433 -66 541 134 28 54 34 75 37 148 3 69 0 96 -17 141 -55 145 -173 234 -326 244 -33 2 -79 0 -102 -5z"/>
 <path d="M4440 1533 c-90 -31 -161 -94 -207 -183 -25 -50 -28 -64 -28 -160 0 -90 4 -112 24 -152 60 -122 172 -197 306 -206 209 -13 385 151 385 359 0 104 -63 232 -142 289 -92 67 -235 89 -338 53z"/>
 </g>
<g id="layer102" fill="#525e90" stroke="none">
 <path d="M1566 4889 c-83 -20 -146 -98 -146 -181 0 -24 25 -250 56 -503 l56 -460 99 -263 99 -263 0 -550 c0 -433 -3 -549 -12 -549 -7 0 -78 18 -158 40 -382 104 -384 105 -427 92 -22 -7 -52 -21 -66 -32 -22 -17 -315 -396 -421 -542 -53 -74 -45 -171 19 -227 65 -57 154 -61 219 -10 14 11 95 111 179 221 83 110 157 206 163 214 6 8 17 14 23 14 7 0 155 -41 329 -91 l317 -92 273 -4 272 -5 102 -112 c56 -61 140 -154 188 -206 l87 -95 129 -389 c115 -347 133 -394 164 -427 46 -48 105 -67 160 -50 77 23 130 89 130 163 0 18 -64 224 -142 457 l-143 424 -65 72 c-36 40 -131 144 -211 231 -80 87 -153 170 -162 184 -15 22 -17 72 -17 532 l0 508 44 88 c43 86 70 137 261 487 79 144 99 190 103 230 5 59 -65 902 -80 960 -21 84 -134 155 -220 139 -86 -16 -157 -87 -165 -166 -3 -24 12 -229 31 -457 l36 -413 -56 -107 c-31 -58 -108 -202 -172 -320 l-115 -213 -36 6 c-20 3 -60 6 -89 6 -45 0 -54 3 -62 23 -5 12 -57 150 -115 306 -119 319 -102 238 -181 871 -19 157 -40 302 -45 323 -11 42 -59 101 -98 121 -38 20 -91 25 -135 15z m1307 -23 c39 -16 82 -61 96 -99 6 -15 29 -242 52 -505 l41 -477 -66 -130 c-36 -71 -102 -197 -147 -280 -45 -82 -104 -192 -131 -242 -27 -51 -51 -93 -53 -93 -2 0 -13 19 -23 43 -10 23 -37 59 -60 79 -44 39 -83 54 -174 63 l-58 6 29 57 c16 31 88 165 160 297 73 132 134 251 138 265 3 14 -9 200 -27 415 -18 214 -33 411 -33 437 1 128 137 215 256 164z"/>
 <path d="M3785 4891 c-84 -21 -138 -75 -155 -157 -7 -33 -10 -223 -8 -560 l3 -509 57 -150 c31 -82 87 -231 123 -330 l67 -180 84 -550 c47 -302 87 -573 91 -600 l5 -50 -188 -267 c-231 -327 -234 -331 -234 -388 0 -93 68 -758 80 -781 34 -65 87 -99 155 -99 57 0 96 19 130 64 44 58 44 48 -6 559 l-21 209 33 46 c17 26 49 70 69 97 20 28 91 127 158 220 l120 170 196 29 196 28 82 -53 c46 -29 128 -82 183 -119 55 -37 105 -69 110 -71 30 -12 243 -159 247 -170 3 -8 52 -142 108 -299 57 -157 112 -298 123 -314 23 -33 88 -65 132 -66 83 0 164 81 165 165 0 43 -224 681 -257 731 -15 23 -284 207 -580 397 -39 25 -74 54 -77 64 -5 17 -108 684 -164 1068 l-28 190 54 191 54 191 370 101 c283 78 379 108 405 128 119 90 104 267 -28 334 -73 38 -108 31 -723 -146 -142 -41 -271 -81 -286 -89 -44 -23 -68 -61 -94 -149 -14 -45 -56 -187 -95 -316 -38 -129 -77 -261 -86 -292 -15 -53 -19 -58 -53 -68 -40 -11 -45 -8 -60 35 -6 17 -58 162 -116 324 l-106 294 0 497 0 497 -23 44 c-39 72 -136 118 -212 100z"/>
 <path d="M2163 1570 c-152 -32 -273 -168 -289 -325 -13 -129 50 -266 156 -337 189 -127 433 -66 541 134 28 54 34 75 37 148 3 69 0 96 -17 141 -55 145 -173 234 -326 244 -33 2 -79 0 -102 -5z"/>
 <path d="M4440 1533 c-90 -31 -161 -94 -207 -183 -25 -50 -28 -64 -28 -160 0 -90 4 -112 24 -152 60 -122 172 -197 306 -206 209 -13 385 151 385 359 0 104 -63 232 -142 289 -92 67 -235 89 -338 53z"/>
 </g>
<g id="layer103" fill="#ba6746" stroke="none">
 <path d="M1566 4889 c-83 -20 -146 -98 -146 -181 0 -24 25 -250 56 -503 l56 -460 99 -263 99 -263 0 -550 c0 -433 -3 -549 -12 -549 -7 0 -78 18 -158 40 -382 104 -384 105 -427 92 -22 -7 -52 -21 -66 -32 -22 -17 -315 -396 -421 -542 -53 -74 -45 -171 19 -227 65 -57 154 -61 219 -10 14 11 95 111 179 221 83 110 157 206 163 214 6 8 17 14 23 14 7 0 155 -41 329 -91 l317 -92 273 -4 272 -5 102 -112 c56 -61 140 -154 188 -206 l87 -95 129 -389 c115 -347 133 -394 164 -427 46 -48 105 -67 160 -50 77 23 130 89 130 163 0 18 -64 224 -142 457 l-143 424 -65 72 c-36 40 -131 144 -211 231 -80 87 -153 170 -162 184 -15 22 -17 72 -17 532 l0 508 44 88 c43 86 70 137 261 487 79 144 99 190 103 230 5 59 -65 902 -80 960 -21 84 -134 155 -220 139 -86 -16 -157 -87 -165 -166 -3 -24 12 -229 31 -457 l36 -413 -56 -107 c-31 -58 -108 -202 -172 -320 l-115 -213 -36 6 c-20 3 -60 6 -89 6 -45 0 -54 3 -62 23 -5 12 -57 150 -115 306 -119 319 -102 238 -181 871 -19 157 -40 302 -45 323 -11 42 -59 101 -98 121 -38 20 -91 25 -135 15z m1307 -23 c39 -16 82 -61 96 -99 6 -15 29 -242 52 -505 l41 -477 -66 -130 c-36 -71 -102 -197 -147 -280 -45 -82 -104 -192 -131 -242 -27 -51 -51 -93 -53 -93 -2 0 -13 19 -23 43 -10 23 -37 59 -60 79 -44 39 -83 54 -174 63 l-58 6 29 57 c16 31 88 165 160 297 73 132 134 251 138 265 3 14 -9 200 -27 415 -18 214 -33 411 -33 437 1 128 137 215 256 164z"/>
 <path d="M3785 4891 c-84 -21 -138 -75 -155 -157 -7 -33 -10 -223 -8 -560 l3 -509 57 -150 c31 -82 87 -231 123 -330 l67 -180 84 -550 c47 -302 87 -573 91 -600 l5 -50 -188 -267 c-231 -327 -234 -331 -234 -388 0 -93 68 -758 80 -781 34 -65 87 -99 155 -99 57 0 96 19 130 64 44 58 44 48 -6 559 l-21 209 33 46 c17 26 49 70 69 97 20 28 91 127 158 220 l120 170 196 29 196 28 82 -53 c46 -29 128 -82 183 -119 55 -37 105 -69 110 -71 30 -12 243 -159 247 -170 3 -8 52 -142 108 -299 57 -157 112 -298 123 -314 23 -33 88 -65 132 -66 83 0 164 81 165 165 0 43 -224 681 -257 731 -15 23 -284 207 -580 397 -46 29 -74 55 -78 69 -12 54 -183 1186 -186 1233 -1 17 1 44 5 60 5 26 5 26 -7 -5 l-14 -35 -203 -52 c-113 -29 -206 -50 -209 -47 -2 2 19 88 48 190 28 103 50 188 48 190 -3 3 -71 -217 -113 -368 -5 -18 -74 -43 -85 -30 -3 4 -19 42 -34 85 -36 100 -43 95 -9 -7 15 -43 22 -81 18 -85 -8 -7 -320 -91 -337 -91 -12 0 -35 56 -101 241 -35 101 -85 242 -110 312 l-46 128 0 526 c0 516 0 528 21 571 38 78 138 120 222 93 45 -15 102 -78 116 -128 7 -24 11 -212 11 -525 l0 -486 69 -189 c83 -226 102 -275 107 -270 3 2 -34 111 -81 242 l-85 238 0 497 0 497 -23 44 c-39 72 -136 118 -212 100z"/>
 <path d="M5450 4165 c-25 -8 -177 -51 -338 -96 -161 -45 -291 -83 -289 -86 4 -3 498 130 657 177 83 24 155 6 207 -53 41 -47 58 -107 45 -159 -13 -49 -48 -101 -82 -121 -14 -8 -132 -45 -263 -82 -131 -37 -236 -70 -234 -72 3 -2 112 26 243 62 171 47 247 73 272 91 153 117 72 357 -120 353 -29 -1 -73 -7 -98 -14z"/>
 <path d="M4622 3920 c-31 -19 -72 -74 -72 -95 0 -5 6 -1 12 10 17 32 50 66 83 86 17 11 26 19 20 19 -5 0 -25 -9 -43 -20z"/>
 <path d="M4883 3595 c-3 -9 -3 -19 1 -22 3 -4 6 1 6 10 0 8 8 18 18 20 16 4 16 5 -1 6 -10 0 -20 -6 -24 -14z"/>
 <path d="M4466 3544 c-4 -14 -5 -28 -3 -31 3 -2 8 8 11 23 4 14 5 28 3 31 -3 2 -8 -8 -11 -23z"/>
 <path d="M2163 1570 c-152 -32 -273 -168 -289 -325 -13 -129 50 -266 156 -337 189 -127 433 -66 541 134 28 54 34 75 37 148 3 69 0 96 -17 141 -55 145 -173 234 -326 244 -33 2 -79 0 -102 -5z"/>
 <path d="M4440 1533 c-90 -31 -161 -94 -207 -183 -25 -50 -28 -64 -28 -160 0 -90 4 -112 24 -152 60 -122 172 -197 306 -206 209 -13 385 151 385 359 0 104 -63 232 -142 289 -92 67 -235 89 -338 53z"/>
 </g>
<g id="layer104" fill="#748488" stroke="none">
 <path d="M1566 4889 c-83 -20 -146 -98 -146 -181 0 -24 25 -250 56 -503 l56 -460 99 -263 99 -263 0 -550 c0 -433 -3 -549 -12 -549 -7 0 -71 16 -142 35 -72 19 -130 34 -131 32 0 -1 -18 -73 -39 -159 -21 -86 -42 -158 -47 -160 -5 -2 116 -39 268 -83 l278 -79 268 -4 268 -4 132 -146 c73 -81 159 -174 191 -207 l59 -60 -56 66 -56 66 87 84 c48 47 99 95 115 109 l27 24 56 -55 c69 -67 120 -136 129 -172 4 -16 10 -26 12 -23 3 3 0 20 -7 40 -11 35 -36 64 -291 342 -80 87 -153 170 -162 184 -15 22 -17 72 -17 532 l0 508 44 88 c43 86 70 137 261 487 79 144 99 190 103 230 5 59 -65 902 -80 960 -21 84 -134 155 -220 139 -86 -16 -157 -87 -165 -166 -3 -24 12 -229 31 -457 l36 -413 -56 -107 c-31 -58 -108 -202 -172 -320 l-115 -213 -36 6 c-20 3 -60 6 -89 6 -45 0 -54 3 -62 23 -5 12 -57 150 -115 306 -119 319 -102 238 -181 871 -19 157 -40 302 -45 323 -11 42 -59 101 -98 121 -38 20 -91 25 -135 15z m1307 -23 c39 -16 82 -61 96 -99 6 -15 29 -242 52 -505 l41 -477 -66 -130 c-36 -71 -102 -197 -147 -280 -45 -82 -104 -192 -131 -242 -27 -51 -51 -93 -53 -93 -2 0 -13 19 -23 43 -10 23 -37 59 -60 79 -44 39 -83 54 -174 63 l-58 6 29 57 c16 31 88 165 160 297 73 132 134 251 138 265 3 14 -9 200 -27 415 -18 214 -33 411 -33 437 1 128 137 215 256 164z m-543 -2991 c49 -25 100 -94 100 -134 0 -20 -5 -21 -180 -21 -199 0 -194 -2 -166 63 39 95 155 138 246 92z"/>
 <path d="M3785 4891 c-84 -21 -138 -75 -155 -157 -7 -33 -10 -223 -8 -560 l3 -509 57 -150 c31 -82 87 -231 123 -330 l67 -180 84 -550 c47 -302 87 -573 91 -600 l5 -50 -188 -267 c-231 -327 -234 -331 -234 -388 0 -93 68 -758 80 -781 34 -65 87 -99 155 -99 57 0 96 19 130 64 44 58 44 48 -6 559 l-21 209 33 46 c17 26 49 70 69 97 20 28 91 127 158 220 l120 170 196 29 196 28 82 -53 c46 -29 128 -82 183 -119 55 -37 105 -69 110 -71 30 -12 243 -159 247 -170 3 -8 52 -142 108 -299 57 -157 112 -298 123 -314 23 -33 88 -65 132 -66 83 0 164 81 165 165 0 43 -224 681 -257 731 -15 23 -284 207 -580 397 -46 29 -74 55 -78 69 -12 54 -183 1186 -186 1233 -1 17 1 44 5 60 5 26 5 26 -7 -5 l-14 -35 -203 -52 c-113 -29 -206 -50 -209 -47 -2 2 19 88 48 190 28 103 50 188 48 190 -3 3 -71 -217 -113 -368 -5 -18 -74 -43 -85 -30 -3 4 -19 42 -34 85 -36 100 -43 95 -9 -7 15 -43 22 -81 18 -85 -8 -7 -320 -91 -337 -91 -12 0 -35 56 -101 241 -35 101 -85 242 -110 312 l-46 128 0 526 c0 516 0 528 21 571 38 78 138 120 222 93 45 -15 102 -78 116 -128 7 -24 11 -212 11 -525 l0 -486 69 -189 c83 -226 102 -275 107 -270 3 2 -34 111 -81 242 l-85 238 0 497 0 497 -23 44 c-39 72 -136 118 -212 100z"/>
 <path d="M5450 4165 c-25 -8 -177 -51 -338 -96 -161 -45 -291 -83 -289 -86 4 -3 498 130 657 177 83 24 155 6 207 -53 41 -47 58 -107 45 -159 -13 -49 -48 -101 -82 -121 -14 -8 -132 -45 -263 -82 -131 -37 -236 -70 -234 -72 3 -2 112 26 243 62 171 47 247 73 272 91 153 117 72 357 -120 353 -29 -1 -73 -7 -98 -14z"/>
 <path d="M4622 3920 c-31 -19 -72 -74 -72 -95 0 -5 6 -1 12 10 17 32 50 66 83 86 17 11 26 19 20 19 -5 0 -25 -9 -43 -20z"/>
 <path d="M4883 3595 c-3 -9 -3 -19 1 -22 3 -4 6 1 6 10 0 8 8 18 18 20 16 4 16 5 -1 6 -10 0 -20 -6 -24 -14z"/>
 <path d="M4466 3544 c-4 -14 -5 -28 -3 -31 3 -2 8 8 11 23 4 14 5 28 3 31 -3 2 -8 -8 -11 -23z"/>
 <path d="M1158 2253 c12 -2 30 -2 40 0 9 3 -1 5 -23 4 -22 0 -30 -2 -17 -4z"/>
 <path d="M1027 2178 c-41 -49 -316 -411 -381 -500 -53 -74 -45 -171 19 -227 65 -57 154 -61 219 -10 14 11 95 111 179 221 83 110 157 206 162 213 6 7 19 15 30 18 18 4 18 5 -2 6 -17 1 -40 -23 -100 -101 -277 -366 -288 -378 -373 -378 -62 0 -110 28 -137 80 -26 49 -29 87 -9 133 12 29 129 187 359 485 92 118 109 148 34 60z"/>
 <path d="M1385 2200 c11 -5 27 -9 35 -9 9 0 8 4 -5 9 -11 5 -27 9 -35 9 -9 0 -8 -4 5 -9z"/>
 <path d="M1295 1880 c11 -5 27 -9 35 -9 9 0 8 4 -5 9 -11 5 -27 9 -35 9 -9 0 -8 -4 5 -9z"/>
 <path d="M2223 1573 c15 -2 37 -2 50 0 12 2 0 4 -28 4 -27 0 -38 -2 -22 -4z"/>
 <path d="M2437 1511 c71 -46 134 -134 153 -212 7 -28 10 -81 8 -119 -11 -150 -107 -270 -251 -315 -24 -8 -33 -14 -21 -14 36 -1 140 58 182 103 68 74 95 138 100 236 5 98 -17 171 -72 243 -31 40 -129 117 -149 117 -6 0 17 -17 50 -39z"/>
 <path d="M4440 1533 c-90 -31 -161 -94 -207 -183 -25 -50 -28 -64 -28 -160 0 -90 4 -112 24 -152 60 -122 172 -197 306 -206 209 -13 385 151 385 359 0 104 -63 232 -142 289 -92 67 -235 89 -338 53z"/>
 <path d="M2026 1509 c-56 -37 -86 -75 -121 -150 -74 -162 -16 -365 130 -455 17 -10 4 5 -27 35 -38 34 -69 75 -90 119 -30 60 -33 75 -33 152 1 75 4 93 33 151 30 62 80 119 142 161 14 9 22 17 19 17 -3 1 -27 -13 -53 -30z"/>
 <path d="M2842 1210 c3 -8 56 -170 119 -359 126 -382 138 -405 227 -431 100 -31 212 55 212 162 0 31 -188 613 -196 606 -1 -2 39 -134 91 -293 52 -160 95 -301 95 -315 -1 -44 -36 -106 -74 -129 -74 -46 -185 -20 -222 52 -9 17 -67 183 -130 370 -62 187 -116 342 -120 346 -4 3 -5 -1 -2 -9z"/>
 <path d="M2208 843 c17 -2 47 -2 65 0 17 2 3 4 -33 4 -36 0 -50 -2 -32 -4z"/>
 </g>
<g id="layer105" fill="#ca9566" stroke="none">
 <path d="M1566 4889 c-74 -18 -147 -99 -145 -161 1 -25 4 -19 13 24 8 37 63 98 103 114 18 8 54 14 81 14 61 0 132 -43 161 -97 11 -21 20 -34 21 -30 1 27 -59 101 -100 122 -37 19 -90 24 -134 14z"/>
 <path d="M3785 4891 c-81 -20 -136 -74 -154 -151 -14 -58 -14 -1009 -1 -1067 12 -53 131 -375 136 -370 3 2 -25 86 -61 186 l-65 183 0 533 c0 353 4 543 11 562 13 34 55 80 91 99 32 17 115 18 155 3 40 -15 73 -48 94 -94 17 -37 19 -75 19 -537 l0 -497 56 -151 c31 -83 58 -149 60 -147 3 2 -21 73 -51 157 l-55 152 0 498 0 497 -23 44 c-39 72 -136 118 -212 100z"/>
 <path d="M2695 4865 c-51 -31 -86 -83 -92 -137 -3 -24 12 -229 31 -456 l36 -414 -66 -124 c-36 -68 -63 -124 -61 -124 3 0 35 55 72 123 l66 122 -37 436 c-33 382 -36 440 -24 469 20 49 59 91 105 111 22 10 33 19 25 19 -8 0 -33 -11 -55 -25z"/>
 <path d="M2907 4851 c68 -49 72 -67 108 -455 18 -193 33 -340 34 -326 2 47 -51 645 -61 685 -10 40 -85 125 -110 125 -6 0 7 -13 29 -29z"/>
 <path d="M1422 4650 c0 -19 2 -27 5 -17 2 9 2 25 0 35 -3 9 -5 1 -5 -18z"/>
 <path d="M1812 4630 c0 -19 2 -27 5 -17 2 9 2 25 0 35 -3 9 -5 1 -5 -18z"/>
 <path d="M1432 4570 c0 -19 2 -27 5 -17 2 9 2 25 0 35 -3 9 -5 1 -5 -18z"/>
 <path d="M1822 4550 c0 -19 2 -27 5 -17 2 9 2 25 0 35 -3 9 -5 1 -5 -18z"/>
 <path d="M1442 4490 c0 -19 2 -27 5 -17 2 9 2 25 0 35 -3 9 -5 1 -5 -18z"/>
 <path d="M1833 4465 c0 -22 2 -30 4 -17 2 12 2 30 0 40 -3 9 -5 -1 -4 -23z"/>
 <path d="M1843 4385 c0 -22 2 -30 4 -17 2 12 2 30 0 40 -3 9 -5 -1 -4 -23z"/>
 <path d="M1462 4320 c0 -19 2 -27 5 -17 2 9 2 25 0 35 -3 9 -5 1 -5 -18z"/>
 <path d="M1852 4300 c0 -19 2 -27 5 -17 2 9 2 25 0 35 -3 9 -5 1 -5 -18z"/>
 <path d="M1472 4240 c0 -19 2 -27 5 -17 2 9 2 25 0 35 -3 9 -5 1 -5 -18z"/>
 <path d="M1863 4225 c0 -22 2 -30 4 -17 2 12 2 30 0 40 -3 9 -5 -1 -4 -23z"/>
 <path d="M1482 4160 c0 -19 2 -27 5 -17 2 9 2 25 0 35 -3 9 -5 1 -5 -18z"/>
 <path d="M1871 4160 c0 -14 8 -93 19 -177 18 -144 23 -162 99 -360 114 -299 124 -324 128 -320 2 2 -42 124 -97 271 -99 263 -101 271 -120 424 -22 172 -27 200 -29 162z"/>
 <path d="M5475 4170 c-25 -11 1 -11 35 0 20 6 21 8 5 8 -11 0 -29 -3 -40 -8z"/>
 <path d="M5585 4171 c70 -17 119 -59 144 -122 5 -13 10 -18 10 -11 3 54 -100 144 -161 141 -19 -1 -18 -2 7 -8z"/>
 <path d="M5173 4088 c-139 -39 -251 -73 -249 -76 4 -4 518 136 525 144 11 11 -43 -3 -276 -68z"/>
 <path d="M1493 4085 c0 -22 2 -30 4 -17 2 12 2 30 0 40 -3 9 -5 -1 -4 -23z"/>
 <path d="M3053 3990 c0 -30 2 -43 4 -27 2 15 2 39 0 55 -2 15 -4 2 -4 -28z"/>
 <path d="M1502 4000 c0 -19 2 -27 5 -17 2 9 2 25 0 35 -3 9 -5 1 -5 -18z"/>
 <path d="M5743 3985 c0 -22 2 -30 4 -17 2 12 2 30 0 40 -3 9 -5 -1 -4 -23z"/>
 <path d="M4865 4000 c-13 -5 -14 -9 -5 -9 8 0 24 4 35 9 13 5 14 9 5 9 -8 0 -24 -4 -35 -9z"/>
 <path d="M1510 3928 c0 -96 33 -217 124 -456 l96 -253 0 -550 c0 -433 -3 -549 -12 -549 -7 0 -71 16 -142 35 -72 19 -130 34 -131 32 0 -1 -18 -73 -39 -159 -21 -86 -42 -158 -47 -160 -5 -2 116 -39 268 -83 l278 -79 268 -4 268 -4 132 -146 c73 -81 159 -174 191 -207 l59 -60 -56 66 -56 66 87 84 c48 47 99 95 115 109 l27 24 56 -55 c69 -67 120 -136 129 -172 4 -16 10 -26 12 -23 3 3 0 20 -7 40 -11 35 -36 64 -291 342 -80 87 -153 170 -162 184 -15 22 -17 72 -17 532 l0 508 40 80 c22 44 38 80 35 80 -2 0 -18 -27 -35 -60 -17 -33 -32 -60 -35 -60 -3 0 -12 17 -20 37 -42 100 -124 153 -237 153 l-69 0 61 115 c34 63 59 115 57 115 -3 0 -33 -52 -67 -114 l-61 -115 -82 5 c-45 3 -178 7 -296 7 l-215 2 -97 260 c-82 219 -99 275 -109 358 -12 92 -20 124 -20 75z m820 -2053 c49 -25 100 -94 100 -134 0 -20 -5 -21 -180 -21 -199 0 -194 -2 -166 63 39 95 155 138 246 92z"/>
 <path d="M5730 3929 c0 -27 -51 -89 -88 -107 -20 -11 -99 -36 -174 -57 -76 -21 -136 -40 -134 -43 2 -2 72 15 154 38 123 34 158 48 190 76 39 33 71 89 58 101 -3 3 -6 0 -6 -8z"/>
 <path d="M4606 3909 c-14 -11 -31 -30 -37 -42 -9 -20 -8 -20 9 2 11 13 30 32 43 42 13 10 21 19 18 19 -4 0 -18 -9 -33 -21z"/>
 <path d="M3063 3875 c0 -27 2 -38 4 -22 2 15 2 37 0 50 -2 12 -4 0 -4 -28z"/>
 <path d="M3057 3771 c-4 -16 -30 -74 -60 -128 -97 -176 -160 -298 -150 -288 20 19 214 386 220 415 3 17 3 30 1 30 -3 0 -8 -13 -11 -29z"/>
 <path d="M5275 3710 c-13 -5 -14 -9 -5 -9 8 0 24 4 35 9 13 5 14 9 5 9 -8 0 -24 -4 -35 -9z"/>
 <path d="M2495 3530 c-9 -16 -13 -30 -11 -30 3 0 12 14 21 30 9 17 13 30 11 30 -3 0 -12 -13 -21 -30z"/>
 <path d="M4436 3444 c-4 -14 -5 -28 -3 -31 3 -2 8 8 11 23 4 14 5 28 3 31 -3 2 -8 -8 -11 -23z"/>
 <path d="M4146 3380 c3 -14 11 -32 16 -40 6 -10 7 -7 2 10 -3 14 -11 32 -16 40 -6 10 -7 7 -2 -10z"/>
 <path d="M4397 3313 c-14 -49 -33 -114 -42 -145 -15 -53 -19 -58 -53 -68 -42 -11 -45 -9 -62 43 -7 21 -14 36 -16 34 -2 -2 3 -23 11 -47 8 -24 14 -44 13 -45 -6 -5 -339 -85 -351 -85 -8 0 -19 10 -26 23 -9 17 -10 17 -5 2 6 -21 171 -1084 181 -1170 l5 -50 -188 -267 c-231 -327 -234 -331 -234 -388 0 -93 68 -758 80 -781 34 -65 87 -99 155 -99 57 0 96 19 130 64 44 58 44 48 -6 559 l-21 209 33 46 c17 26 49 70 69 97 20 28 91 127 158 220 l120 170 196 29 196 28 82 -53 c46 -29 128 -82 183 -119 55 -37 105 -69 110 -71 30 -12 243 -159 247 -170 3 -8 52 -142 108 -299 57 -157 112 -298 123 -314 23 -33 88 -65 132 -66 83 0 164 81 165 165 0 43 -224 681 -257 731 -15 23 -284 207 -580 397 -46 29 -74 55 -78 69 -14 62 -185 1201 -187 1245 -1 25 -4 29 -12 18 -10 -12 -414 -121 -422 -113 -1 2 15 66 37 142 22 76 38 140 36 142 -2 2 -16 -35 -30 -83z"/>
 <path d="M3776 3270 c4 -14 13 -38 20 -55 11 -24 13 -25 8 -5 -4 14 -13 39 -20 55 -11 24 -13 25 -8 5z"/>
 <path d="M2775 3230 c-9 -16 -13 -30 -11 -30 3 0 12 14 21 30 9 17 13 30 11 30 -3 0 -12 -13 -21 -30z"/>
 <path d="M4196 3240 c3 -14 11 -32 16 -40 6 -10 7 -7 2 10 -3 14 -11 32 -16 40 -6 10 -7 7 -2 -10z"/>
 <path d="M3826 3130 c3 -14 11 -32 16 -40 6 -10 7 -7 2 10 -3 14 -11 32 -16 40 -6 10 -7 7 -2 -10z"/>
 <path d="M1158 2253 c12 -2 30 -2 40 0 9 3 -1 5 -23 4 -22 0 -30 -2 -17 -4z"/>
 <path d="M1027 2178 c-41 -49 -316 -411 -381 -500 -53 -74 -45 -171 19 -227 65 -57 154 -61 219 -10 14 11 95 111 179 221 83 110 157 206 162 213 6 7 19 15 30 18 18 4 18 5 -2 6 -17 1 -40 -23 -100 -101 -277 -366 -288 -378 -373 -378 -62 0 -110 28 -137 80 -26 49 -29 87 -9 133 12 29 129 187 359 485 92 118 109 148 34 60z"/>
 <path d="M1385 2200 c11 -5 27 -9 35 -9 9 0 8 4 -5 9 -11 5 -27 9 -35 9 -9 0 -8 -4 5 -9z"/>
 <path d="M1295 1880 c11 -5 27 -9 35 -9 9 0 8 4 -5 9 -11 5 -27 9 -35 9 -9 0 -8 -4 5 -9z"/>
 <path d="M2223 1573 c15 -2 37 -2 50 0 12 2 0 4 -28 4 -27 0 -38 -2 -22 -4z"/>
 <path d="M2437 1511 c71 -46 134 -134 153 -212 7 -28 10 -81 8 -119 -11 -150 -107 -270 -251 -315 -24 -8 -33 -14 -21 -14 36 -1 140 58 182 103 68 74 95 138 100 236 5 98 -17 171 -72 243 -31 40 -129 117 -149 117 -6 0 17 -17 50 -39z"/>
 <path d="M4440 1533 c-90 -31 -161 -94 -207 -183 -25 -50 -28 -64 -28 -160 0 -90 4 -112 24 -152 60 -122 172 -197 306 -206 209 -13 385 151 385 359 0 104 -63 232 -142 289 -92 67 -235 89 -338 53z"/>
 <path d="M2026 1509 c-56 -37 -86 -75 -121 -150 -74 -162 -16 -365 130 -455 17 -10 4 5 -27 35 -38 34 -69 75 -90 119 -30 60 -33 75 -33 152 1 75 4 93 33 151 30 62 80 119 142 161 14 9 22 17 19 17 -3 1 -27 -13 -53 -30z"/>
 <path d="M2842 1210 c3 -8 56 -170 119 -359 126 -382 138 -405 227 -431 100 -31 212 55 212 162 0 31 -188 613 -196 606 -1 -2 39 -134 91 -293 52 -160 95 -301 95 -315 -1 -44 -36 -106 -74 -129 -74 -46 -185 -20 -222 52 -9 17 -67 183 -130 370 -62 187 -116 342 -120 346 -4 3 -5 -1 -2 -9z"/>
 <path d="M2208 843 c17 -2 47 -2 65 0 17 2 3 4 -33 4 -36 0 -50 -2 -32 -4z"/>
 </g>
<g id="layer106" fill="#949fad" stroke="none">
 <path d="M1566 4889 c-74 -18 -147 -99 -145 -161 1 -25 4 -19 13 24 8 37 63 98 103 114 18 8 54 14 81 14 61 0 132 -43 161 -97 11 -21 20 -34 21 -30 1 27 -59 101 -100 122 -37 19 -90 24 -134 14z"/>
 <path d="M3785 4891 c-81 -20 -136 -74 -154 -151 -14 -58 -14 -1009 -1 -1067 12 -53 131 -375 136 -370 3 2 -25 86 -61 186 l-65 183 0 533 c0 353 4 543 11 562 13 34 55 80 91 99 32 17 115 18 155 3 40 -15 73 -48 94 -94 17 -37 19 -75 19 -537 l0 -497 56 -151 c31 -83 58 -149 60 -147 3 2 -21 73 -51 157 l-55 152 0 498 0 497 -23 44 c-39 72 -136 118 -212 100z"/>
 <path d="M2695 4865 c-51 -31 -86 -83 -92 -137 -3 -24 12 -229 31 -456 l36 -414 -66 -124 c-36 -68 -63 -124 -61 -124 3 0 35 55 72 123 l66 122 -37 436 c-33 382 -36 440 -24 469 20 49 59 91 105 111 22 10 33 19 25 19 -8 0 -33 -11 -55 -25z"/>
 <path d="M2907 4851 c68 -49 72 -67 108 -455 18 -193 33 -340 34 -326 2 47 -51 645 -61 685 -10 40 -85 125 -110 125 -6 0 7 -13 29 -29z"/>
 <path d="M1422 4650 c0 -19 2 -27 5 -17 2 9 2 25 0 35 -3 9 -5 1 -5 -18z"/>
 <path d="M1812 4630 c0 -19 2 -27 5 -17 2 9 2 25 0 35 -3 9 -5 1 -5 -18z"/>
 <path d="M1432 4570 c0 -19 2 -27 5 -17 2 9 2 25 0 35 -3 9 -5 1 -5 -18z"/>
 <path d="M1822 4550 c0 -19 2 -27 5 -17 2 9 2 25 0 35 -3 9 -5 1 -5 -18z"/>
 <path d="M1442 4490 c0 -19 2 -27 5 -17 2 9 2 25 0 35 -3 9 -5 1 -5 -18z"/>
 <path d="M1833 4465 c0 -22 2 -30 4 -17 2 12 2 30 0 40 -3 9 -5 -1 -4 -23z"/>
 <path d="M1843 4385 c0 -22 2 -30 4 -17 2 12 2 30 0 40 -3 9 -5 -1 -4 -23z"/>
 <path d="M1462 4320 c0 -19 2 -27 5 -17 2 9 2 25 0 35 -3 9 -5 1 -5 -18z"/>
 <path d="M1852 4300 c0 -19 2 -27 5 -17 2 9 2 25 0 35 -3 9 -5 1 -5 -18z"/>
 <path d="M1472 4240 c0 -19 2 -27 5 -17 2 9 2 25 0 35 -3 9 -5 1 -5 -18z"/>
 <path d="M1863 4225 c0 -22 2 -30 4 -17 2 12 2 30 0 40 -3 9 -5 -1 -4 -23z"/>
 <path d="M1482 4160 c0 -19 2 -27 5 -17 2 9 2 25 0 35 -3 9 -5 1 -5 -18z"/>
 <path d="M1871 4160 c0 -14 8 -93 19 -177 18 -144 23 -162 99 -360 114 -299 124 -324 128 -320 2 2 -42 124 -97 271 -99 263 -101 271 -120 424 -22 172 -27 200 -29 162z"/>
 <path d="M5475 4170 c-25 -11 1 -11 35 0 20 6 21 8 5 8 -11 0 -29 -3 -40 -8z"/>
 <path d="M5585 4171 c70 -17 119 -59 144 -122 5 -13 10 -18 10 -11 3 54 -100 144 -161 141 -19 -1 -18 -2 7 -8z"/>
 <path d="M5173 4088 c-139 -39 -251 -73 -249 -76 4 -4 518 136 525 144 11 11 -43 -3 -276 -68z"/>
 <path d="M1493 4085 c0 -22 2 -30 4 -17 2 12 2 30 0 40 -3 9 -5 -1 -4 -23z"/>
 <path d="M3053 3990 c0 -30 2 -43 4 -27 2 15 2 39 0 55 -2 15 -4 2 -4 -28z"/>
 <path d="M1502 4000 c0 -19 2 -27 5 -17 2 9 2 25 0 35 -3 9 -5 1 -5 -18z"/>
 <path d="M5743 3985 c0 -22 2 -30 4 -17 2 12 2 30 0 40 -3 9 -5 -1 -4 -23z"/>
 <path d="M4865 4000 c-13 -5 -14 -9 -5 -9 8 0 24 4 35 9 13 5 14 9 5 9 -8 0 -24 -4 -35 -9z"/>
 <path d="M1510 3929 c0 -97 33 -217 124 -457 l96 -253 0 -550 c0 -433 -3 -549 -12 -549 -7 0 -70 16 -140 34 l-128 34 -9 -36 c-6 -20 -23 -91 -40 -156 -16 -65 -34 -122 -40 -125 -5 -4 115 -42 267 -86 l277 -79 268 -4 268 -4 132 -146 c73 -81 159 -174 191 -207 l59 -60 -57 64 c-31 35 -56 67 -54 71 2 4 54 56 116 115 l113 108 37 -34 c20 -18 7 -2 -29 36 -115 123 -255 279 -272 305 -15 22 -17 74 -17 532 l0 508 40 80 c50 99 45 106 -6 10 l-37 -71 -23 57 c-41 102 -100 142 -220 151 l-73 6 60 113 c33 63 58 114 56 114 -3 0 -33 -52 -67 -115 l-61 -115 -77 6 c-42 3 -85 7 -94 9 -10 2 -18 -1 -18 -6 0 -12 -351 -12 -382 0 -35 13 -213 499 -229 626 -11 89 -19 120 -19 74z m839 -2062 c45 -30 78 -79 83 -122 l3 -30 -179 -3 c-99 -1 -183 1 -188 6 -11 11 10 70 40 111 54 73 162 90 241 38z"/>
 <path d="M5730 3929 c0 -27 -51 -89 -88 -107 -20 -11 -99 -36 -174 -57 -76 -21 -136 -40 -134 -43 2 -2 72 15 154 38 123 34 158 48 190 76 39 33 71 89 58 101 -3 3 -6 0 -6 -8z"/>
 <path d="M4606 3909 c-14 -11 -31 -30 -37 -42 -9 -20 -8 -20 9 2 11 13 30 32 43 42 13 10 21 19 18 19 -4 0 -18 -9 -33 -21z"/>
 <path d="M3063 3875 c0 -27 2 -38 4 -22 2 15 2 37 0 50 -2 12 -4 0 -4 -28z"/>
 <path d="M3057 3771 c-4 -16 -30 -74 -60 -128 -97 -176 -160 -298 -150 -288 20 19 214 386 220 415 3 17 3 30 1 30 -3 0 -8 -13 -11 -29z"/>
 <path d="M5275 3710 c-13 -5 -14 -9 -5 -9 8 0 24 4 35 9 13 5 14 9 5 9 -8 0 -24 -4 -35 -9z"/>
 <path d="M2495 3530 c-9 -16 -13 -30 -11 -30 3 0 12 14 21 30 9 17 13 30 11 30 -3 0 -12 -13 -21 -30z"/>
 <path d="M4436 3444 c-4 -14 -5 -28 -3 -31 3 -2 8 8 11 23 4 14 5 28 3 31 -3 2 -8 -8 -11 -23z"/>
 <path d="M4146 3380 c3 -14 11 -32 16 -40 6 -10 7 -7 2 10 -3 14 -11 32 -16 40 -6 10 -7 7 -2 -10z"/>
 <path d="M4397 3313 c-14 -49 -33 -114 -42 -145 -15 -53 -19 -58 -53 -68 -42 -11 -45 -9 -62 43 -7 21 -14 36 -16 34 -2 -2 3 -23 11 -47 8 -24 14 -44 13 -45 -6 -5 -339 -85 -351 -85 -8 0 -19 10 -26 23 -9 17 -10 17 -5 2 6 -21 171 -1084 181 -1170 l5 -50 -188 -267 c-231 -327 -234 -331 -234 -388 0 -93 68 -758 80 -781 34 -65 87 -99 155 -99 57 0 96 19 130 64 44 58 44 48 -6 559 l-21 209 33 46 c17 26 49 70 69 97 20 28 91 127 158 220 l120 170 196 29 196 28 82 -53 c46 -29 128 -82 183 -119 55 -37 105 -69 110 -71 30 -12 243 -159 247 -170 3 -8 52 -142 108 -299 57 -157 112 -298 123 -314 23 -33 88 -65 132 -66 83 0 164 81 165 165 0 43 -224 681 -257 731 -15 23 -284 207 -580 397 -46 29 -74 55 -78 69 -14 62 -185 1201 -187 1245 -1 25 -4 29 -12 18 -10 -12 -414 -121 -422 -113 -1 2 15 66 37 142 22 76 38 140 36 142 -2 2 -16 -35 -30 -83z"/>
 <path d="M3776 3270 c4 -14 13 -38 20 -55 11 -24 13 -25 8 -5 -4 14 -13 39 -20 55 -11 24 -13 25 -8 5z"/>
 <path d="M2775 3230 c-9 -16 -13 -30 -11 -30 3 0 12 14 21 30 9 17 13 30 11 30 -3 0 -12 -13 -21 -30z"/>
 <path d="M4196 3240 c3 -14 11 -32 16 -40 6 -10 7 -7 2 10 -3 14 -11 32 -16 40 -6 10 -7 7 -2 -10z"/>
 <path d="M3826 3130 c3 -14 11 -32 16 -40 6 -10 7 -7 2 10 -3 14 -11 32 -16 40 -6 10 -7 7 -2 -10z"/>
 <path d="M1158 2253 c12 -2 30 -2 40 0 9 3 -1 5 -23 4 -22 0 -30 -2 -17 -4z"/>
 <path d="M1044 2198 l-29 -33 33 29 c17 17 32 31 32 33 0 8 -8 1 -36 -29z"/>
 <path d="M950 2080 c-33 -44 -59 -80 -56 -80 3 0 33 36 66 80 33 44 59 80 56 80 -3 0 -33 -36 -66 -80z"/>
 <path d="M1211 1868 l-22 -33 24 26 c13 14 30 29 38 32 11 4 11 6 -2 6 -8 1 -25 -14 -38 -31z"/>
 <path d="M679 1723 c-29 -35 -41 -53 -36 -53 2 0 17 16 31 35 28 36 31 49 5 18z"/>
 <path d="M613 1575 c0 -27 2 -38 4 -22 2 15 2 37 0 50 -2 12 -4 0 -4 -28z"/>
 <path d="M941 1515 c-54 -69 -83 -89 -146 -101 -22 -4 -35 -9 -28 -11 19 -7 89 16 117 38 25 20 122 139 112 139 -2 0 -27 -29 -55 -65z"/>
 <path d="M2223 1573 c15 -2 37 -2 50 0 12 2 0 4 -28 4 -27 0 -38 -2 -22 -4z"/>
 <path d="M3050 1528 c41 -45 50 -53 50 -45 0 2 -21 23 -47 47 l-48 45 45 -47z"/>
 <path d="M4440 1533 c-90 -31 -161 -94 -207 -183 -25 -50 -28 -64 -28 -160 0 -90 4 -112 24 -152 60 -122 172 -197 306 -206 209 -13 385 151 385 359 0 104 -63 232 -142 289 -92 67 -235 89 -338 53z"/>
 <path d="M620 1512 c0 -30 86 -102 122 -102 7 0 -8 10 -32 23 -25 12 -55 37 -67 56 -13 19 -23 29 -23 23z"/>
 <path d="M2500 1465 c19 -22 43 -51 53 -65 17 -24 17 -24 0 8 -10 18 -33 47 -52 65 l-35 32 34 -40z"/>
 <path d="M1974 1468 c-31 -36 -47 -58 -41 -58 3 0 20 18 37 40 34 43 36 55 4 18z"/>
 <path d="M2597 1270 c3 -30 7 -57 9 -59 8 -9 2 75 -6 94 -5 12 -6 -1 -3 -35z"/>
 <path d="M1873 1210 c0 -30 2 -43 4 -27 2 15 2 39 0 55 -2 15 -4 2 -4 -28z"/>
 <path d="M2601 1175 c0 -17 -5 -46 -11 -64 -5 -19 -8 -37 -5 -39 8 -8 26 80 22 106 -4 26 -4 26 -6 -3z"/>
 <path d="M2495 948 l-40 -43 43 40 c23 21 42 40 42 42 0 8 -9 0 -45 -39z"/>
 <path d="M1950 977 c0 -2 15 -16 33 -33 l32 -29 -29 33 c-28 30 -36 37 -36 29z"/>
 <path d="M2208 843 c17 -2 47 -2 65 0 17 2 3 4 -33 4 -36 0 -50 -2 -32 -4z"/>
 <path d="M3375 510 c-3 -11 -23 -34 -43 -51 -20 -17 -27 -26 -16 -20 24 12 74 67 74 82 0 16 -8 10 -15 -11z"/>
 <path d="M3105 472 c11 -13 29 -28 40 -34 21 -11 18 -8 -30 32 -29 24 -29 24 -10 2z"/>
 <path d="M3198 416 c19 -5 45 -5 64 0 27 8 23 9 -32 9 -55 0 -59 -1 -32 -9z"/>
 </g>
<g id="layer107" fill="#64afff" stroke="none">
 <path d="M2910 4857 c0 -2 15 -16 33 -33 l32 -29 -29 33 c-28 30 -36 37 -36 29z"/>
 <path d="M3978 4806 c15 -24 29 -42 31 -40 4 4 -47 84 -54 84 -2 0 8 -20 23 -44z"/>
 <path d="M4015 4250 c0 -278 1 -391 2 -253 2 139 2 367 0 505 -1 139 -2 26 -2 -252z"/>
 <path d="M2992 4700 c0 -19 2 -27 5 -17 2 9 2 25 0 35 -3 9 -5 1 -5 -18z"/>
 <path d="M3625 4205 c0 -280 1 -397 2 -258 2 138 2 368 0 510 -1 142 -2 29 -2 -252z"/>
 <path d="M2602 4650 c0 -19 2 -27 5 -17 2 9 2 25 0 35 -3 9 -5 1 -5 -18z"/>
 <path d="M3003 4595 c0 -22 2 -30 4 -17 2 12 2 30 0 40 -3 9 -5 -1 -4 -23z"/>
 <path d="M2612 4530 c0 -19 2 -27 5 -17 2 9 2 25 0 35 -3 9 -5 1 -5 -18z"/>
 <path d="M3013 4475 c0 -22 2 -30 4 -17 2 12 2 30 0 40 -3 9 -5 -1 -4 -23z"/>
 <path d="M2623 4415 c0 -22 2 -30 4 -17 2 12 2 30 0 40 -3 9 -5 -1 -4 -23z"/>
 <path d="M3022 4360 c0 -19 2 -27 5 -17 2 9 2 25 0 35 -3 9 -5 1 -5 -18z"/>
 <path d="M2632 4300 c0 -19 2 -27 5 -17 2 9 2 25 0 35 -3 9 -5 1 -5 -18z"/>
 <path d="M3032 4240 c0 -19 2 -27 5 -17 2 9 2 25 0 35 -3 9 -5 1 -5 -18z"/>
 <path d="M2643 4185 c0 -22 2 -30 4 -17 2 12 2 30 0 40 -3 9 -5 -1 -4 -23z"/>
 <path d="M3042 4130 c0 -19 2 -27 5 -17 2 9 2 25 0 35 -3 9 -5 1 -5 -18z"/>
 <path d="M5660 4147 c0 -2 15 -16 33 -33 l32 -29 -29 33 c-28 30 -36 37 -36 29z"/>
 <path d="M2653 4070 c0 -25 2 -35 4 -22 2 12 2 32 0 45 -2 12 -4 2 -4 -23z"/>
 <path d="M5075 4060 c-13 -5 -14 -9 -5 -9 8 0 24 4 35 9 13 5 14 9 5 9 -8 0 -24 -4 -35 -9z"/>
 <path d="M1892 4000 c0 -19 2 -27 5 -17 2 9 2 25 0 35 -3 9 -5 1 -5 -18z"/>
 <path d="M5743 3985 c0 -22 2 -30 4 -17 2 12 2 30 0 40 -3 9 -5 -1 -4 -23z"/>
 <path d="M2663 3960 c0 -25 2 -35 4 -22 2 12 2 32 0 45 -2 12 -4 2 -4 -23z"/>
 <path d="M1902 3930 c0 -19 2 -27 5 -17 2 9 2 25 0 35 -3 9 -5 1 -5 -18z"/>
 <path d="M5684 3848 l-29 -33 33 29 c17 17 32 31 32 33 0 8 -8 1 -36 -29z"/>
 <path d="M1910 3854 c0 -10 5 -26 10 -34 8 -11 9 -7 4 15 -8 37 -14 45 -14 19z"/>
 <path d="M2965 3580 c-9 -16 -13 -30 -11 -30 3 0 12 14 21 30 9 17 13 30 11 30 -3 0 -12 -13 -21 -30z"/>
 <path d="M3656 3590 c3 -14 11 -32 16 -40 6 -10 7 -7 2 10 -3 14 -11 32 -16 40 -6 10 -7 7 -2 -10z"/>
 <path d="M3696 3480 c3 -14 11 -32 16 -40 6 -10 7 -7 2 10 -3 14 -11 32 -16 40 -6 10 -7 7 -2 -10z"/>
 <path d="M1636 3470 c3 -14 11 -32 16 -40 6 -10 7 -7 2 10 -3 14 -11 32 -16 40 -6 10 -7 7 -2 -10z"/>
 <path d="M2895 3450 c-9 -16 -13 -30 -11 -30 3 0 12 14 21 30 9 17 13 30 11 30 -3 0 -12 -13 -21 -30z"/>
 <path d="M1666 3390 c3 -14 11 -32 16 -40 6 -10 7 -7 2 10 -3 14 -11 32 -16 40 -6 10 -7 7 -2 -10z"/>
 <path d="M2370 3300 c-11 -22 -18 -40 -15 -40 2 0 14 18 25 40 11 22 18 40 15 40 -2 0 -14 -18 -25 -40z"/>
 <path d="M4396 3314 c-4 -14 -5 -28 -3 -31 3 -2 8 8 11 23 4 14 5 28 3 31 -3 2 -8 -8 -11 -23z"/>
 <path d="M4376 3244 c-4 -14 -5 -28 -3 -31 3 -2 8 8 11 23 4 14 5 28 3 31 -3 2 -8 -8 -11 -23z"/>
 <path d="M1728 2684 c2 -452 0 -564 -10 -564 -7 0 -70 16 -140 34 l-128 34 -9 -36 c-6 -20 -23 -91 -40 -156 -16 -65 -34 -122 -40 -125 -5 -4 115 -42 267 -86 l277 -79 268 -4 268 -4 132 -146 c73 -81 159 -174 191 -207 l59 -60 -57 64 c-31 35 -56 67 -54 71 2 4 54 56 116 115 l113 108 37 -34 c20 -18 7 -2 -29 36 -115 123 -255 279 -272 305 -15 22 -17 74 -17 533 0 434 2 513 15 540 15 30 15 31 -1 9 -17 -23 -17 -23 -40 34 -26 65 -55 99 -104 124 -44 22 -84 28 -245 36 -71 3 -133 8 -137 11 -5 2 -8 -1 -8 -7 0 -16 -398 -10 -408 7 -4 6 -6 -243 -4 -553z m621 -817 c45 -30 78 -79 83 -122 l3 -30 -179 -3 c-99 -1 -183 1 -188 6 -11 11 10 70 40 111 54 73 162 90 241 38z"/>
 <path d="M4551 3159 c-154 -40 -196 -47 -202 -37 -6 9 -9 10 -9 1 0 -13 -68 -36 -81 -28 -4 3 -9 1 -11 -4 -1 -5 -84 -30 -183 -55 -134 -33 -182 -42 -188 -33 -4 7 -5 1 -2 -13 8 -38 167 -1088 172 -1140 5 -45 4 -46 -183 -312 -231 -327 -234 -331 -234 -388 0 -93 68 -758 80 -781 34 -65 87 -99 155 -99 57 0 96 19 130 64 44 58 44 48 -6 559 l-21 209 33 46 c17 26 49 70 69 97 20 28 91 127 158 220 l120 170 196 29 196 28 82 -53 c46 -29 128 -82 183 -119 55 -37 105 -69 110 -71 30 -12 243 -159 247 -170 3 -8 52 -142 108 -299 57 -157 112 -298 123 -314 23 -33 88 -65 132 -66 83 0 164 81 165 165 0 43 -224 681 -257 731 -15 23 -284 207 -580 397 -46 29 -74 55 -78 69 -6 28 -133 855 -166 1086 -22 149 -25 162 -44 161 -11 0 -107 -23 -214 -50z"/>
 <path d="M1158 2253 c12 -2 30 -2 40 0 9 3 -1 5 -23 4 -22 0 -30 -2 -17 -4z"/>
 <path d="M1044 2198 l-29 -33 33 29 c17 17 32 31 32 33 0 8 -8 1 -36 -29z"/>
 <path d="M950 2080 c-33 -44 -59 -80 -56 -80 3 0 33 36 66 80 33 44 59 80 56 80 -3 0 -33 -36 -66 -80z"/>
 <path d="M1211 1868 l-22 -33 24 26 c13 14 30 29 38 32 11 4 11 6 -2 6 -8 1 -25 -14 -38 -31z"/>
 <path d="M679 1723 c-29 -35 -41 -53 -36 -53 2 0 17 16 31 35 28 36 31 49 5 18z"/>
 <path d="M613 1575 c0 -27 2 -38 4 -22 2 15 2 37 0 50 -2 12 -4 0 -4 -28z"/>
 <path d="M941 1515 c-54 -69 -83 -89 -146 -101 -22 -4 -35 -9 -28 -11 19 -7 89 16 117 38 25 20 122 139 112 139 -2 0 -27 -29 -55 -65z"/>
 <path d="M2223 1573 c15 -2 37 -2 50 0 12 2 0 4 -28 4 -27 0 -38 -2 -22 -4z"/>
 <path d="M3050 1528 c41 -45 50 -53 50 -45 0 2 -21 23 -47 47 l-48 45 45 -47z"/>
 <path d="M4440 1533 c-90 -31 -161 -94 -207 -183 -25 -50 -28 -64 -28 -160 0 -90 4 -112 24 -152 60 -122 172 -197 306 -206 209 -13 385 151 385 359 0 104 -63 232 -142 289 -92 67 -235 89 -338 53z"/>
 <path d="M620 1512 c0 -30 86 -102 122 -102 7 0 -8 10 -32 23 -25 12 -55 37 -67 56 -13 19 -23 29 -23 23z"/>
 <path d="M2500 1465 c19 -22 43 -51 53 -65 17 -24 17 -24 0 8 -10 18 -33 47 -52 65 l-35 32 34 -40z"/>
 <path d="M1974 1468 c-31 -36 -47 -58 -41 -58 3 0 20 18 37 40 34 43 36 55 4 18z"/>
 <path d="M2597 1270 c3 -30 7 -57 9 -59 8 -9 2 75 -6 94 -5 12 -6 -1 -3 -35z"/>
 <path d="M1873 1210 c0 -30 2 -43 4 -27 2 15 2 39 0 55 -2 15 -4 2 -4 -28z"/>
 <path d="M2601 1175 c0 -17 -5 -46 -11 -64 -5 -19 -8 -37 -5 -39 8 -8 26 80 22 106 -4 26 -4 26 -6 -3z"/>
 <path d="M2495 948 l-40 -43 43 40 c23 21 42 40 42 42 0 8 -9 0 -45 -39z"/>
 <path d="M1950 977 c0 -2 15 -16 33 -33 l32 -29 -29 33 c-28 30 -36 37 -36 29z"/>
 <path d="M2208 843 c17 -2 47 -2 65 0 17 2 3 4 -33 4 -36 0 -50 -2 -32 -4z"/>
 <path d="M3375 510 c-3 -11 -23 -34 -43 -51 -20 -17 -27 -26 -16 -20 24 12 74 67 74 82 0 16 -8 10 -15 -11z"/>
 <path d="M3105 472 c11 -13 29 -28 40 -34 21 -11 18 -8 -30 32 -29 24 -29 24 -10 2z"/>
 <path d="M3198 416 c19 -5 45 -5 64 0 27 8 23 9 -32 9 -55 0 -59 -1 -32 -9z"/>
 </g>
<g id="layer108" fill="#ffda52" stroke="none">
 <path d="M2910 4857 c0 -2 15 -16 33 -33 l32 -29 -29 33 c-28 30 -36 37 -36 29z"/>
 <path d="M3978 4806 c15 -24 29 -42 31 -40 4 4 -47 84 -54 84 -2 0 8 -20 23 -44z"/>
 <path d="M4015 4250 c0 -278 1 -391 2 -253 2 139 2 367 0 505 -1 139 -2 26 -2 -252z"/>
 <path d="M2992 4700 c0 -19 2 -27 5 -17 2 9 2 25 0 35 -3 9 -5 1 -5 -18z"/>
 <path d="M3625 4205 c0 -280 1 -397 2 -258 2 138 2 368 0 510 -1 142 -2 29 -2 -252z"/>
 <path d="M2602 4650 c0 -19 2 -27 5 -17 2 9 2 25 0 35 -3 9 -5 1 -5 -18z"/>
 <path d="M3003 4595 c0 -22 2 -30 4 -17 2 12 2 30 0 40 -3 9 -5 -1 -4 -23z"/>
 <path d="M2612 4530 c0 -19 2 -27 5 -17 2 9 2 25 0 35 -3 9 -5 1 -5 -18z"/>
 <path d="M3013 4475 c0 -22 2 -30 4 -17 2 12 2 30 0 40 -3 9 -5 -1 -4 -23z"/>
 <path d="M2623 4415 c0 -22 2 -30 4 -17 2 12 2 30 0 40 -3 9 -5 -1 -4 -23z"/>
 <path d="M3022 4360 c0 -19 2 -27 5 -17 2 9 2 25 0 35 -3 9 -5 1 -5 -18z"/>
 <path d="M2632 4300 c0 -19 2 -27 5 -17 2 9 2 25 0 35 -3 9 -5 1 -5 -18z"/>
 <path d="M3032 4240 c0 -19 2 -27 5 -17 2 9 2 25 0 35 -3 9 -5 1 -5 -18z"/>
 <path d="M2643 4185 c0 -22 2 -30 4 -17 2 12 2 30 0 40 -3 9 -5 -1 -4 -23z"/>
 <path d="M3042 4130 c0 -19 2 -27 5 -17 2 9 2 25 0 35 -3 9 -5 1 -5 -18z"/>
 <path d="M5660 4147 c0 -2 15 -16 33 -33 l32 -29 -29 33 c-28 30 -36 37 -36 29z"/>
 <path d="M2653 4070 c0 -25 2 -35 4 -22 2 12 2 32 0 45 -2 12 -4 2 -4 -23z"/>
 <path d="M5075 4060 c-13 -5 -14 -9 -5 -9 8 0 24 4 35 9 13 5 14 9 5 9 -8 0 -24 -4 -35 -9z"/>
 <path d="M1892 4000 c0 -19 2 -27 5 -17 2 9 2 25 0 35 -3 9 -5 1 -5 -18z"/>
 <path d="M5743 3985 c0 -22 2 -30 4 -17 2 12 2 30 0 40 -3 9 -5 -1 -4 -23z"/>
 <path d="M2663 3960 c0 -25 2 -35 4 -22 2 12 2 32 0 45 -2 12 -4 2 -4 -23z"/>
 <path d="M1902 3930 c0 -19 2 -27 5 -17 2 9 2 25 0 35 -3 9 -5 1 -5 -18z"/>
 <path d="M5684 3848 l-29 -33 33 29 c17 17 32 31 32 33 0 8 -8 1 -36 -29z"/>
 <path d="M1910 3854 c0 -10 5 -26 10 -34 8 -11 9 -7 4 15 -8 37 -14 45 -14 19z"/>
 <path d="M2965 3580 c-9 -16 -13 -30 -11 -30 3 0 12 14 21 30 9 17 13 30 11 30 -3 0 -12 -13 -21 -30z"/>
 <path d="M3656 3590 c3 -14 11 -32 16 -40 6 -10 7 -7 2 10 -3 14 -11 32 -16 40 -6 10 -7 7 -2 -10z"/>
 <path d="M3696 3480 c3 -14 11 -32 16 -40 6 -10 7 -7 2 10 -3 14 -11 32 -16 40 -6 10 -7 7 -2 -10z"/>
 <path d="M1636 3470 c3 -14 11 -32 16 -40 6 -10 7 -7 2 10 -3 14 -11 32 -16 40 -6 10 -7 7 -2 -10z"/>
 <path d="M2895 3450 c-9 -16 -13 -30 -11 -30 3 0 12 14 21 30 9 17 13 30 11 30 -3 0 -12 -13 -21 -30z"/>
 <path d="M1666 3390 c3 -14 11 -32 16 -40 6 -10 7 -7 2 10 -3 14 -11 32 -16 40 -6 10 -7 7 -2 -10z"/>
 <path d="M2370 3300 c-11 -22 -18 -40 -15 -40 2 0 14 18 25 40 11 22 18 40 15 40 -2 0 -14 -18 -25 -40z"/>
 <path d="M4396 3314 c-4 -14 -5 -28 -3 -31 3 -2 8 8 11 23 4 14 5 28 3 31 -3 2 -8 -8 -11 -23z"/>
 <path d="M4376 3244 c-4 -14 -5 -28 -3 -31 3 -2 8 8 11 23 4 14 5 28 3 31 -3 2 -8 -8 -11 -23z"/>
 <path d="M1728 2684 c2 -452 0 -564 -10 -564 -7 0 -70 16 -140 34 l-128 34 -9 -36 c-6 -20 -23 -91 -40 -156 -16 -65 -34 -122 -40 -125 -5 -4 115 -42 267 -86 l277 -79 268 -4 268 -4 132 -146 c73 -81 159 -174 191 -207 l59 -60 -57 64 c-31 35 -56 67 -54 71 2 4 54 56 116 115 l113 108 37 -34 c20 -18 7 -2 -29 36 -115 123 -255 279 -272 305 -15 22 -17 74 -17 533 0 434 2 513 15 540 15 30 15 31 -1 9 -17 -23 -17 -23 -40 34 -26 65 -55 99 -104 124 -44 22 -84 28 -245 36 -71 3 -133 8 -137 11 -5 2 -8 -1 -8 -7 0 -16 -398 -10 -408 7 -4 6 -6 -243 -4 -553z m621 -817 c45 -30 78 -79 83 -122 l3 -30 -179 -3 c-99 -1 -183 1 -188 6 -11 11 10 70 40 111 54 73 162 90 241 38z"/>
 <path d="M4340 3120 c0 -11 -69 -32 -82 -24 -4 3 -8 0 -8 -5 0 -14 1 -14 56 0 25 7 44 17 44 25 0 8 -2 14 -5 14 -3 0 -5 -4 -5 -10z"/>
 <path d="M3942 2570 c0 -14 5 -59 12 -100 8 -41 14 -64 14 -50 0 14 -5 59 -12 100 -8 41 -14 64 -14 50z"/>
 <path d="M3971 2380 c-2 -25 73 -504 77 -492 3 10 -65 475 -73 497 -2 6 -4 3 -4 -5z"/>
 <path d="M1158 2253 c12 -2 30 -2 40 0 9 3 -1 5 -23 4 -22 0 -30 -2 -17 -4z"/>
 <path d="M1044 2198 l-29 -33 33 29 c17 17 32 31 32 33 0 8 -8 1 -36 -29z"/>
 <path d="M950 2080 c-33 -44 -59 -80 -56 -80 3 0 33 36 66 80 33 44 59 80 56 80 -3 0 -33 -36 -66 -80z"/>
 <path d="M4952 2060 c0 -19 2 -27 5 -17 2 9 2 25 0 35 -3 9 -5 1 -5 -18z"/>
 <path d="M1211 1868 l-22 -33 24 26 c13 14 30 29 38 32 11 4 11 6 -2 6 -8 1 -25 -14 -38 -31z"/>
 <path d="M5070 1877 c0 -2 50 -37 110 -77 68 -45 109 -78 106 -86 -11 -27 -161 -254 -169 -254 -5 0 -27 13 -50 28 -54 36 -67 44 -67 39 0 -5 70 -53 105 -72 63 -35 253 -165 257 -176 3 -8 52 -142 108 -299 57 -157 112 -298 123 -314 23 -33 88 -65 132 -66 83 0 164 81 165 165 0 44 -224 681 -257 732 -10 14 -135 104 -278 198 -287 189 -285 188 -285 182z"/>
 <path d="M4052 1838 c-2 -29 -19 -61 -78 -144 -41 -58 -71 -103 -66 -100 6 3 42 52 81 107 63 89 72 106 68 138 l-4 36 -1 -37z"/>
 <path d="M4423 1805 c-45 -27 -83 -91 -83 -139 0 -15 -14 -47 -30 -72 -17 -24 -29 -44 -26 -44 3 0 18 19 34 43 l30 43 171 24 c192 27 190 25 132 100 -57 72 -151 91 -228 45z"/>
 <path d="M679 1723 c-29 -35 -41 -53 -36 -53 2 0 17 16 31 35 28 36 31 49 5 18z"/>
 <path d="M4700 1696 c0 -2 13 -6 29 -8 17 -2 28 -1 25 4 -5 8 -54 12 -54 4z"/>
 <path d="M613 1575 c0 -27 2 -38 4 -22 2 15 2 37 0 50 -2 12 -4 0 -4 -28z"/>
 <path d="M941 1515 c-54 -69 -83 -89 -146 -101 -22 -4 -35 -9 -28 -11 19 -7 89 16 117 38 25 20 122 139 112 139 -2 0 -27 -29 -55 -65z"/>
 <path d="M2223 1573 c15 -2 37 -2 50 0 12 2 0 4 -28 4 -27 0 -38 -2 -22 -4z"/>
 <path d="M3050 1528 c41 -45 50 -53 50 -45 0 2 -21 23 -47 47 l-48 45 45 -47z"/>
 <path d="M4440 1533 c-90 -31 -161 -94 -207 -183 -25 -50 -28 -64 -28 -160 0 -90 4 -112 24 -152 60 -122 172 -197 306 -206 209 -13 385 151 385 359 0 104 -63 232 -142 289 -92 67 -235 89 -338 53z"/>
 <path d="M4250 1510 c-12 -16 -19 -30 -16 -30 2 0 14 14 26 30 12 17 19 30 16 30 -2 0 -14 -13 -26 -30z"/>
 <path d="M620 1512 c0 -30 86 -102 122 -102 7 0 -8 10 -32 23 -25 12 -55 37 -67 56 -13 19 -23 29 -23 23z"/>
 <path d="M2500 1465 c19 -22 43 -51 53 -65 17 -24 17 -24 0 8 -10 18 -33 47 -52 65 l-35 32 34 -40z"/>
 <path d="M1974 1468 c-31 -36 -47 -58 -41 -58 3 0 20 18 37 40 34 43 36 55 4 18z"/>
 <path d="M3745 1368 c-104 -146 -114 -164 -114 -218 -1 -90 67 -758 79 -781 18 -35 51 -69 82 -85 35 -18 111 -18 148 1 43 22 82 79 87 128 2 23 -7 161 -21 307 -14 146 -28 292 -31 325 -6 59 -6 61 42 126 26 37 59 82 72 100 21 29 22 31 4 16 -21 -18 -23 -17 -145 74 -67 51 -122 98 -122 106 1 7 1 13 0 13 -1 0 -38 -50 -81 -112z"/>
 <path d="M4150 1370 c-12 -16 -19 -30 -16 -30 2 0 14 14 26 30 12 17 19 30 16 30 -2 0 -14 -13 -26 -30z"/>
 <path d="M2597 1270 c3 -30 7 -57 9 -59 8 -9 2 75 -6 94 -5 12 -6 -1 -3 -35z"/>
 <path d="M1873 1210 c0 -30 2 -43 4 -27 2 15 2 39 0 55 -2 15 -4 2 -4 -28z"/>
 <path d="M2601 1175 c0 -17 -5 -46 -11 -64 -5 -19 -8 -37 -5 -39 8 -8 26 80 22 106 -4 26 -4 26 -6 -3z"/>
 <path d="M2495 948 l-40 -43 43 40 c23 21 42 40 42 42 0 8 -9 0 -45 -39z"/>
 <path d="M1950 977 c0 -2 15 -16 33 -33 l32 -29 -29 33 c-28 30 -36 37 -36 29z"/>
 <path d="M2208 843 c17 -2 47 -2 65 0 17 2 3 4 -33 4 -36 0 -50 -2 -32 -4z"/>
 <path d="M3375 510 c-3 -11 -23 -34 -43 -51 -20 -17 -27 -26 -16 -20 24 12 74 67 74 82 0 16 -8 10 -15 -11z"/>
 <path d="M3105 472 c11 -13 29 -28 40 -34 21 -11 18 -8 -30 32 -29 24 -29 24 -10 2z"/>
 <path d="M3198 416 c19 -5 45 -5 64 0 27 8 23 9 -32 9 -55 0 -59 -1 -32 -9z"/>
 </g>
<g id="layer109" fill="#a8bfe0" stroke="none">
 <path d="M2910 4857 c0 -2 15 -16 33 -33 l32 -29 -29 33 c-28 30 -36 37 -36 29z"/>
 <path d="M3978 4806 c15 -24 29 -42 31 -40 4 4 -47 84 -54 84 -2 0 8 -20 23 -44z"/>
 <path d="M4015 4250 c0 -278 1 -391 2 -253 2 139 2 367 0 505 -1 139 -2 26 -2 -252z"/>
 <path d="M2992 4700 c0 -19 2 -27 5 -17 2 9 2 25 0 35 -3 9 -5 1 -5 -18z"/>
 <path d="M3625 4205 c0 -280 1 -397 2 -258 2 138 2 368 0 510 -1 142 -2 29 -2 -252z"/>
 <path d="M2602 4650 c0 -19 2 -27 5 -17 2 9 2 25 0 35 -3 9 -5 1 -5 -18z"/>
 <path d="M3003 4595 c0 -22 2 -30 4 -17 2 12 2 30 0 40 -3 9 -5 -1 -4 -23z"/>
 <path d="M2612 4530 c0 -19 2 -27 5 -17 2 9 2 25 0 35 -3 9 -5 1 -5 -18z"/>
 <path d="M3013 4475 c0 -22 2 -30 4 -17 2 12 2 30 0 40 -3 9 -5 -1 -4 -23z"/>
 <path d="M2623 4415 c0 -22 2 -30 4 -17 2 12 2 30 0 40 -3 9 -5 -1 -4 -23z"/>
 <path d="M3022 4360 c0 -19 2 -27 5 -17 2 9 2 25 0 35 -3 9 -5 1 -5 -18z"/>
 <path d="M2632 4300 c0 -19 2 -27 5 -17 2 9 2 25 0 35 -3 9 -5 1 -5 -18z"/>
 <path d="M3032 4240 c0 -19 2 -27 5 -17 2 9 2 25 0 35 -3 9 -5 1 -5 -18z"/>
 <path d="M2643 4185 c0 -22 2 -30 4 -17 2 12 2 30 0 40 -3 9 -5 -1 -4 -23z"/>
 <path d="M3042 4130 c0 -19 2 -27 5 -17 2 9 2 25 0 35 -3 9 -5 1 -5 -18z"/>
 <path d="M5660 4147 c0 -2 15 -16 33 -33 l32 -29 -29 33 c-28 30 -36 37 -36 29z"/>
 <path d="M2653 4070 c0 -25 2 -35 4 -22 2 12 2 32 0 45 -2 12 -4 2 -4 -23z"/>
 <path d="M5075 4060 c-13 -5 -14 -9 -5 -9 8 0 24 4 35 9 13 5 14 9 5 9 -8 0 -24 -4 -35 -9z"/>
 <path d="M1892 4000 c0 -19 2 -27 5 -17 2 9 2 25 0 35 -3 9 -5 1 -5 -18z"/>
 <path d="M5743 3985 c0 -22 2 -30 4 -17 2 12 2 30 0 40 -3 9 -5 -1 -4 -23z"/>
 <path d="M2663 3960 c0 -25 2 -35 4 -22 2 12 2 32 0 45 -2 12 -4 2 -4 -23z"/>
 <path d="M1902 3930 c0 -19 2 -27 5 -17 2 9 2 25 0 35 -3 9 -5 1 -5 -18z"/>
 <path d="M5684 3848 l-29 -33 33 29 c17 17 32 31 32 33 0 8 -8 1 -36 -29z"/>
 <path d="M1910 3854 c0 -10 5 -26 10 -34 8 -11 9 -7 4 15 -8 37 -14 45 -14 19z"/>
 <path d="M2965 3580 c-9 -16 -13 -30 -11 -30 3 0 12 14 21 30 9 17 13 30 11 30 -3 0 -12 -13 -21 -30z"/>
 <path d="M3656 3590 c3 -14 11 -32 16 -40 6 -10 7 -7 2 10 -3 14 -11 32 -16 40 -6 10 -7 7 -2 -10z"/>
 <path d="M3696 3480 c3 -14 11 -32 16 -40 6 -10 7 -7 2 10 -3 14 -11 32 -16 40 -6 10 -7 7 -2 -10z"/>
 <path d="M1636 3470 c3 -14 11 -32 16 -40 6 -10 7 -7 2 10 -3 14 -11 32 -16 40 -6 10 -7 7 -2 -10z"/>
 <path d="M2895 3450 c-9 -16 -13 -30 -11 -30 3 0 12 14 21 30 9 17 13 30 11 30 -3 0 -12 -13 -21 -30z"/>
 <path d="M1666 3390 c3 -14 11 -32 16 -40 6 -10 7 -7 2 10 -3 14 -11 32 -16 40 -6 10 -7 7 -2 -10z"/>
 <path d="M2370 3300 c-11 -22 -18 -40 -15 -40 2 0 14 18 25 40 11 22 18 40 15 40 -2 0 -14 -18 -25 -40z"/>
 <path d="M4396 3314 c-4 -14 -5 -28 -3 -31 3 -2 8 8 11 23 4 14 5 28 3 31 -3 2 -8 -8 -11 -23z"/>
 <path d="M4376 3244 c-4 -14 -5 -28 -3 -31 3 -2 8 8 11 23 4 14 5 28 3 31 -3 2 -8 -8 -11 -23z"/>
 <path d="M1728 2683 l2 -566 -29 6 c-77 16 -85 16 -46 3 22 -8 50 -15 63 -15 l22 -1 0 558 c0 306 -4 562 -8 569 -4 6 -6 -243 -4 -554z"/>
 <path d="M2140 3228 c0 -5 33 -7 73 -7 76 2 68 6 -21 11 -28 2 -52 0 -52 -4z"/>
 <path d="M4340 3120 c0 -11 -69 -32 -82 -24 -4 3 -8 0 -8 -5 0 -14 1 -14 56 0 25 7 44 17 44 25 0 8 -2 14 -5 14 -3 0 -5 -4 -5 -10z"/>
 <path d="M2666 3025 c-14 -22 -16 -82 -16 -545 l0 -520 63 -63 c34 -35 44 -43 21 -18 -80 90 -74 37 -74 604 0 436 2 512 15 537 19 36 13 39 -9 5z"/>
 <path d="M3942 2570 c0 -14 5 -59 12 -100 8 -41 14 -64 14 -50 0 14 -5 59 -12 100 -8 41 -14 64 -14 50z"/>
 <path d="M3971 2380 c-2 -25 73 -504 77 -492 3 10 -65 475 -73 497 -2 6 -4 3 -4 -5z"/>
 <path d="M1158 2253 c12 -2 30 -2 40 0 9 3 -1 5 -23 4 -22 0 -30 -2 -17 -4z"/>
 <path d="M1044 2198 l-29 -33 33 29 c17 17 32 31 32 33 0 8 -8 1 -36 -29z"/>
 <path d="M1525 2161 c11 -4 36 -11 55 -15 24 -4 29 -3 15 3 -11 4 -36 11 -55 15 -24 4 -29 3 -15 -3z"/>
 <path d="M950 2080 c-33 -44 -59 -80 -56 -80 3 0 33 36 66 80 33 44 59 80 56 80 -3 0 -33 -36 -66 -80z"/>
 <path d="M4952 2060 c0 -19 2 -27 5 -17 2 9 2 25 0 35 -3 9 -5 1 -5 -18z"/>
 <path d="M1211 1868 l-22 -33 24 26 c13 14 30 29 38 32 11 4 11 6 -2 6 -8 1 -25 -14 -38 -31z"/>
 <path d="M5070 1877 c0 -2 50 -37 110 -77 68 -45 109 -78 106 -86 -11 -27 -161 -254 -169 -254 -5 0 -27 13 -50 28 -54 36 -67 44 -67 39 0 -5 70 -53 105 -72 63 -35 253 -165 257 -176 3 -8 52 -142 108 -299 57 -157 112 -298 123 -314 23 -33 88 -65 132 -66 83 0 164 81 165 165 0 44 -224 681 -257 732 -10 14 -135 104 -278 198 -287 189 -285 188 -285 182z"/>
 <path d="M4052 1838 c-2 -29 -19 -61 -78 -144 -41 -58 -71 -103 -66 -100 6 3 42 52 81 107 63 89 72 106 68 138 l-4 36 -1 -37z"/>
 <path d="M1505 1820 c11 -5 27 -9 35 -9 9 0 8 4 -5 9 -11 5 -27 9 -35 9 -9 0 -8 -4 5 -9z"/>
 <path d="M4423 1805 c-45 -27 -83 -91 -83 -139 0 -15 -14 -47 -30 -72 -17 -24 -29 -44 -26 -44 3 0 18 19 34 43 l30 43 171 24 c192 27 190 25 132 100 -57 72 -151 91 -228 45z"/>
 <path d="M2858 1733 c44 -49 97 -104 118 -123 21 -19 -13 20 -76 88 -62 67 -115 122 -118 122 -2 0 32 -39 76 -87z"/>
 <path d="M1575 1801 c11 -4 36 -11 55 -15 24 -4 29 -3 15 3 -11 4 -36 11 -55 15 -24 4 -29 3 -15 -3z"/>
 <path d="M1675 1774 c6 -2 57 -18 115 -35 104 -31 108 -32 375 -36 l270 -5 45 -41 44 -42 -44 50 -45 50 -265 1 -265 0 -110 32 c-96 28 -153 40 -120 26z"/>
 <path d="M679 1723 c-29 -35 -41 -53 -36 -53 2 0 17 16 31 35 28 36 31 49 5 18z"/>
 <path d="M4700 1696 c0 -2 13 -6 29 -8 17 -2 28 -1 25 4 -5 8 -54 12 -54 4z"/>
 <path d="M613 1575 c0 -27 2 -38 4 -22 2 15 2 37 0 50 -2 12 -4 0 -4 -28z"/>
 <path d="M2662 1455 c69 -78 134 -148 144 -155 10 -8 -38 48 -108 125 -69 78 -134 148 -144 155 -10 8 38 -48 108 -125z"/>
 <path d="M941 1515 c-54 -69 -83 -89 -146 -101 -22 -4 -35 -9 -28 -11 19 -7 89 16 117 38 25 20 122 139 112 139 -2 0 -27 -29 -55 -65z"/>
 <path d="M2223 1573 c15 -2 37 -2 50 0 12 2 0 4 -28 4 -27 0 -38 -2 -22 -4z"/>
 <path d="M3050 1528 c41 -45 50 -53 50 -45 0 2 -21 23 -47 47 l-48 45 45 -47z"/>
 <path d="M4440 1533 c-90 -31 -161 -94 -207 -183 -25 -50 -28 -64 -28 -160 0 -90 4 -112 24 -152 60 -122 172 -197 306 -206 209 -13 385 151 385 359 0 104 -63 232 -142 289 -92 67 -235 89 -338 53z"/>
 <path d="M4250 1510 c-12 -16 -19 -30 -16 -30 2 0 14 14 26 30 12 17 19 30 16 30 -2 0 -14 -13 -26 -30z"/>
 <path d="M620 1512 c0 -30 86 -102 122 -102 7 0 -8 10 -32 23 -25 12 -55 37 -67 56 -13 19 -23 29 -23 23z"/>
 <path d="M2500 1465 c19 -22 43 -51 53 -65 17 -24 17 -24 0 8 -10 18 -33 47 -52 65 l-35 32 34 -40z"/>
 <path d="M1974 1468 c-31 -36 -47 -58 -41 -58 3 0 20 18 37 40 34 43 36 55 4 18z"/>
 <path d="M3745 1368 c-104 -146 -114 -164 -114 -218 -1 -90 67 -758 79 -781 18 -35 51 -69 82 -85 35 -18 111 -18 148 1 43 22 82 79 87 128 2 23 -7 161 -21 307 -14 146 -28 292 -31 325 -6 59 -6 61 42 126 26 37 59 82 72 100 21 29 22 31 4 16 -21 -18 -23 -17 -145 74 -67 51 -122 98 -122 106 1 7 1 13 0 13 -1 0 -38 -50 -81 -112z"/>
 <path d="M4150 1370 c-12 -16 -19 -30 -16 -30 2 0 14 14 26 30 12 17 19 30 16 30 -2 0 -14 -13 -26 -30z"/>
 <path d="M2597 1270 c3 -30 7 -57 9 -59 8 -9 2 75 -6 94 -5 12 -6 -1 -3 -35z"/>
 <path d="M1873 1210 c0 -30 2 -43 4 -27 2 15 2 39 0 55 -2 15 -4 2 -4 -28z"/>
 <path d="M2601 1175 c0 -17 -5 -46 -11 -64 -5 -19 -8 -37 -5 -39 8 -8 26 80 22 106 -4 26 -4 26 -6 -3z"/>
 <path d="M2495 948 l-40 -43 43 40 c23 21 42 40 42 42 0 8 -9 0 -45 -39z"/>
 <path d="M1950 977 c0 -2 15 -16 33 -33 l32 -29 -29 33 c-28 30 -36 37 -36 29z"/>
 <path d="M2208 843 c17 -2 47 -2 65 0 17 2 3 4 -33 4 -36 0 -50 -2 -32 -4z"/>
 <path d="M3375 510 c-3 -11 -23 -34 -43 -51 -20 -17 -27 -26 -16 -20 24 12 74 67 74 82 0 16 -8 10 -15 -11z"/>
 <path d="M3105 472 c11 -13 29 -28 40 -34 21 -11 18 -8 -30 32 -29 24 -29 24 -10 2z"/>
 <path d="M3198 416 c19 -5 45 -5 64 0 27 8 23 9 -32 9 -55 0 -59 -1 -32 -9z"/>
 </g>
<g id="layer110" fill="#feb69e" stroke="none">
 <path d="M3625 4205 c0 -280 1 -397 2 -258 2 138 2 368 0 510 -1 142 -2 29 -2 -252z"/>
 <path d="M1728 2683 l2 -566 -29 6 c-77 16 -85 16 -46 3 22 -8 50 -15 63 -15 l22 -1 0 558 c0 306 -4 562 -8 569 -4 6 -6 -243 -4 -554z"/>
 <path d="M2140 3228 c0 -5 33 -7 73 -7 76 2 68 6 -21 11 -28 2 -52 0 -52 -4z"/>
 <path d="M2650 2485 l0 -525 66 -67 66 -68 -56 63 c-31 35 -58 73 -61 85 -3 12 -4 250 -3 530 2 279 0 507 -4 507 -5 0 -8 -236 -8 -525z"/>
 <path d="M1158 2253 c12 -2 30 -2 40 0 9 3 -1 5 -23 4 -22 0 -30 -2 -17 -4z"/>
 <path d="M1044 2198 l-29 -33 33 29 c17 17 32 31 32 33 0 8 -8 1 -36 -29z"/>
 <path d="M1525 2161 c11 -4 36 -11 55 -15 24 -4 29 -3 15 3 -11 4 -36 11 -55 15 -24 4 -29 3 -15 -3z"/>
 <path d="M950 2080 c-33 -44 -59 -80 -56 -80 3 0 33 36 66 80 33 44 59 80 56 80 -3 0 -33 -36 -66 -80z"/>
 <path d="M1211 1868 l-22 -33 24 26 c13 14 30 29 38 32 11 4 11 6 -2 6 -8 1 -25 -14 -38 -31z"/>
 <path d="M1505 1820 c11 -5 27 -9 35 -9 9 0 8 4 -5 9 -11 5 -27 9 -35 9 -9 0 -8 -4 5 -9z"/>
 <path d="M4455 1816 c-41 -19 -75 -52 -91 -92 -17 -41 -18 -84 -1 -84 6 0 82 9 168 22 l155 22 -17 35 c-22 45 -54 76 -101 96 -45 18 -73 19 -113 1z"/>
 <path d="M2858 1733 c44 -49 97 -104 118 -123 21 -19 -13 20 -76 88 -62 67 -115 122 -118 122 -2 0 32 -39 76 -87z"/>
 <path d="M1575 1801 c11 -4 36 -11 55 -15 24 -4 29 -3 15 3 -11 4 -36 11 -55 15 -24 4 -29 3 -15 -3z"/>
 <path d="M1675 1774 c6 -2 57 -18 115 -35 104 -31 108 -32 375 -36 l270 -5 45 -41 44 -42 -44 50 -45 50 -265 1 -265 0 -110 32 c-96 28 -153 40 -120 26z"/>
 <path d="M679 1723 c-29 -35 -41 -53 -36 -53 2 0 17 16 31 35 28 36 31 49 5 18z"/>
 <path d="M5295 1730 c3 -5 -33 -68 -80 -140 -47 -72 -85 -135 -85 -141 0 -5 51 -43 114 -83 62 -41 115 -80 118 -87 3 -8 52 -142 108 -299 57 -157 112 -298 123 -314 23 -33 88 -65 132 -66 83 0 164 81 165 165 0 43 -224 681 -257 731 -15 24 -352 257 -338 234z"/>
 <path d="M613 1575 c0 -27 2 -38 4 -22 2 15 2 37 0 50 -2 12 -4 0 -4 -28z"/>
 <path d="M2662 1455 c69 -78 134 -148 144 -155 10 -8 -38 48 -108 125 -69 78 -134 148 -144 155 -10 8 38 -48 108 -125z"/>
 <path d="M941 1515 c-54 -69 -83 -89 -146 -101 -22 -4 -35 -9 -28 -11 19 -7 89 16 117 38 25 20 122 139 112 139 -2 0 -27 -29 -55 -65z"/>
 <path d="M2223 1573 c15 -2 37 -2 50 0 12 2 0 4 -28 4 -27 0 -38 -2 -22 -4z"/>
 <path d="M3050 1528 c41 -45 50 -53 50 -45 0 2 -21 23 -47 47 l-48 45 45 -47z"/>
 <path d="M4440 1533 c-90 -31 -161 -94 -207 -183 -25 -50 -28 -64 -28 -160 0 -90 4 -112 24 -152 60 -122 172 -197 306 -206 209 -13 385 151 385 359 0 104 -63 232 -142 289 -92 67 -235 89 -338 53z"/>
 <path d="M620 1512 c0 -30 86 -102 122 -102 7 0 -8 10 -32 23 -25 12 -55 37 -67 56 -13 19 -23 29 -23 23z"/>
 <path d="M2500 1465 c19 -22 43 -51 53 -65 17 -24 17 -24 0 8 -10 18 -33 47 -52 65 l-35 32 34 -40z"/>
 <path d="M1974 1468 c-31 -36 -47 -58 -41 -58 3 0 20 18 37 40 34 43 36 55 4 18z"/>
 <path d="M3734 1353 c-92 -129 -103 -150 -103 -203 -1 -90 67 -758 79 -781 34 -65 87 -99 155 -99 57 0 96 19 130 64 44 58 44 48 -6 559 l-21 208 43 62 c23 34 52 73 63 86 12 13 16 21 10 18 -6 -4 -69 36 -140 88 -71 52 -131 95 -135 95 -3 0 -37 -44 -75 -97z"/>
 <path d="M2597 1270 c3 -30 7 -57 9 -59 8 -9 2 75 -6 94 -5 12 -6 -1 -3 -35z"/>
 <path d="M1873 1210 c0 -30 2 -43 4 -27 2 15 2 39 0 55 -2 15 -4 2 -4 -28z"/>
 <path d="M2601 1175 c0 -17 -5 -46 -11 -64 -5 -19 -8 -37 -5 -39 8 -8 26 80 22 106 -4 26 -4 26 -6 -3z"/>
 <path d="M2495 948 l-40 -43 43 40 c23 21 42 40 42 42 0 8 -9 0 -45 -39z"/>
 <path d="M1950 977 c0 -2 15 -16 33 -33 l32 -29 -29 33 c-28 30 -36 37 -36 29z"/>
 <path d="M2208 843 c17 -2 47 -2 65 0 17 2 3 4 -33 4 -36 0 -50 -2 -32 -4z"/>
 <path d="M3375 510 c-3 -11 -23 -34 -43 -51 -20 -17 -27 -26 -16 -20 24 12 74 67 74 82 0 16 -8 10 -15 -11z"/>
 <path d="M3105 472 c11 -13 29 -28 40 -34 21 -11 18 -8 -30 32 -29 24 -29 24 -10 2z"/>
 <path d="M3198 416 c19 -5 45 -5 64 0 27 8 23 9 -32 9 -55 0 -59 -1 -32 -9z"/>
 </g>
<g id="layer111" fill="#fbd7a7" stroke="none">
 <path d="M3625 4205 c0 -280 1 -397 2 -258 2 138 2 368 0 510 -1 142 -2 29 -2 -252z"/>
 <path d="M1728 2683 l2 -566 -29 6 c-77 16 -85 16 -46 3 22 -8 50 -15 63 -15 l22 -1 0 558 c0 306 -4 562 -8 569 -4 6 -6 -243 -4 -554z"/>
 <path d="M2149 3227 c4 -4 37 -7 72 -5 l64 3 -72 5 c-40 3 -68 1 -64 -3z"/>
 <path d="M2650 2485 l0 -525 66 -67 66 -68 -56 63 c-31 35 -58 73 -61 85 -3 12 -4 250 -3 530 2 279 0 507 -4 507 -5 0 -8 -236 -8 -525z"/>
 <path d="M1525 2161 c11 -4 36 -11 55 -15 24 -4 29 -3 15 3 -11 4 -36 11 -55 15 -24 4 -29 3 -15 -3z"/>
 <path d="M1505 1820 c11 -5 27 -9 35 -9 9 0 8 4 -5 9 -11 5 -27 9 -35 9 -9 0 -8 -4 5 -9z"/>
 <path d="M2858 1733 c44 -49 97 -104 118 -123 21 -19 -13 20 -76 88 -62 67 -115 122 -118 122 -2 0 32 -39 76 -87z"/>
 <path d="M1575 1801 c11 -4 36 -11 55 -15 24 -4 29 -3 15 3 -11 4 -36 11 -55 15 -24 4 -29 3 -15 -3z"/>
 <path d="M1675 1774 c6 -2 57 -18 115 -35 104 -31 108 -32 375 -36 l270 -5 45 -41 45 -42 -43 46 -44 47 -271 5 c-269 4 -273 5 -377 36 -90 27 -149 40 -115 25z"/>
 <path d="M5299 1727 c13 -16 81 -60 81 -52 0 2 -21 18 -47 35 -26 18 -41 25 -34 17z"/>
 <path d="M4650 1690 c-24 -8 -23 -8 8 -9 20 -1 31 3 27 9 -3 6 -7 10 -8 9 -1 -1 -13 -5 -27 -9z"/>
 <path d="M4573 1673 c9 -2 25 -2 35 0 9 3 1 5 -18 5 -19 0 -27 -2 -17 -5z"/>
 <path d="M5405 1655 c11 -9 29 -21 40 -26 l20 -10 -20 16 c-11 9 -29 21 -40 26 l-20 10 20 -16z"/>
 <path d="M4443 1653 c9 -2 25 -2 35 0 9 3 1 5 -18 5 -19 0 -27 -2 -17 -5z"/>
 <path d="M2619 1503 c46 -51 86 -93 88 -93 7 0 -110 130 -143 160 -15 14 9 -17 55 -67z"/>
 <path d="M4750 1493 c13 -10 40 -31 60 -48 l35 -29 -27 30 c-15 16 -42 37 -60 47 -32 17 -32 17 -8 0z"/>
 <path d="M2500 1465 c19 -19 36 -35 39 -35 3 0 -10 16 -29 35 -19 19 -36 35 -39 35 -3 0 10 -16 29 -35z"/>
 <path d="M5653 1435 c11 -31 22 -54 23 -52 6 5 -27 96 -36 102 -4 2 2 -20 13 -50z"/>
 <path d="M4291 1435 c-22 -24 -41 -48 -41 -51 0 -4 1 -5 3 -3 2 2 23 25 47 52 23 26 40 47 38 47 -3 0 -24 -20 -47 -45z"/>
 <path d="M5130 1445 c0 -3 51 -39 114 -80 109 -71 115 -76 131 -125 9 -28 19 -50 21 -47 8 7 -27 95 -44 110 -25 22 -222 148 -222 142z"/>
 <path d="M3760 1390 c-12 -16 -19 -30 -16 -30 2 0 14 14 26 30 12 17 19 30 16 30 -2 0 -14 -13 -26 -30z"/>
 <path d="M2740 1365 c19 -19 36 -35 39 -35 3 0 -10 16 -29 35 -19 19 -36 35 -39 35 -3 0 10 -16 29 -35z"/>
 <path d="M5686 1350 c4 -14 13 -38 20 -55 11 -24 13 -25 8 -5 -4 14 -13 39 -20 55 -11 24 -13 25 -8 5z"/>
 <path d="M3710 1320 c-12 -16 -19 -30 -16 -30 2 0 14 14 26 30 12 17 19 30 16 30 -2 0 -14 -13 -26 -30z"/>
 <path d="M5720 1257 c0 -13 62 -178 66 -174 2 2 -10 41 -27 88 -28 78 -39 101 -39 86z"/>
 <path d="M4913 1190 c0 -36 2 -50 4 -32 2 17 2 47 0 65 -2 17 -4 3 -4 -33z"/>
 <path d="M3636 1204 c-8 -20 -6 -111 3 -189 6 -45 7 -28 7 72 -1 73 -2 133 -2 133 -1 0 -5 -7 -8 -16z"/>
 <path d="M4001 1163 c-24 -34 -41 -69 -40 -83 1 -23 2 -22 8 5 4 17 24 54 45 83 21 28 36 52 33 52 -3 0 -24 -26 -46 -57z"/>
 <path d="M3973 990 c0 -25 2 -35 4 -22 2 12 2 32 0 45 -2 12 -4 2 -4 -23z"/>
 <path d="M4267 975 c12 -16 34 -41 49 -55 19 -17 15 -10 -10 20 -53 61 -63 71 -39 35z"/>
 <path d="M1950 977 c0 -2 15 -16 33 -33 l32 -29 -29 33 c-28 30 -36 37 -36 29z"/>
 <path d="M3653 900 c0 -30 2 -43 4 -27 2 15 2 39 0 55 -2 15 -4 2 -4 -28z"/>
 <path d="M3983 890 c0 -30 2 -43 4 -27 2 15 2 39 0 55 -2 15 -4 2 -4 -28z"/>
 <path d="M3663 790 c0 -30 2 -43 4 -27 2 15 2 39 0 55 -2 15 -4 2 -4 -28z"/>
 <path d="M3993 790 c-1 -25 3 -72 7 -105 6 -54 7 -56 7 -15 1 25 -3 72 -7 105 -6 54 -7 56 -7 15z"/>
 <path d="M3673 690 c-1 -25 3 -72 7 -105 6 -54 7 -56 7 -15 1 25 -3 72 -7 105 -6 54 -7 56 -7 15z"/>
 <path d="M5599 656 c13 -16 51 -41 51 -33 0 2 -15 14 -32 27 -21 15 -28 17 -19 6z"/>
 <path d="M5825 644 c-18 -16 -22 -22 -9 -15 18 9 53 42 43 41 -2 -1 -17 -12 -34 -26z"/>
 <path d="M4013 570 c0 -30 2 -43 4 -27 2 15 2 39 0 55 -2 15 -4 2 -4 -28z"/>
 <path d="M5708 603 c12 -2 30 -2 40 0 9 3 -1 5 -23 4 -22 0 -30 -2 -17 -4z"/>
 <path d="M3693 470 c0 -30 2 -43 4 -27 2 15 2 39 0 55 -2 15 -4 2 -4 -28z"/>
 <path d="M4022 458 c-1 -31 -6 -68 -12 -83 -6 -16 -6 -24 0 -20 13 8 22 63 17 115 -3 42 -4 42 -5 -12z"/>
 <path d="M3213 413 c9 -2 25 -2 35 0 9 3 1 5 -18 5 -19 0 -27 -2 -17 -5z"/>
 <path d="M3720 347 c0 -2 15 -16 33 -33 l32 -29 -29 33 c-28 30 -36 37 -36 29z"/>
 <path d="M3979 323 c-8 -9 -32 -24 -54 -34 -22 -10 -34 -19 -27 -19 20 0 65 25 86 49 11 12 17 21 14 21 -3 0 -12 -7 -19 -17z"/>
 </g>
<g id="layer112" fill="#e4dbda" stroke="none">
 <path d="M3625 4205 c0 -280 1 -397 2 -258 2 138 2 368 0 510 -1 142 -2 29 -2 -252z"/>
 <path d="M2228 3223 c12 -2 30 -2 40 0 9 3 -1 5 -23 4 -22 0 -30 -2 -17 -4z"/>
 <path d="M2143 1703 c53 -2 141 -2 195 0 53 1 9 3 -98 3 -107 0 -151 -2 -97 -3z"/>
 <path d="M2950 1637 c0 -2 15 -16 33 -33 l32 -29 -29 33 c-28 30 -36 37 -36 29z"/>
 <path d="M4780 1477 c0 -2 15 -16 33 -33 l32 -29 -29 33 c-28 30 -36 37 -36 29z"/>
 <path d="M2740 1365 c19 -19 36 -35 39 -35 3 0 -10 16 -29 35 -19 19 -36 35 -39 35 -3 0 10 -16 29 -35z"/>
 <path d="M1950 977 c0 -2 15 -16 33 -33 l32 -29 -29 33 c-28 30 -36 37 -36 29z"/>
 <path d="M3213 413 c9 -2 25 -2 35 0 9 3 1 5 -18 5 -19 0 -27 -2 -17 -5z"/>
 </g>

</svg>