<?xml version="1.0"?>
<svg xmlns="http://www.w3.org/2000/svg" xmlns:xlink="http://www.w3.org/1999/xlink" version="1.1" id="Capa_1" x="0px" y="0px" viewBox="0 0 512 512" style="enable-background:new 0 0 512 512;" xml:space="preserve" width="512px" height="512px"><g><g>
	<path d="M399.677,166.002C379.956,103.666,321.871,61,256,61c-78.073,0-142.459,59.482-149.875,135.343   C48.723,191.568,0,236.827,0,293.5C0,347.262,43.91,391,97.882,391h53.71v-75c0-8.284,6.742-15,15.059-15h15.059v-55   c0-40.804,33.326-74,74.29-74s74.29,33.196,74.29,74v10c0,8.284-6.742,15-15.059,15s-15.059-6.716-15.059-15v-10   c0-24.262-19.816-44-44.173-44s-44.173,19.738-44.173,44v55h134.526c8.317,0,15.059,6.716,15.059,15v75h37.647   C461.334,391,512,340.532,512,278.5C512,216.672,461.671,166.333,399.677,166.002z" data-original="#000000" class="active-path" data-old_color="#000000" fill="#3AB0D7"/>
	<path d="M181.71,451h149.584V331H181.71V451z M240.941,376c0-8.284,6.742-15,15.059-15s15.059,6.716,15.059,15v30   c0,8.284-6.742,15-15.059,15s-15.059-6.716-15.059-15V376z" data-original="#000000" class="active-path" data-old_color="#000000" fill="#3AB0D7"/>
</g></g> </svg>
