<?xml version="1.0"?>
<svg xmlns="http://www.w3.org/2000/svg" xmlns:xlink="http://www.w3.org/1999/xlink" version="1.1" id="Capa_1" x="0px" y="0px" viewBox="0 0 512 512" style="enable-background:new 0 0 512 512;" xml:space="preserve" width="512px" height="512px"><g><g>
	<g>
		<path d="M452,0H60C26.916,0,0,26.916,0,60v150c0,27.906,19.151,51.424,45,58.102V512h30V270h362v242h30V268.102    c25.849-6.678,45-30.195,45-58.102V60C512,26.916,485.084,0,452,0z M482,210c0,16.542-13.458,30-30,30H60    c-16.542,0-30-13.458-30-30V60c0-16.542,13.458-30,30-30h392c16.542,0,30,13.458,30,30V210z" data-original="#000000" class="active-path" data-old_color="#000000" fill="#3AB0D7"/>
	</g>
</g><g>
	<g>
		<rect x="90" y="90" width="332" height="30" data-original="#000000" class="active-path" data-old_color="#000000" fill="#3AB0D7"/>
	</g>
</g><g>
	<g>
		<rect x="165" y="150" width="182" height="30" data-original="#000000" class="active-path" data-old_color="#000000" fill="#3AB0D7"/>
	</g>
</g></g> </svg>
