<?xml version="1.0"?>
<svg xmlns="http://www.w3.org/2000/svg" height="512px" version="1.1" viewBox="0 0 512 512" width="512px"><g><g id="surface1">
<path d="M 497 0 C 488.71875 0 482 6.714844 482 15 L 482 40.164062 L 30 40.164062 L 30 15 C 30 6.714844 23.285156 0 15 0 C 6.714844 0 0 6.714844 0 15 L 0 497 C 0 505.285156 6.714844 512 15 512 C 23.285156 512 30 505.285156 30 497 L 30 311.164062 L 482 311.164062 L 482 497 C 482 505.285156 488.71875 512 497 512 C 505.285156 512 512 505.285156 512 497 L 512 15 C 512 6.714844 505.285156 0 497 0 Z M 482 160.664062 L 391.5 160.664062 L 391.5 70.164062 L 482 70.164062 Z M 241 160.664062 L 150.5 160.664062 L 150.5 70.164062 L 241 70.164062 Z M 30 190.664062 L 120.5 190.664062 L 120.5 281.164062 L 30 281.164062 Z M 271 190.664062 L 361.5 190.664062 L 361.5 281.164062 L 271 281.164062 Z M 271 190.664062 " data-original="#000000" class="active-path" data-old_color="#000000" fill="#FFFFFF"/>
</g></g> </svg>
