<?xml version="1.0"?>
<svg xmlns="http://www.w3.org/2000/svg" height="512px" viewBox="0 0 512 512" width="512px" class=""><g><path d="m437 0h-362c-41.351562 0-75 33.648438-75 75v362c0 41.351562 33.648438 75 75 75h362c41.351562 0 75-33.648438 75-75v-362c0-41.351562-33.648438-75-75-75zm15 437c0 8.289062-6.710938 15-15 15h-362c-8.289062 0-15-6.710938-15-15v-362c0-8.289062 6.710938-15 15-15h362c8.289062 0 15 6.710938 15 15zm0 0" data-original="#000000" class="active-path" data-old_color="#000000" fill="#FFFFFF"/><path d="m271 105c0 8.289062-6.710938 15-15 15s-15-6.710938-15-15v-15h-151v151h15c8.289062 0 15 6.710938 15 15s-6.710938 15-15 15h-15v151h151v-15c0-8.289062 6.710938-15 15-15s15 6.710938 15 15v15h151v-151h-15c-8.289062 0-15-6.710938-15-15s6.710938-15 15-15h15v-151h-151zm90 151c0 8.289062-6.710938 15-15 15h-90c-8.289062 0-15-6.710938-15-15v-91c0-8.289062 6.710938-15 15-15s15 6.710938 15 15v76h75c8.289062 0 15 6.710938 15 15zm0 0" data-original="#000000" class="active-path" data-old_color="#000000" fill="#FFFFFF"/></g> </svg>
