<!DOCTYPE svg PUBLIC "-//W3C//DTD SVG 20010904//EN" "http://www.w3.org/TR/2001/REC-SVG-20010904/DTD/svg10.dtd">
<svg version="1.0" xmlns="http://www.w3.org/2000/svg" width="282px" height="298px" viewBox="0 0 2820 2980" preserveAspectRatio="xMidYMid meet">
<g id="layer101" fill="#3ab0d7" stroke="none">
 <path d="M1270 2738 c-100 -97 -83 -95 -185 -28 -50 32 -91 55 -93 50 -2 -4 11 -138 28 -296 16 -159 33 -314 36 -344 11 -113 20 -122 70 -69 71 75 178 95 263 51 l45 -24 43 22 c81 41 152 36 228 -16 20 -14 39 -24 41 -22 1 2 10 71 19 153 21 200 54 483 60 518 2 15 0 27 -5 27 -6 0 -49 -25 -97 -55 l-88 -54 -77 76 c-43 42 -79 75 -81 72 -2 -2 -19 -138 -37 -301 -19 -164 -35 -296 -36 -295 -1 1 -14 124 -28 272 -15 149 -30 283 -34 298 l-7 29 -65 -64z"/>
 <path d="M1237 2098 c-20 -5 -60 -31 -88 -56 -47 -42 -55 -45 -99 -43 -91 4 -171 -50 -210 -140 -17 -42 -27 -52 -71 -70 -88 -38 -143 -125 -138 -218 2 -34 -3 -46 -44 -91 -71 -79 -83 -157 -36 -238 24 -41 24 -53 0 -94 -47 -81 -35 -160 37 -240 41 -45 45 -54 43 -95 -4 -91 62 -184 154 -216 31 -11 40 -21 56 -61 34 -92 102 -138 202 -138 54 0 62 -3 85 -29 67 -81 170 -103 258 -57 l49 26 49 -26 c89 -47 190 -25 258 57 23 26 31 29 85 29 100 0 181 59 213 156 8 26 19 35 51 45 85 26 153 127 148 220 -2 34 3 46 43 90 71 79 85 179 34 246 -19 25 -19 55 0 80 51 68 37 171 -34 248 -40 42 -46 53 -44 88 6 95 -47 179 -138 218 -43 18 -53 28 -71 71 -39 91 -123 144 -219 138 -35 -2 -46 3 -83 39 -57 55 -82 66 -148 66 -40 0 -67 -6 -93 -21 -46 -27 -56 -27 -98 -3 -42 25 -102 33 -151 19z m396 -447 c134 -57 238 -176 281 -320 50 -170 -14 -392 -147 -506 -202 -173 -498 -164 -682 20 -222 221 -184 599 77 766 94 61 168 80 288 76 92 -3 115 -7 183 -36z"/>
 </g>

</svg>