<!DOCTYPE svg PUBLIC "-//W3C//DTD SVG 20010904//EN" "http://www.w3.org/TR/2001/REC-SVG-20010904/DTD/svg10.dtd">
<svg version="1.0" xmlns="http://www.w3.org/2000/svg" width="124px" height="106px" viewBox="0 0 1240 1060" preserveAspectRatio="xMidYMid meet">
<g id="layer101" fill="#f3f3f3" stroke="none">
 <path d="M345 947 c-3 -6 -4 -190 -3 -407 l3 -395 273 -3 272 -2 0 410 0 410 -270 0 c-208 0 -272 -3 -275 -13z"/>
 <path d="M70 550 l0 -300 115 0 115 0 0 300 0 300 -115 0 -115 0 0 -300z"/>
 <path d="M940 550 l0 -300 110 0 110 0 0 300 0 300 -110 0 -110 0 0 -300z"/>
 </g>

</svg>